G04 #@! TF.GenerationSoftware,KiCad,Pcbnew,(5.0.2)-1*
G04 #@! TF.CreationDate,2019-03-08T09:31:56+07:00*
G04 #@! TF.ProjectId,HY-AI7688H,48592d41-4937-4363-9838-482e6b696361,A*
G04 #@! TF.SameCoordinates,Original*
G04 #@! TF.FileFunction,Copper,L2,Bot*
G04 #@! TF.FilePolarity,Positive*
%FSLAX46Y46*%
G04 Gerber Fmt 4.6, Leading zero omitted, Abs format (unit mm)*
G04 Created by KiCad (PCBNEW (5.0.2)-1) date 08/03/2019 9:31:56 SA*
%MOMM*%
%LPD*%
G01*
G04 APERTURE LIST*
G04 #@! TA.AperFunction,ViaPad*
%ADD10C,1.000000*%
G04 #@! TD*
G04 #@! TA.AperFunction,ViaPad*
%ADD11C,1.100000*%
G04 #@! TD*
G04 #@! TA.AperFunction,ComponentPad*
%ADD12C,1.800000*%
G04 #@! TD*
G04 #@! TA.AperFunction,ViaPad*
%ADD13C,0.900000*%
G04 #@! TD*
G04 #@! TA.AperFunction,ComponentPad*
%ADD14O,1.500000X1.100000*%
G04 #@! TD*
G04 #@! TA.AperFunction,ComponentPad*
%ADD15O,3.000000X1.500000*%
G04 #@! TD*
G04 #@! TA.AperFunction,ComponentPad*
%ADD16C,6.000000*%
G04 #@! TD*
G04 #@! TA.AperFunction,ComponentPad*
%ADD17C,1.778000*%
G04 #@! TD*
G04 #@! TA.AperFunction,ComponentPad*
%ADD18R,1.778000X1.778000*%
G04 #@! TD*
G04 #@! TA.AperFunction,ComponentPad*
%ADD19R,1.700000X1.700000*%
G04 #@! TD*
G04 #@! TA.AperFunction,ComponentPad*
%ADD20C,1.700000*%
G04 #@! TD*
G04 #@! TA.AperFunction,ComponentPad*
%ADD21C,3.200000*%
G04 #@! TD*
G04 #@! TA.AperFunction,ComponentPad*
%ADD22O,1.510000X4.000000*%
G04 #@! TD*
G04 #@! TA.AperFunction,ComponentPad*
%ADD23O,4.000000X1.510000*%
G04 #@! TD*
G04 #@! TA.AperFunction,Conductor*
%ADD24C,0.100000*%
G04 #@! TD*
G04 #@! TA.AperFunction,ComponentPad*
%ADD25C,2.500000*%
G04 #@! TD*
G04 #@! TA.AperFunction,ComponentPad*
%ADD26C,1.600000*%
G04 #@! TD*
G04 #@! TA.AperFunction,ComponentPad*
%ADD27C,2.600000*%
G04 #@! TD*
G04 #@! TA.AperFunction,ComponentPad*
%ADD28C,3.500000*%
G04 #@! TD*
G04 #@! TA.AperFunction,ComponentPad*
%ADD29C,1.000000*%
G04 #@! TD*
G04 #@! TA.AperFunction,ViaPad*
%ADD30C,1.500000*%
G04 #@! TD*
G04 #@! TA.AperFunction,Conductor*
%ADD31C,0.254000*%
G04 #@! TD*
G04 #@! TA.AperFunction,Conductor*
%ADD32C,0.762000*%
G04 #@! TD*
G04 #@! TA.AperFunction,Conductor*
%ADD33C,0.500000*%
G04 #@! TD*
G04 #@! TA.AperFunction,Conductor*
%ADD34C,0.400000*%
G04 #@! TD*
G04 #@! TA.AperFunction,Conductor*
%ADD35C,0.508000*%
G04 #@! TD*
G04 #@! TA.AperFunction,Conductor*
%ADD36C,0.300000*%
G04 #@! TD*
G04 #@! TA.AperFunction,Conductor*
%ADD37C,1.000000*%
G04 #@! TD*
G04 #@! TA.AperFunction,Conductor*
%ADD38C,0.800000*%
G04 #@! TD*
G04 #@! TA.AperFunction,Conductor*
%ADD39C,1.016000*%
G04 #@! TD*
G04 #@! TA.AperFunction,Conductor*
%ADD40C,1.220000*%
G04 #@! TD*
G04 #@! TA.AperFunction,Conductor*
%ADD41C,0.700000*%
G04 #@! TD*
G04 APERTURE END LIST*
D10*
G04 #@! TO.N,GND*
G04 #@! TO.C,REF\002A\002A*
X113800000Y-62400000D03*
G04 #@! TD*
G04 #@! TO.N,GND*
G04 #@! TO.C,REF\002A\002A*
X115400000Y-63900000D03*
G04 #@! TD*
G04 #@! TO.N,GND*
G04 #@! TO.C,REF\002A\002A*
X111700000Y-61900000D03*
G04 #@! TD*
G04 #@! TO.N,GND*
G04 #@! TO.C,REF\002A\002A*
X111800000Y-64200000D03*
G04 #@! TD*
G04 #@! TO.N,GND*
G04 #@! TO.C,REF\002A\002A*
X140300000Y-101800000D03*
G04 #@! TD*
G04 #@! TO.N,GND*
G04 #@! TO.C,REF\002A\002A*
X136300000Y-109000000D03*
G04 #@! TD*
G04 #@! TO.N,GND*
G04 #@! TO.C,REF\002A\002A*
X145000000Y-104000000D03*
G04 #@! TD*
G04 #@! TO.N,GND*
G04 #@! TO.C,REF\002A\002A*
X145000000Y-101700000D03*
G04 #@! TD*
G04 #@! TO.N,GND*
G04 #@! TO.C,REF\002A\002A*
X78200000Y-50500000D03*
G04 #@! TD*
G04 #@! TO.N,GND*
G04 #@! TO.C,REF\002A\002A*
X74400000Y-50500000D03*
G04 #@! TD*
G04 #@! TO.N,GND*
G04 #@! TO.C,REF\002A\002A*
X74400000Y-46700000D03*
G04 #@! TD*
G04 #@! TO.N,GND*
G04 #@! TO.C,REF\002A\002A*
X100850000Y-43100000D03*
G04 #@! TD*
G04 #@! TO.N,GND*
G04 #@! TO.C,REF\002A\002A*
X100850000Y-45900000D03*
G04 #@! TD*
G04 #@! TO.N,GND*
G04 #@! TO.C,REF\002A\002A*
X97800000Y-48700000D03*
G04 #@! TD*
G04 #@! TO.N,GND*
G04 #@! TO.C,REF\002A\002A*
X103900000Y-48700000D03*
G04 #@! TD*
G04 #@! TO.N,GND*
G04 #@! TO.C,REF\002A\002A*
X100850000Y-48700000D03*
G04 #@! TD*
G04 #@! TO.N,GND*
G04 #@! TO.C,REF\002A\002A*
X88900000Y-43200000D03*
G04 #@! TD*
G04 #@! TO.N,GND*
G04 #@! TO.C,REF\002A\002A*
X88900000Y-39800000D03*
G04 #@! TD*
G04 #@! TO.N,GND*
G04 #@! TO.C,REF\002A\002A*
X84700000Y-36400000D03*
G04 #@! TD*
G04 #@! TO.N,GND*
G04 #@! TO.C,REF\002A\002A*
X88900000Y-36400000D03*
G04 #@! TD*
G04 #@! TO.N,GND*
G04 #@! TO.C,REF\002A\002A*
X96000000Y-36400000D03*
G04 #@! TD*
G04 #@! TO.N,GND*
G04 #@! TO.C,REF\002A\002A*
X101700000Y-36400000D03*
G04 #@! TD*
G04 #@! TO.N,GND*
G04 #@! TO.C,REF\002A\002A*
X107200000Y-36400000D03*
G04 #@! TD*
G04 #@! TO.N,GND*
G04 #@! TO.C,REF\002A\002A*
X86100000Y-115400000D03*
G04 #@! TD*
G04 #@! TO.N,GND*
G04 #@! TO.C,REF\002A\002A*
X86100000Y-118500000D03*
G04 #@! TD*
G04 #@! TO.N,GND*
G04 #@! TO.C,REF\002A\002A*
X105600000Y-109400000D03*
G04 #@! TD*
G04 #@! TO.N,GND*
G04 #@! TO.C,REF\002A\002A*
X166650000Y-46200000D03*
G04 #@! TD*
G04 #@! TO.N,GND*
G04 #@! TO.C,REF\002A\002A*
X166650000Y-50100000D03*
G04 #@! TD*
G04 #@! TO.N,GND*
G04 #@! TO.C,REF\002A\002A*
X168950000Y-52950000D03*
G04 #@! TD*
G04 #@! TO.N,GND*
G04 #@! TO.C,REF\002A\002A*
X168950000Y-50050000D03*
G04 #@! TD*
G04 #@! TO.N,GND*
G04 #@! TO.C,REF\002A\002A*
X168950000Y-47050000D03*
G04 #@! TD*
G04 #@! TO.N,GND*
G04 #@! TO.C,REF\002A\002A*
X166500000Y-53550000D03*
G04 #@! TD*
G04 #@! TO.N,GND*
G04 #@! TO.C,REF\002A\002A*
X168950000Y-44350000D03*
G04 #@! TD*
G04 #@! TO.N,GND*
G04 #@! TO.C,REF\002A\002A*
X164150000Y-45400000D03*
G04 #@! TD*
G04 #@! TO.N,GND*
G04 #@! TO.C,REF\002A\002A*
X164150000Y-48150000D03*
G04 #@! TD*
G04 #@! TO.N,GND*
G04 #@! TO.C,REF\002A\002A*
X164150000Y-51150000D03*
G04 #@! TD*
G04 #@! TO.N,GND*
G04 #@! TO.C,REF\002A\002A*
X164100000Y-53750000D03*
G04 #@! TD*
G04 #@! TO.N,GND*
G04 #@! TO.C,REF\002A\002A*
X95850000Y-95050000D03*
G04 #@! TD*
G04 #@! TO.N,GND*
G04 #@! TO.C,REF\002A\002A*
X96970000Y-95750000D03*
G04 #@! TD*
G04 #@! TO.N,GND*
G04 #@! TO.C,REF\002A\002A*
X105930000Y-112450000D03*
G04 #@! TD*
G04 #@! TO.N,GND*
G04 #@! TO.C,REF\002A\002A*
X110940000Y-112430000D03*
G04 #@! TD*
G04 #@! TO.N,GND*
G04 #@! TO.C,REF\002A\002A*
X74960000Y-88750000D03*
G04 #@! TD*
G04 #@! TO.N,GND*
G04 #@! TO.C,REF\002A\002A*
X74960000Y-92123333D03*
G04 #@! TD*
G04 #@! TO.N,GND*
G04 #@! TO.C,REF\002A\002A*
X74960000Y-95496666D03*
G04 #@! TD*
D11*
G04 #@! TO.N,GND*
G04 #@! TO.C,REF\002A\002A*
X82470000Y-79970000D03*
G04 #@! TD*
G04 #@! TO.N,GND*
G04 #@! TO.C,REF\002A\002A*
X82450000Y-77435000D03*
G04 #@! TD*
G04 #@! TO.N,GND*
G04 #@! TO.C,REF\002A\002A*
X82490000Y-74900000D03*
G04 #@! TD*
D10*
G04 #@! TO.N,GND*
G04 #@! TO.C,REF\002A\002A*
X135940000Y-111480000D03*
G04 #@! TD*
G04 #@! TO.N,GND*
G04 #@! TO.C,REF\002A\002A*
X112170000Y-36900000D03*
G04 #@! TD*
G04 #@! TO.N,GND*
G04 #@! TO.C,REF\002A\002A*
X117793333Y-36900000D03*
G04 #@! TD*
G04 #@! TO.N,GND*
G04 #@! TO.C,REF\002A\002A*
X129039999Y-36900000D03*
G04 #@! TD*
G04 #@! TO.N,GND*
G04 #@! TO.C,REF\002A\002A*
X123416666Y-36900000D03*
G04 #@! TD*
G04 #@! TO.N,GND*
G04 #@! TO.C,REF\002A\002A*
X134663332Y-36900000D03*
G04 #@! TD*
G04 #@! TO.N,GND*
G04 #@! TO.C,REF\002A\002A*
X140286665Y-36900000D03*
G04 #@! TD*
G04 #@! TO.N,GND*
G04 #@! TO.C,REF\002A\002A*
X145910000Y-36900000D03*
G04 #@! TD*
G04 #@! TO.N,GND*
G04 #@! TO.C,REF\002A\002A*
X145910000Y-40396666D03*
G04 #@! TD*
G04 #@! TO.N,GND*
G04 #@! TO.C,REF\002A\002A*
X145910000Y-43893332D03*
G04 #@! TD*
G04 #@! TO.N,GND*
G04 #@! TO.C,REF\002A\002A*
X145910000Y-47390000D03*
G04 #@! TD*
G04 #@! TO.N,GND*
G04 #@! TO.C,REF\002A\002A*
X143440000Y-47390000D03*
G04 #@! TD*
G04 #@! TO.N,GND*
G04 #@! TO.C,REF\002A\002A*
X137510000Y-47410000D03*
G04 #@! TD*
G04 #@! TO.N,GND*
G04 #@! TO.C,REF\002A\002A*
X134715000Y-47420000D03*
G04 #@! TD*
G04 #@! TO.N,GND*
G04 #@! TO.C,REF\002A\002A*
X120790000Y-47420000D03*
G04 #@! TD*
G04 #@! TO.N,GND*
G04 #@! TO.C,REF\002A\002A*
X122830000Y-47420000D03*
G04 #@! TD*
D11*
G04 #@! TO.N,GND*
G04 #@! TO.C,REF\002A\002A*
X101040000Y-74560000D03*
G04 #@! TD*
G04 #@! TO.N,GND*
G04 #@! TO.C,REF\002A\002A*
X98590000Y-74560000D03*
G04 #@! TD*
G04 #@! TO.N,GND*
G04 #@! TO.C,REF\002A\002A*
X72800000Y-68360000D03*
G04 #@! TD*
G04 #@! TO.N,GND*
G04 #@! TO.C,REF\002A\002A*
X76170000Y-68360000D03*
G04 #@! TD*
G04 #@! TO.N,GND*
G04 #@! TO.C,REF\002A\002A*
X80670000Y-68360000D03*
G04 #@! TD*
G04 #@! TO.N,GND*
G04 #@! TO.C,REF\002A\002A*
X83630000Y-68360000D03*
G04 #@! TD*
G04 #@! TO.N,GND*
G04 #@! TO.C,REF\002A\002A*
X88580000Y-66380000D03*
G04 #@! TD*
G04 #@! TO.N,GND*
G04 #@! TO.C,REF\002A\002A*
X86360000Y-67490000D03*
G04 #@! TD*
D12*
G04 #@! TO.P,REF\002A\002A,1*
G04 #@! TO.N,GND*
X125700000Y-92400000D03*
G04 #@! TD*
G04 #@! TO.P,REF\002A\002A,1*
G04 #@! TO.N,GND*
X136750000Y-92300000D03*
G04 #@! TD*
G04 #@! TO.P,REF\002A\002A,1*
G04 #@! TO.N,GND*
X136780000Y-72540000D03*
G04 #@! TD*
G04 #@! TO.P,REF\002A\002A,1*
G04 #@! TO.N,GND*
X125700000Y-72500000D03*
G04 #@! TD*
D10*
G04 #@! TO.N,GND*
G04 #@! TO.C,REF\002A\002A*
X97670000Y-78600000D03*
G04 #@! TD*
G04 #@! TO.N,GND*
G04 #@! TO.C,REF\002A\002A*
X108710000Y-107480000D03*
G04 #@! TD*
G04 #@! TO.N,GND*
G04 #@! TO.C,REF\002A\002A*
X119680000Y-107480000D03*
G04 #@! TD*
G04 #@! TO.N,GND*
G04 #@! TO.C,REF\002A\002A*
X118220000Y-103580000D03*
G04 #@! TD*
G04 #@! TO.N,GND*
G04 #@! TO.C,REF\002A\002A*
X111452500Y-107480000D03*
G04 #@! TD*
G04 #@! TO.N,GND*
G04 #@! TO.C,REF\002A\002A*
X116937500Y-107480000D03*
G04 #@! TD*
D13*
G04 #@! TO.N,GND*
G04 #@! TO.C,REF\002A\002A*
X115900000Y-79450000D03*
G04 #@! TD*
D10*
G04 #@! TO.N,GND*
G04 #@! TO.C,REF\002A\002A*
X107120000Y-86910000D03*
G04 #@! TD*
G04 #@! TO.N,GND*
G04 #@! TO.C,REF\002A\002A*
X124910000Y-47420000D03*
G04 #@! TD*
G04 #@! TO.N,GND*
G04 #@! TO.C,REF\002A\002A*
X131920000Y-47420000D03*
G04 #@! TD*
D11*
G04 #@! TO.N,GND*
G04 #@! TO.C,REF\002A\002A*
X99187000Y-56896000D03*
G04 #@! TD*
G04 #@! TO.N,GND*
G04 #@! TO.C,REF\002A\002A*
X104140000Y-56896000D03*
G04 #@! TD*
G04 #@! TO.N,GND*
G04 #@! TO.C,REF\002A\002A*
X109650000Y-56900000D03*
G04 #@! TD*
D10*
G04 #@! TO.N,GND*
G04 #@! TO.C,REF\002A\002A*
X115780000Y-71270000D03*
G04 #@! TD*
G04 #@! TO.N,GND*
G04 #@! TO.C,REF\002A\002A*
X89515000Y-118540000D03*
G04 #@! TD*
G04 #@! TO.N,GND*
G04 #@! TO.C,REF\002A\002A*
X169200000Y-75950000D03*
G04 #@! TD*
G04 #@! TO.N,GND*
G04 #@! TO.C,REF\002A\002A*
X161650000Y-82150000D03*
G04 #@! TD*
G04 #@! TO.N,GND*
G04 #@! TO.C,REF\002A\002A*
X169550000Y-82150000D03*
G04 #@! TD*
D13*
G04 #@! TO.N,GND*
G04 #@! TO.C,REF\002A\002A*
X169550000Y-90550000D03*
G04 #@! TD*
D10*
G04 #@! TO.N,GND*
G04 #@! TO.C,REF\002A\002A*
X169500000Y-99900000D03*
G04 #@! TD*
G04 #@! TO.N,GND*
G04 #@! TO.C,REF\002A\002A*
X168080000Y-109520000D03*
G04 #@! TD*
G04 #@! TO.N,GND*
G04 #@! TO.C,REF\002A\002A*
X158700000Y-112900000D03*
G04 #@! TD*
G04 #@! TO.N,GND*
G04 #@! TO.C,REF\002A\002A*
X149500000Y-112600000D03*
G04 #@! TD*
G04 #@! TO.N,GND*
G04 #@! TO.C,REF\002A\002A*
X150622000Y-72390000D03*
G04 #@! TD*
G04 #@! TO.N,GND*
G04 #@! TO.C,REF\002A\002A*
X150880000Y-100330000D03*
G04 #@! TD*
G04 #@! TO.N,GND*
G04 #@! TO.C,REF\002A\002A*
X146050000Y-109300000D03*
G04 #@! TD*
G04 #@! TO.N,GND*
G04 #@! TO.C,REF\002A\002A*
X143100000Y-112600000D03*
G04 #@! TD*
G04 #@! TO.N,GND*
G04 #@! TO.C,REF\002A\002A*
X114195000Y-107480000D03*
G04 #@! TD*
G04 #@! TO.N,GND*
G04 #@! TO.C,REF\002A\002A*
X116870000Y-113426000D03*
G04 #@! TD*
G04 #@! TO.N,GND*
G04 #@! TO.C,REF\002A\002A*
X119410000Y-113426000D03*
G04 #@! TD*
G04 #@! TO.N,GND*
G04 #@! TO.C,REF\002A\002A*
X121950000Y-113426000D03*
G04 #@! TD*
G04 #@! TO.N,GND*
G04 #@! TO.C,REF\002A\002A*
X124490000Y-113426000D03*
G04 #@! TD*
G04 #@! TO.N,GND*
G04 #@! TO.C,REF\002A\002A*
X127030000Y-113426000D03*
G04 #@! TD*
G04 #@! TO.N,GND*
G04 #@! TO.C,REF\002A\002A*
X132110000Y-113426000D03*
G04 #@! TD*
G04 #@! TO.N,GND*
G04 #@! TO.C,REF\002A\002A*
X129570000Y-113426000D03*
G04 #@! TD*
G04 #@! TO.N,GND*
G04 #@! TO.C,REF\002A\002A*
X161850000Y-112900000D03*
G04 #@! TD*
G04 #@! TO.N,GND*
G04 #@! TO.C,REF\002A\002A*
X159680000Y-106900000D03*
G04 #@! TD*
G04 #@! TO.N,GND*
G04 #@! TO.C,REF\002A\002A*
X161650000Y-99900000D03*
G04 #@! TD*
D13*
G04 #@! TO.N,GND*
G04 #@! TO.C,REF\002A\002A*
X165575000Y-90550000D03*
G04 #@! TD*
G04 #@! TO.N,GND*
G04 #@! TO.C,REF\002A\002A*
X161600000Y-90550000D03*
G04 #@! TD*
D10*
G04 #@! TO.N,GND*
G04 #@! TO.C,REF\002A\002A*
X166916666Y-82150000D03*
G04 #@! TD*
G04 #@! TO.N,GND*
G04 #@! TO.C,REF\002A\002A*
X164283333Y-82150000D03*
G04 #@! TD*
G04 #@! TO.N,GND*
G04 #@! TO.C,REF\002A\002A*
X100990000Y-78600000D03*
G04 #@! TD*
G04 #@! TO.N,GND*
G04 #@! TO.C,REF\002A\002A*
X103760000Y-86910000D03*
G04 #@! TD*
D11*
G04 #@! TO.N,GND*
G04 #@! TO.C,REF\002A\002A*
X96140000Y-74540000D03*
G04 #@! TD*
D10*
G04 #@! TO.N,GND*
G04 #@! TO.C,REF\002A\002A*
X112950000Y-80300000D03*
G04 #@! TD*
G04 #@! TO.N,GND*
G04 #@! TO.C,REF\002A\002A*
X119153000Y-57660000D03*
G04 #@! TD*
G04 #@! TO.N,GND*
G04 #@! TO.C,REF\002A\002A*
X121566000Y-57660000D03*
G04 #@! TD*
G04 #@! TO.N,GND*
G04 #@! TO.C,REF\002A\002A*
X124106000Y-57660000D03*
G04 #@! TD*
G04 #@! TO.N,GND*
G04 #@! TO.C,REF\002A\002A*
X126519000Y-57660000D03*
G04 #@! TD*
G04 #@! TO.N,GND*
G04 #@! TO.C,REF\002A\002A*
X129186000Y-57660000D03*
G04 #@! TD*
G04 #@! TO.N,GND*
G04 #@! TO.C,REF\002A\002A*
X131900000Y-57660000D03*
G04 #@! TD*
G04 #@! TO.N,GND*
G04 #@! TO.C,REF\002A\002A*
X134266000Y-57660000D03*
G04 #@! TD*
G04 #@! TO.N,GND*
G04 #@! TO.C,REF\002A\002A*
X136806000Y-57660000D03*
G04 #@! TD*
G04 #@! TO.N,GND*
G04 #@! TO.C,REF\002A\002A*
X139219000Y-57660000D03*
G04 #@! TD*
G04 #@! TO.N,GND*
G04 #@! TO.C,REF\002A\002A*
X142050000Y-57650000D03*
G04 #@! TD*
G04 #@! TO.N,GND*
G04 #@! TO.C,REF\002A\002A*
X145400000Y-64650000D03*
G04 #@! TD*
G04 #@! TO.N,GND*
G04 #@! TO.C,REF\002A\002A*
X144050000Y-65750000D03*
G04 #@! TD*
D11*
G04 #@! TO.N,GND*
G04 #@! TO.C,REF\002A\002A*
X113665000Y-66167000D03*
G04 #@! TD*
D10*
G04 #@! TO.N,GND*
G04 #@! TO.C,REF\002A\002A*
X112268000Y-71628000D03*
G04 #@! TD*
G04 #@! TO.N,GND*
G04 #@! TO.C,REF\002A\002A*
X106934000Y-66294000D03*
G04 #@! TD*
D11*
G04 #@! TO.N,GND*
G04 #@! TO.C,REF\002A\002A*
X94250000Y-64850000D03*
G04 #@! TD*
D10*
G04 #@! TO.N,GND*
G04 #@! TO.C,REF\002A\002A*
X82410000Y-87020000D03*
G04 #@! TD*
G04 #@! TO.N,GND*
G04 #@! TO.C,REF\002A\002A*
X108435000Y-112430000D03*
G04 #@! TD*
G04 #@! TO.N,GND*
G04 #@! TO.C,REF\002A\002A*
X96670000Y-118540000D03*
G04 #@! TD*
G04 #@! TO.N,GND*
G04 #@! TO.C,REF\002A\002A*
X79070000Y-110910000D03*
G04 #@! TD*
G04 #@! TO.N,GND*
G04 #@! TO.C,REF\002A\002A*
X82360000Y-112150000D03*
G04 #@! TD*
G04 #@! TO.N,GND*
G04 #@! TO.C,REF\002A\002A*
X74960000Y-98870000D03*
G04 #@! TD*
G04 #@! TO.N,GND*
G04 #@! TO.C,REF\002A\002A*
X82360000Y-115345000D03*
G04 #@! TD*
G04 #@! TO.N,GND*
G04 #@! TO.C,REF\002A\002A*
X82360000Y-118540000D03*
G04 #@! TD*
G04 #@! TO.N,GND*
G04 #@! TO.C,REF\002A\002A*
X100400000Y-86910000D03*
G04 #@! TD*
G04 #@! TO.N,GND*
G04 #@! TO.C,REF\002A\002A*
X155650000Y-112900000D03*
G04 #@! TD*
G04 #@! TO.N,GND*
G04 #@! TO.C,REF\002A\002A*
X146050000Y-112600000D03*
G04 #@! TD*
G04 #@! TO.N,GND*
G04 #@! TO.C,REF\002A\002A*
X143100000Y-109300000D03*
G04 #@! TD*
G04 #@! TO.N,GND*
G04 #@! TO.C,REF\002A\002A*
X150880000Y-97790000D03*
G04 #@! TD*
G04 #@! TO.N,GND*
G04 #@! TO.C,REF\002A\002A*
X150880000Y-95210000D03*
G04 #@! TD*
G04 #@! TO.N,GND*
G04 #@! TO.C,REF\002A\002A*
X150880000Y-92630000D03*
G04 #@! TD*
G04 #@! TO.N,GND*
G04 #@! TO.C,REF\002A\002A*
X150880000Y-83160000D03*
G04 #@! TD*
G04 #@! TO.N,GND*
G04 #@! TO.C,REF\002A\002A*
X150880000Y-89990000D03*
G04 #@! TD*
G04 #@! TO.N,GND*
G04 #@! TO.C,REF\002A\002A*
X150880000Y-85160000D03*
G04 #@! TD*
D13*
G04 #@! TO.N,GND*
G04 #@! TO.C,REF\002A\002A*
X150880000Y-87600000D03*
G04 #@! TD*
D10*
G04 #@! TO.N,GND*
G04 #@! TO.C,REF\002A\002A*
X149606000Y-75946000D03*
G04 #@! TD*
G04 #@! TO.N,GND*
G04 #@! TO.C,REF\002A\002A*
X170180000Y-66294000D03*
G04 #@! TD*
G04 #@! TO.N,GND*
G04 #@! TO.C,REF\002A\002A*
X158496000Y-72898000D03*
G04 #@! TD*
G04 #@! TO.N,GND*
G04 #@! TO.C,REF\002A\002A*
X158100000Y-74850000D03*
G04 #@! TD*
G04 #@! TO.N,GND*
G04 #@! TO.C,REF\002A\002A*
X166950000Y-73500000D03*
G04 #@! TD*
G04 #@! TO.N,GND*
G04 #@! TO.C,REF\002A\002A*
X159900000Y-74650000D03*
G04 #@! TD*
G04 #@! TO.N,GND*
G04 #@! TO.C,REF\002A\002A*
X161290000Y-73406000D03*
G04 #@! TD*
G04 #@! TO.N,GND*
G04 #@! TO.C,REF\002A\002A*
X164800000Y-73350000D03*
G04 #@! TD*
G04 #@! TO.N,GND*
G04 #@! TO.C,REF\002A\002A*
X168910000Y-73914000D03*
G04 #@! TD*
G04 #@! TO.N,GND*
G04 #@! TO.C,REF\002A\002A*
X169926000Y-71882000D03*
G04 #@! TD*
G04 #@! TO.N,GND*
G04 #@! TO.C,REF\002A\002A*
X166950000Y-71882000D03*
G04 #@! TD*
G04 #@! TO.N,GND*
G04 #@! TO.C,REF\002A\002A*
X162814000Y-71882000D03*
G04 #@! TD*
G04 #@! TO.N,GND*
G04 #@! TO.C,REF\002A\002A*
X160020000Y-71120000D03*
G04 #@! TD*
G04 #@! TO.N,GND*
G04 #@! TO.C,REF\002A\002A*
X157290000Y-70910000D03*
G04 #@! TD*
G04 #@! TO.N,GND*
G04 #@! TO.C,REF\002A\002A*
X147750000Y-69750000D03*
G04 #@! TD*
G04 #@! TO.N,GND*
G04 #@! TO.C,REF\002A\002A*
X143900000Y-64210000D03*
G04 #@! TD*
G04 #@! TO.N,GND*
G04 #@! TO.C,REF\002A\002A*
X169418000Y-61214000D03*
G04 #@! TD*
G04 #@! TO.N,GND*
G04 #@! TO.C,REF\002A\002A*
X165608000Y-61214000D03*
G04 #@! TD*
G04 #@! TO.N,GND*
G04 #@! TO.C,REF\002A\002A*
X167640000Y-59436000D03*
G04 #@! TD*
G04 #@! TO.N,GND*
G04 #@! TO.C,REF\002A\002A*
X169418000Y-58166000D03*
G04 #@! TD*
G04 #@! TO.N,GND*
G04 #@! TO.C,REF\002A\002A*
X169418000Y-55626000D03*
G04 #@! TD*
G04 #@! TO.N,GND*
G04 #@! TO.C,REF\002A\002A*
X166370000Y-56896000D03*
G04 #@! TD*
G04 #@! TO.N,GND*
G04 #@! TO.C,REF\002A\002A*
X164084000Y-56388000D03*
G04 #@! TD*
G04 #@! TO.N,GND*
G04 #@! TO.C,REF\002A\002A*
X164338000Y-58674000D03*
G04 #@! TD*
G04 #@! TO.N,GND*
G04 #@! TO.C,REF\002A\002A*
X163068000Y-60452000D03*
G04 #@! TD*
G04 #@! TO.N,GND*
G04 #@! TO.C,REF\002A\002A*
X160528000Y-61214000D03*
G04 #@! TD*
G04 #@! TO.N,GND*
G04 #@! TO.C,REF\002A\002A*
X157950000Y-62950000D03*
G04 #@! TD*
D14*
G04 #@! TO.P,P1,6*
G04 #@! TO.N,GND*
X77500000Y-102575000D03*
X77500000Y-107425000D03*
D15*
X74420000Y-100900000D03*
X74420000Y-109100000D03*
G04 #@! TD*
D16*
G04 #@! TO.P,MH4,1*
G04 #@! TO.N,N/C*
X75000000Y-39000000D03*
G04 #@! TD*
G04 #@! TO.P,MH3,1*
G04 #@! TO.N,N/C*
X167000000Y-39000000D03*
G04 #@! TD*
G04 #@! TO.P,MH2,1*
G04 #@! TO.N,N/C*
X167000000Y-116000000D03*
G04 #@! TD*
G04 #@! TO.P,MH1,1*
G04 #@! TO.N,N/C*
X75000000Y-116000000D03*
G04 #@! TD*
D17*
G04 #@! TO.P,P7,15*
G04 #@! TO.N,/AI7688H/JTCLK_GPIO_40*
X153121000Y-73645000D03*
G04 #@! TO.P,P7,16*
G04 #@! TO.N,/AI7688H/JTDI_GPIO_42*
X153121000Y-71105000D03*
G04 #@! TO.P,P7,14*
G04 #@! TO.N,/AI7688H/PCIE_CK0_P*
X153121000Y-76185000D03*
G04 #@! TO.P,P7,13*
G04 #@! TO.N,/AI7688H/PCIE_CK0_N*
X153121000Y-78725000D03*
G04 #@! TO.P,P7,11*
G04 #@! TO.N,/AI7688H/PCIE_RX0_P*
X153121000Y-83805000D03*
G04 #@! TO.P,P7,12*
G04 #@! TO.N,/AI7688H/PCIE_RX0_N*
X153121000Y-81265000D03*
G04 #@! TO.P,P7,10*
G04 #@! TO.N,/AI7688H/PCIE_TX0_N*
X153121000Y-86345000D03*
G04 #@! TO.P,P7,9*
G04 #@! TO.N,/AI7688H/PCIE_TX0_P*
X153121000Y-88885000D03*
G04 #@! TO.P,P7,7*
G04 #@! TO.N,/AI7688H/WDT_RST_N*
X153121000Y-93965000D03*
G04 #@! TO.P,P7,8*
G04 #@! TO.N,/AI7688H/PORST_N*
X153121000Y-91425000D03*
G04 #@! TO.P,P7,6*
G04 #@! TO.N,/AI7688H/PERST_N*
X153121000Y-96505000D03*
G04 #@! TO.P,P7,5*
G04 #@! TO.N,/AI7688H/REF_CLKO*
X153121000Y-99045000D03*
D18*
G04 #@! TO.P,P7,1*
G04 #@! TO.N,+5V*
X153121000Y-109205000D03*
D17*
G04 #@! TO.P,P7,2*
G04 #@! TO.N,+3V3*
X153121000Y-106665000D03*
G04 #@! TO.P,P7,3*
G04 #@! TO.N,GND*
X153121000Y-104125000D03*
G04 #@! TO.P,P7,4*
G04 #@! TO.N,/AI7688H/WLED_N*
X153121000Y-101585000D03*
G04 #@! TD*
G04 #@! TO.P,P5,11*
G04 #@! TO.N,/AI7688H/MDI_TN_P2*
X115570000Y-116078000D03*
G04 #@! TO.P,P5,12*
G04 #@! TO.N,GND*
X113030000Y-116078000D03*
G04 #@! TO.P,P5,10*
G04 #@! TO.N,/AI7688H/MDI_TP_P2*
X118110000Y-116078000D03*
G04 #@! TO.P,P5,9*
G04 #@! TO.N,/AI7688H/MDI_RN_P2*
X120650000Y-116078000D03*
G04 #@! TO.P,P5,7*
G04 #@! TO.N,/AI7688H/MDI_RN_P1*
X125730000Y-116078000D03*
G04 #@! TO.P,P5,8*
G04 #@! TO.N,/AI7688H/MDI_RP_P2*
X123190000Y-116078000D03*
G04 #@! TO.P,P5,6*
G04 #@! TO.N,/AI7688H/MDI_RP_P1*
X128270000Y-116078000D03*
G04 #@! TO.P,P5,5*
G04 #@! TO.N,/AI7688H/MDI_TN_P1*
X130810000Y-116078000D03*
D18*
G04 #@! TO.P,P5,1*
G04 #@! TO.N,+5V*
X140970000Y-116078000D03*
D17*
G04 #@! TO.P,P5,2*
G04 #@! TO.N,+3V3*
X138430000Y-116078000D03*
G04 #@! TO.P,P5,3*
G04 #@! TO.N,GND*
X135890000Y-116078000D03*
G04 #@! TO.P,P5,4*
G04 #@! TO.N,/AI7688H/MDI_TP_P1*
X133350000Y-116078000D03*
G04 #@! TD*
G04 #@! TO.P,P4,14*
G04 #@! TO.N,/AI7688H/JTMS_GPIO_41*
X145810000Y-55050000D03*
G04 #@! TO.P,P4,13*
G04 #@! TO.N,/AI7688H/JTDO_EPHY_LED0_N*
X143270000Y-55050000D03*
G04 #@! TO.P,P4,11*
G04 #@! TO.N,/AI7688H/UART_7688_TXD1*
X138190000Y-55050000D03*
G04 #@! TO.P,P4,12*
G04 #@! TO.N,/AI7688H/JRST_GPIO_39*
X140730000Y-55050000D03*
G04 #@! TO.P,P4,10*
G04 #@! TO.N,/AI7688H/UART_7688_RXD1*
X135650000Y-55050000D03*
G04 #@! TO.P,P4,9*
G04 #@! TO.N,/AI7688H/I2S_SDI*
X133110000Y-55050000D03*
G04 #@! TO.P,P4,7*
G04 #@! TO.N,/AI7688H/I2S_WS*
X128030000Y-55050000D03*
G04 #@! TO.P,P4,8*
G04 #@! TO.N,/AI7688H/I2S_SDO*
X130570000Y-55050000D03*
G04 #@! TO.P,P4,6*
G04 #@! TO.N,/AI7688H/I2S_SCLK*
X125490000Y-55050000D03*
G04 #@! TO.P,P4,5*
G04 #@! TO.N,/AI7688H/I2C_SCLK*
X122950000Y-55050000D03*
D19*
G04 #@! TO.P,P4,1*
G04 #@! TO.N,+5V*
X112790000Y-55050000D03*
D20*
G04 #@! TO.P,P4,2*
G04 #@! TO.N,+3V3*
X115330000Y-55050000D03*
D17*
G04 #@! TO.P,P4,3*
G04 #@! TO.N,GND*
X117870000Y-55050000D03*
G04 #@! TO.P,P4,4*
G04 #@! TO.N,/AI7688H/I2C_SD*
X120410000Y-55050000D03*
G04 #@! TD*
G04 #@! TO.P,P8,10*
G04 #@! TO.N,GND*
X150377000Y-49358000D03*
G04 #@! TO.P,P8,9*
G04 #@! TO.N,+3V3*
X150377000Y-46818000D03*
G04 #@! TO.P,P8,7*
G04 #@! TO.N,/AI7688H/JRST_GPIO_39*
X152917000Y-46818000D03*
G04 #@! TO.P,P8,8*
G04 #@! TO.N,+3V3*
X152917000Y-49358000D03*
G04 #@! TO.P,P8,6*
G04 #@! TO.N,/AI7688H/JTDI_GPIO_42*
X155457000Y-49358000D03*
G04 #@! TO.P,P8,5*
G04 #@! TO.N,/AI7688H/EPHY_LED0_N*
X155457000Y-46818000D03*
D18*
G04 #@! TO.P,P8,1*
G04 #@! TO.N,/AI7688H/EJTAG_DINT*
X160537000Y-46818000D03*
D17*
G04 #@! TO.P,P8,2*
G04 #@! TO.N,/AI7688H/EJTAG_PORST_N*
X160537000Y-49358000D03*
G04 #@! TO.P,P8,3*
G04 #@! TO.N,/AI7688H/JTCLK_GPIO_40*
X157997000Y-46818000D03*
G04 #@! TO.P,P8,4*
G04 #@! TO.N,/AI7688H/JTMS_GPIO_41*
X157997000Y-49358000D03*
G04 #@! TD*
D21*
G04 #@! TO.P,P2,5*
G04 #@! TO.N,GND*
X82000000Y-53230000D03*
X82000000Y-65370000D03*
D15*
G04 #@! TO.P,P2,1*
G04 #@! TO.N,+5V*
X84710000Y-55800000D03*
G04 #@! TO.P,P2,2*
G04 #@! TO.N,/AI7688H/USB_D_N*
X84710000Y-58300000D03*
G04 #@! TO.P,P2,3*
G04 #@! TO.N,/AI7688H/USB_D_P*
X84710000Y-60300000D03*
G04 #@! TO.P,P2,4*
G04 #@! TO.N,GND*
X84710000Y-62800000D03*
G04 #@! TD*
D22*
G04 #@! TO.P,P9,1*
G04 #@! TO.N,+5V*
X84500000Y-93250000D03*
G04 #@! TO.P,P9,2*
G04 #@! TO.N,GND*
X78000000Y-93250000D03*
D23*
G04 #@! TO.P,P9,3*
X81200000Y-97700000D03*
G04 #@! TD*
D17*
G04 #@! TO.P,P6,1*
G04 #@! TO.N,GND*
X78305923Y-46194077D03*
D24*
G04 #@! TD*
G04 #@! TO.N,GND*
G04 #@! TO.C,P6*
G36*
X78305923Y-47451313D02*
X77048687Y-46194077D01*
X78305923Y-44936841D01*
X79563159Y-46194077D01*
X78305923Y-47451313D01*
X78305923Y-47451313D01*
G37*
D17*
G04 #@! TO.P,P6,2*
G04 #@! TO.N,/AI7688H/UART_7688_TXD0*
X80101974Y-44398026D03*
D20*
G04 #@! TO.P,P6,3*
G04 #@! TO.N,/AI7688H/UART_7688_RXD0*
X81898026Y-42601974D03*
G04 #@! TO.P,P6,4*
G04 #@! TO.N,/AI7688H/GPIO_0*
X83694077Y-40805923D03*
G04 #@! TD*
D10*
G04 #@! TO.N,GND*
G04 #@! TO.C,REF\002A\002A*
X154710000Y-62950000D03*
G04 #@! TD*
D25*
G04 #@! TO.P,J1,1*
G04 #@! TO.N,Net-(C20-Pad2)*
X165354000Y-66294000D03*
G04 #@! TO.P,J1,2*
G04 #@! TO.N,GND*
X162814000Y-68834000D03*
G04 #@! TO.P,J1,3*
X167894000Y-68834000D03*
G04 #@! TO.P,J1,4*
X167894000Y-63754000D03*
G04 #@! TO.P,J1,5*
X162814000Y-63754000D03*
G04 #@! TD*
D26*
G04 #@! TO.P,P3,1*
G04 #@! TO.N,/AI7688H/MDI_P0_R_P*
X105470000Y-51898000D03*
G04 #@! TO.P,P3,2*
G04 #@! TO.N,/AI7688H/MDI_P0_R_N*
X104200000Y-54438000D03*
G04 #@! TO.P,P3,3*
G04 #@! TO.N,Net-(C12-Pad2)*
X102930000Y-51898000D03*
G04 #@! TO.P,P3,4*
G04 #@! TO.N,GND*
X101660000Y-54438000D03*
G04 #@! TO.P,P3,5*
X100390000Y-51898000D03*
G04 #@! TO.P,P3,6*
G04 #@! TO.N,Net-(C13-Pad2)*
X99120000Y-54438000D03*
G04 #@! TO.P,P3,7*
G04 #@! TO.N,/AI7688H/MDI_P0_T_P*
X97850000Y-51898000D03*
G04 #@! TO.P,P3,8*
G04 #@! TO.N,/AI7688H/MDI_P0_T_N*
X96580000Y-54438000D03*
D27*
G04 #@! TO.P,P3,13*
G04 #@! TO.N,GND*
X93275000Y-48198000D03*
G04 #@! TO.P,P3,14*
X108765000Y-48198000D03*
D28*
G04 #@! TO.P,P3,H1*
G04 #@! TO.N,N/C*
X95335000Y-45548000D03*
G04 #@! TO.P,P3,H2*
X106765000Y-45548000D03*
D12*
G04 #@! TO.P,P3,9*
G04 #@! TO.N,Net-(P3-Pad9)*
X107675000Y-40648000D03*
G04 #@! TO.P,P3,10*
G04 #@! TO.N,/AI7688H/EPHY_LED0_N*
X105135000Y-40648000D03*
G04 #@! TO.P,P3,11*
X96965000Y-40648000D03*
G04 #@! TO.P,P3,12*
G04 #@! TO.N,Net-(P3-Pad12)*
X94425000Y-40648000D03*
G04 #@! TD*
G04 #@! TO.P,REF\002A\002A,1*
G04 #@! TO.N,GND*
X131210000Y-82550000D03*
G04 #@! TD*
D29*
G04 #@! TO.P,MicroSD,14*
G04 #@! TO.N,N/C*
X75748800Y-81148000D03*
G04 #@! TO.P,MicroSD,15*
X75748800Y-73147000D03*
G04 #@! TD*
D18*
G04 #@! TO.P,P10,1*
G04 #@! TO.N,+3V3*
X100290000Y-116078000D03*
D17*
G04 #@! TO.P,P10,2*
G04 #@! TO.N,/AI7688H/MDI_TN_P2*
X102830000Y-116078000D03*
G04 #@! TO.P,P10,3*
G04 #@! TO.N,/AI7688H/MDI_TP_P2*
X105370000Y-116078000D03*
G04 #@! TO.P,P10,4*
G04 #@! TO.N,GND*
X107910000Y-116078000D03*
G04 #@! TD*
D30*
G04 #@! TO.N,GND*
X141140000Y-96080000D03*
X127037500Y-69600000D03*
X136750000Y-69600000D03*
X131200000Y-69600000D03*
X131175000Y-87000000D03*
D13*
X141400000Y-67700000D03*
D11*
X152146000Y-68834000D03*
D13*
X141350000Y-70100000D03*
D11*
X147100000Y-64100000D03*
X158750000Y-68834000D03*
X150139500Y-64135000D03*
X156218500Y-64135000D03*
X159258000Y-64135000D03*
X153179000Y-64135000D03*
D30*
X142700000Y-101690000D03*
X142650000Y-103998000D03*
X136400000Y-106600000D03*
X77240000Y-98970000D03*
X72660000Y-98940000D03*
X84820000Y-87000000D03*
D13*
X141410000Y-68880000D03*
D11*
X145350000Y-70600000D03*
D30*
X120990000Y-103617000D03*
X120750000Y-64300000D03*
D13*
X155026000Y-69835000D03*
D11*
X149438000Y-69962000D03*
D30*
X168107000Y-79995000D03*
X168107000Y-88885000D03*
X168080000Y-106490000D03*
X168070000Y-97700000D03*
X156670000Y-98800000D03*
X165574999Y-99900000D03*
D13*
X117210000Y-71140000D03*
D11*
X149800000Y-55550000D03*
X92400000Y-74498331D03*
X92450000Y-78500000D03*
X107800000Y-92850000D03*
X107800000Y-93750000D03*
X97000000Y-94600000D03*
X101450000Y-93500000D03*
X150110000Y-79180000D03*
X150150000Y-81030000D03*
X88570000Y-54020000D03*
X95260000Y-69810000D03*
X94599512Y-69140488D03*
X97750000Y-68350000D03*
X90190000Y-60790000D03*
X109500000Y-62150000D03*
X105480000Y-62280000D03*
X102960000Y-62260000D03*
X100500000Y-62300000D03*
X98200000Y-62200000D03*
X93820000Y-57030000D03*
X95400000Y-61100000D03*
X113750000Y-40200000D03*
X112920000Y-40200000D03*
X83210000Y-102830000D03*
X84860000Y-108620000D03*
X89190000Y-105500000D03*
D30*
X131250000Y-75800000D03*
X136800000Y-75800000D03*
X127037500Y-75800000D03*
X135312500Y-82500000D03*
X127037500Y-82500000D03*
X135312500Y-87000000D03*
X127037500Y-87000000D03*
X131200000Y-95550000D03*
X136750000Y-95550000D03*
X127037500Y-95550000D03*
X139450000Y-87000000D03*
X139450000Y-82500000D03*
X122900000Y-82500000D03*
X122900000Y-87000000D03*
X122900000Y-95550000D03*
X122900000Y-75800000D03*
X122900000Y-69600000D03*
X122900000Y-91400000D03*
X139400000Y-91400000D03*
X131200000Y-91400000D03*
G04 #@! TO.N,+5V*
X91690000Y-100980000D03*
X87220000Y-92450000D03*
D11*
X128025000Y-42950000D03*
X139160000Y-42970000D03*
X140100000Y-42950000D03*
X127250000Y-42950000D03*
D30*
X87220000Y-93356666D03*
X87220000Y-95169998D03*
X87220000Y-94263332D03*
X90820000Y-100110000D03*
G04 #@! TO.N,+3V3*
X158210000Y-80210000D03*
X158210000Y-89080000D03*
D11*
X90200000Y-80271662D03*
X90235500Y-82234439D03*
X90235500Y-84312216D03*
D10*
X90250000Y-86390000D03*
D11*
X90235500Y-72535554D03*
X90235500Y-70457777D03*
X90235500Y-68380000D03*
X112700000Y-99150000D03*
X147200000Y-59500000D03*
X161422000Y-55426000D03*
X157569664Y-55469000D03*
X153717332Y-55469000D03*
X147890000Y-79040000D03*
X147890000Y-80000000D03*
X147890000Y-80980000D03*
X111800000Y-99150000D03*
X113750000Y-99150000D03*
X114800000Y-99150000D03*
X148050000Y-59550000D03*
X147749999Y-58950001D03*
X118150000Y-47000000D03*
X118190000Y-47760000D03*
X90200000Y-78400000D03*
X88690000Y-112540000D03*
X88640000Y-111530000D03*
X147890000Y-106665000D03*
X148910000Y-106665000D03*
D30*
X104160000Y-104760000D03*
X104180000Y-105880000D03*
X104160000Y-103570000D03*
D11*
X111000000Y-99150000D03*
X155400000Y-55469000D03*
G04 #@! TO.N,/AI7688H/PORST_N*
X146860000Y-74910000D03*
X158250000Y-60800000D03*
G04 #@! TO.N,/AI7688H/MDI_TP_P2*
X113720000Y-110480000D03*
G04 #@! TO.N,/AI7688H/JTCLK_GPIO_40*
X156296000Y-61750000D03*
X157500000Y-53200000D03*
X145580000Y-73850000D03*
G04 #@! TO.N,/AI7688H/EPHY_LED0_N*
X152770000Y-53269000D03*
X116810000Y-53250000D03*
G04 #@! TO.N,/AI7688H/JTDI_GPIO_42*
X150780000Y-62700000D03*
X145000000Y-72300000D03*
G04 #@! TO.N,/AI7688H/JRST_GPIO_39*
X149865000Y-51980000D03*
X138650000Y-52050000D03*
G04 #@! TO.N,/AI7688H/JTDO_EPHY_LED0_N*
X151840000Y-56410000D03*
G04 #@! TO.N,/AI7688H/EJTAG_PORST_N*
X159500000Y-52000000D03*
D30*
G04 #@! TO.N,+5V_USBOTG*
X87500000Y-103200000D03*
D11*
X91150000Y-115320000D03*
D30*
X87000000Y-102220000D03*
D11*
X91130000Y-114610000D03*
G04 #@! TO.N,/AI7688H/JTMS_GPIO_41*
X145880000Y-50880000D03*
G04 #@! TO.N,/AI7688H/D+*
X88410000Y-107000000D03*
X83310000Y-106690000D03*
G04 #@! TO.N,/AI7688H/USB_D_N*
X88230000Y-58150000D03*
X90390000Y-64700000D03*
G04 #@! TD*
D31*
G04 #@! TO.N,GND*
X86096000Y-62072000D02*
X85346000Y-62072000D01*
D32*
X100400000Y-62200000D02*
X100500000Y-62300000D01*
X98200000Y-62200000D02*
X100400000Y-62200000D01*
X100500000Y-62300000D02*
X103000000Y-62300000D01*
X103000000Y-62300000D02*
X105500000Y-62300000D01*
X109350000Y-62300000D02*
X109500000Y-62150000D01*
X105500000Y-62300000D02*
X109350000Y-62300000D01*
D33*
X143300000Y-47400000D02*
X145750000Y-47400000D01*
X147708000Y-49358000D02*
X145750000Y-47400000D01*
X150377000Y-49358000D02*
X147708000Y-49358000D01*
D34*
X119153000Y-57660000D02*
X121566000Y-57660000D01*
X121566000Y-57660000D02*
X124106000Y-57660000D01*
X124106000Y-57660000D02*
X126519000Y-57660000D01*
X126519000Y-57660000D02*
X129186000Y-57660000D01*
X129186000Y-57660000D02*
X131900000Y-57660000D01*
X131900000Y-57660000D02*
X134266000Y-57660000D01*
X134266000Y-57660000D02*
X136806000Y-57660000D01*
X136806000Y-57660000D02*
X139219000Y-57660000D01*
X142040000Y-57660000D02*
X142050000Y-57650000D01*
X139219000Y-57660000D02*
X142040000Y-57660000D01*
X149438000Y-71206000D02*
X150622000Y-72390000D01*
X149438000Y-69962000D02*
X149438000Y-71206000D01*
X150622000Y-74930000D02*
X149606000Y-75946000D01*
X150622000Y-72390000D02*
X150622000Y-74930000D01*
D35*
X150110000Y-76450000D02*
X149606000Y-75946000D01*
X150110000Y-79180000D02*
X150110000Y-76450000D01*
D31*
X150880000Y-83160000D02*
X150880000Y-85160000D01*
X150880000Y-85160000D02*
X150880000Y-87600000D01*
X150880000Y-87600000D02*
X150880000Y-89990000D01*
X150880000Y-89990000D02*
X150880000Y-92630000D01*
X150880000Y-93266396D02*
X150880000Y-95210000D01*
X150880000Y-92630000D02*
X150880000Y-93266396D01*
X150880000Y-95210000D02*
X150880000Y-97790000D01*
X150880000Y-97790000D02*
X150880000Y-100330000D01*
X150880000Y-100966396D02*
X150880000Y-100330000D01*
X150880000Y-103141235D02*
X150880000Y-100966396D01*
X151863765Y-104125000D02*
X150880000Y-103141235D01*
X153121000Y-104125000D02*
X151863765Y-104125000D01*
D36*
X150880000Y-81760000D02*
X150150000Y-81030000D01*
X150880000Y-83160000D02*
X150880000Y-81760000D01*
D31*
X104140000Y-56896000D02*
X109696000Y-56896000D01*
X105500000Y-64860000D02*
X106934000Y-66294000D01*
X105500000Y-62300000D02*
X105500000Y-64860000D01*
D37*
X107800000Y-93750000D02*
X107800000Y-92850000D01*
X107550000Y-93500000D02*
X107800000Y-93750000D01*
X101450000Y-93500000D02*
X107550000Y-93500000D01*
D31*
X150110000Y-79180000D02*
X150110000Y-80990000D01*
X150110000Y-80990000D02*
X150150000Y-81030000D01*
D35*
X110064999Y-46898001D02*
X110064999Y-42635001D01*
X108765000Y-48198000D02*
X110064999Y-46898001D01*
X112500000Y-40200000D02*
X110064999Y-42635001D01*
D31*
X99187000Y-56896000D02*
X101670000Y-56896000D01*
X101670000Y-56896000D02*
X104140000Y-56896000D01*
D35*
X87780000Y-53230000D02*
X88570000Y-54020000D01*
X82000000Y-53230000D02*
X87780000Y-53230000D01*
D34*
X95260000Y-69810000D02*
X95260000Y-69800976D01*
X95260000Y-69800976D02*
X94599512Y-69140488D01*
D35*
X94250000Y-68790976D02*
X94599512Y-69140488D01*
X94230000Y-66380000D02*
X94250000Y-66400000D01*
X88580000Y-66380000D02*
X94230000Y-66380000D01*
X94250000Y-64850000D02*
X94250000Y-66400000D01*
X94250000Y-66400000D02*
X94250000Y-68790976D01*
X113750000Y-40200000D02*
X112920000Y-40200000D01*
X112920000Y-40200000D02*
X112500000Y-40200000D01*
D37*
X120790000Y-47420000D02*
X122830000Y-47420000D01*
X122830000Y-47420000D02*
X124910000Y-47420000D01*
X124910000Y-47420000D02*
X131920000Y-47420000D01*
X131920000Y-47420000D02*
X134715000Y-47420000D01*
X137500000Y-47420000D02*
X137510000Y-47410000D01*
X134715000Y-47420000D02*
X137500000Y-47420000D01*
D38*
X143420000Y-47410000D02*
X143440000Y-47390000D01*
X137510000Y-47410000D02*
X143420000Y-47410000D01*
D33*
X108765000Y-56015000D02*
X109650000Y-56900000D01*
X108765000Y-48198000D02*
X108765000Y-56015000D01*
X104144000Y-56900000D02*
X104140000Y-56896000D01*
X109650000Y-56900000D02*
X104144000Y-56900000D01*
X104140000Y-56896000D02*
X99187000Y-56896000D01*
X101670000Y-55579370D02*
X101670000Y-56896000D01*
X101660000Y-55569370D02*
X101670000Y-55579370D01*
X101660000Y-54438000D02*
X101660000Y-55569370D01*
X101660000Y-54438000D02*
X101660000Y-53710000D01*
X101660000Y-53168000D02*
X100390000Y-51898000D01*
X101660000Y-54438000D02*
X101660000Y-53168000D01*
D31*
X107061000Y-66167000D02*
X106934000Y-66294000D01*
X113665000Y-66167000D02*
X107061000Y-66167000D01*
D33*
X96900000Y-62200000D02*
X98200000Y-62200000D01*
X94250000Y-64850000D02*
X96900000Y-62200000D01*
X119410000Y-113426000D02*
X121950000Y-113426000D01*
X121950000Y-113426000D02*
X124490000Y-113426000D01*
X124490000Y-113426000D02*
X127030000Y-113426000D01*
X127030000Y-113426000D02*
X129570000Y-113426000D01*
X129570000Y-113426000D02*
X132110000Y-113426000D01*
X132110000Y-113426000D02*
X135164000Y-113426000D01*
X135940000Y-112650000D02*
X135940000Y-111480000D01*
X135164000Y-113426000D02*
X135940000Y-112650000D01*
D39*
X83210000Y-102830000D02*
X83210000Y-99710000D01*
X81200000Y-97700000D02*
X82360000Y-97700000D01*
X83210000Y-98550000D02*
X83210000Y-99710000D01*
X82360000Y-97700000D02*
X83210000Y-98550000D01*
X74990000Y-98940000D02*
X75060000Y-98870000D01*
X72660000Y-98940000D02*
X74990000Y-98940000D01*
X77140000Y-98870000D02*
X77240000Y-98970000D01*
X75060000Y-98870000D02*
X77140000Y-98870000D01*
X79930000Y-98970000D02*
X81200000Y-97700000D01*
X77240000Y-98970000D02*
X79930000Y-98970000D01*
X74900000Y-108620000D02*
X74420000Y-109100000D01*
X81594000Y-102830000D02*
X80920000Y-103504000D01*
X83210000Y-102830000D02*
X81594000Y-102830000D01*
X80920000Y-108500000D02*
X81040000Y-108620000D01*
X80920000Y-103504000D02*
X80920000Y-108500000D01*
X79070000Y-108650000D02*
X79040000Y-108620000D01*
X79070000Y-110910000D02*
X79070000Y-108650000D01*
X81040000Y-108620000D02*
X79040000Y-108620000D01*
X79040000Y-108620000D02*
X74900000Y-108620000D01*
X82360000Y-108680000D02*
X82300000Y-108620000D01*
X82360000Y-112150000D02*
X82360000Y-108680000D01*
X84860000Y-108620000D02*
X82300000Y-108620000D01*
X82300000Y-108620000D02*
X81040000Y-108620000D01*
X82360000Y-112150000D02*
X82360000Y-114910000D01*
X82360000Y-114910000D02*
X82360000Y-117780000D01*
D34*
X116870000Y-113426000D02*
X113834000Y-113426000D01*
X113030000Y-114230000D02*
X113030000Y-116078000D01*
X113834000Y-113426000D02*
X113030000Y-114230000D01*
X121371000Y-103998000D02*
X120990000Y-103617000D01*
D39*
X107800000Y-92072183D02*
X107790000Y-92062183D01*
X107800000Y-92850000D02*
X107800000Y-92072183D01*
X107790000Y-87580000D02*
X107120000Y-86910000D01*
X107790000Y-92062183D02*
X107790000Y-87580000D01*
X107120000Y-84730000D02*
X107120000Y-86910000D01*
X100990000Y-78600000D02*
X107120000Y-84730000D01*
X82360000Y-117780000D02*
X82360000Y-118540000D01*
X110940000Y-107992500D02*
X111452500Y-107480000D01*
X110940000Y-112430000D02*
X110940000Y-107992500D01*
X106705235Y-118540000D02*
X105870000Y-118540000D01*
X107910000Y-117335235D02*
X106705235Y-118540000D01*
X107910000Y-116078000D02*
X107910000Y-117335235D01*
X96670000Y-118540000D02*
X105870000Y-118540000D01*
D34*
X112170000Y-36900000D02*
X117793333Y-36900000D01*
X118500439Y-36900000D02*
X123416666Y-36900000D01*
X117793333Y-36900000D02*
X118500439Y-36900000D01*
X123416666Y-36900000D02*
X129039999Y-36900000D01*
X129039999Y-36900000D02*
X134663332Y-36900000D01*
X134663332Y-36900000D02*
X140286665Y-36900000D01*
X140286665Y-36900000D02*
X145910000Y-36900000D01*
X145910000Y-36900000D02*
X145910000Y-40396666D01*
X145910000Y-40396666D02*
X145910000Y-43893332D01*
X145910000Y-43893332D02*
X145910000Y-47390000D01*
D36*
X92450000Y-78500000D02*
X92450000Y-76300000D01*
D33*
X92400000Y-76250000D02*
X92400000Y-74498331D01*
X92400000Y-78450000D02*
X92450000Y-78500000D01*
X92400000Y-74498331D02*
X92400000Y-78450000D01*
X92400000Y-71340000D02*
X94599512Y-69140488D01*
X92400000Y-74498331D02*
X92400000Y-71340000D01*
D31*
X143100000Y-112600000D02*
X146050000Y-112600000D01*
X146050000Y-112600000D02*
X149500000Y-112600000D01*
X155350000Y-112600000D02*
X155650000Y-112900000D01*
X149500000Y-112600000D02*
X155350000Y-112600000D01*
X156357106Y-112900000D02*
X158700000Y-112900000D01*
X155650000Y-112900000D02*
X156357106Y-112900000D01*
X158700000Y-112900000D02*
X161850000Y-112900000D01*
X143100000Y-109300000D02*
X146050000Y-109300000D01*
X143100000Y-111892894D02*
X143100000Y-109300000D01*
X143100000Y-112600000D02*
X143100000Y-111892894D01*
X146050000Y-107398000D02*
X142650000Y-103998000D01*
X146050000Y-109300000D02*
X146050000Y-107398000D01*
X161650000Y-99900000D02*
X165574999Y-99900000D01*
X165574999Y-99900000D02*
X169500000Y-99900000D01*
D33*
X120990000Y-103617000D02*
X126367000Y-103617000D01*
X129350000Y-106600000D02*
X126367000Y-103617000D01*
X136400000Y-106600000D02*
X129350000Y-106600000D01*
D31*
X105930000Y-109730000D02*
X105600000Y-109400000D01*
X105930000Y-112450000D02*
X105930000Y-109730000D01*
X107520000Y-107480000D02*
X108710000Y-107480000D01*
X105600000Y-109400000D02*
X107520000Y-107480000D01*
X136300000Y-111120000D02*
X135940000Y-111480000D01*
X136300000Y-109000000D02*
X136300000Y-111120000D01*
X142590000Y-101800000D02*
X142700000Y-101690000D01*
X140300000Y-101800000D02*
X142590000Y-101800000D01*
D32*
G04 #@! TO.N,+5V*
X112790000Y-44960000D02*
X112790000Y-55050000D01*
X127250000Y-42950000D02*
X114800000Y-42950000D01*
X114800000Y-42950000D02*
X112790000Y-44960000D01*
X112790000Y-59060000D02*
X112790000Y-55050000D01*
X112050000Y-59800000D02*
X112790000Y-59060000D01*
X93650000Y-59800000D02*
X112050000Y-59800000D01*
X89650000Y-55800000D02*
X93650000Y-59800000D01*
X84710000Y-55800000D02*
X89650000Y-55800000D01*
D37*
X84500000Y-92200000D02*
X84500000Y-93250000D01*
X78300000Y-86000000D02*
X84500000Y-92200000D01*
X78300000Y-59710000D02*
X78300000Y-60000000D01*
X82210000Y-55800000D02*
X78300000Y-59710000D01*
X84710000Y-55800000D02*
X82210000Y-55800000D01*
X78300000Y-60000000D02*
X78300000Y-86000000D01*
D32*
X128025000Y-42950000D02*
X139060000Y-42950000D01*
X139060000Y-42950000D02*
X139070000Y-42960000D01*
D39*
X91217000Y-100480000D02*
X91217000Y-100487000D01*
X91217000Y-100487000D02*
X92290000Y-101560000D01*
X87240000Y-95520000D02*
X87250000Y-95530000D01*
X87240000Y-94720000D02*
X87240000Y-95520000D01*
X87250000Y-93910000D02*
X87250000Y-95530000D01*
X87250000Y-95530000D02*
X87250000Y-96513000D01*
D40*
X91690000Y-100953000D02*
X90690000Y-99953000D01*
X91690000Y-100980000D02*
X91690000Y-100953000D01*
D39*
X87250000Y-96513000D02*
X90690000Y-99953000D01*
X90690000Y-99953000D02*
X91217000Y-100480000D01*
D40*
X127250000Y-42950000D02*
X128025000Y-42950000D01*
X140080000Y-42970000D02*
X140100000Y-42950000D01*
X139160000Y-42970000D02*
X140080000Y-42970000D01*
D37*
X136130000Y-101560000D02*
X140970000Y-106400000D01*
X135700000Y-101560000D02*
X136130000Y-101560000D01*
D39*
X140970000Y-116078000D02*
X140970000Y-106400000D01*
X92290000Y-101560000D02*
X135700000Y-101560000D01*
D35*
G04 #@! TO.N,+3V3*
X157045000Y-106665000D02*
X153121000Y-106665000D01*
X158210000Y-105500000D02*
X157045000Y-106665000D01*
X158210000Y-80210000D02*
X158210000Y-89080000D01*
X158210000Y-89080000D02*
X158210000Y-105500000D01*
D41*
X115330000Y-55050000D02*
X115330000Y-47910000D01*
X115330000Y-47910000D02*
X116240000Y-47000000D01*
D35*
X90200000Y-82198939D02*
X90235500Y-82234439D01*
X90200000Y-80271662D02*
X90200000Y-82198939D01*
X90235500Y-82234439D02*
X90235500Y-84312216D01*
X90235500Y-86375500D02*
X90250000Y-86390000D01*
X90235500Y-84312216D02*
X90235500Y-86375500D01*
X90200000Y-72571054D02*
X90235500Y-72535554D01*
X90235500Y-72535554D02*
X90235500Y-70457777D01*
X90235500Y-70457777D02*
X90235500Y-68380000D01*
D39*
X118420000Y-97680000D02*
X116950000Y-99150000D01*
X118460000Y-79040000D02*
X118420000Y-79000000D01*
X118420000Y-60600000D02*
X118420000Y-79000000D01*
X118420000Y-79000000D02*
X118420000Y-97680000D01*
X147890000Y-79040000D02*
X118460000Y-79040000D01*
D32*
X148050000Y-59550000D02*
X118100000Y-59550000D01*
D39*
X118420000Y-59870000D02*
X118100000Y-59550000D01*
X118420000Y-60600000D02*
X118420000Y-59870000D01*
X118080000Y-59550000D02*
X115330000Y-56800000D01*
X118100000Y-59550000D02*
X118080000Y-59550000D01*
X115330000Y-56800000D02*
X115330000Y-55050000D01*
D32*
X153717332Y-57932668D02*
X152100000Y-59550000D01*
X153717332Y-55469000D02*
X153717332Y-57932668D01*
X148050000Y-59550000D02*
X152100000Y-59550000D01*
X161379000Y-55469000D02*
X161422000Y-55426000D01*
X157569664Y-55469000D02*
X161379000Y-55469000D01*
D35*
X147890000Y-79040000D02*
X147890000Y-80000000D01*
X147890000Y-80000000D02*
X147890000Y-80980000D01*
X112700000Y-99150000D02*
X111800000Y-99150000D01*
D39*
X113750000Y-99150000D02*
X112700000Y-99150000D01*
X116950000Y-99150000D02*
X114900000Y-99150000D01*
X114900000Y-99150000D02*
X113750000Y-99150000D01*
D37*
X147890000Y-80980000D02*
X147890000Y-106590000D01*
X153046000Y-106590000D02*
X153121000Y-106665000D01*
X147890000Y-106590000D02*
X153046000Y-106590000D01*
D35*
X147200000Y-59500000D02*
X148000000Y-59500000D01*
X148000000Y-59500000D02*
X148050000Y-59550000D01*
X148050000Y-59550000D02*
X148050000Y-59250002D01*
X148050000Y-59250002D02*
X147749999Y-58950001D01*
D31*
X117640001Y-47070001D02*
X117570000Y-47000000D01*
X117640001Y-47210001D02*
X117640001Y-47070001D01*
X118190000Y-47760000D02*
X117640001Y-47210001D01*
D41*
X116240000Y-47000000D02*
X117570000Y-47000000D01*
X117570000Y-47000000D02*
X118150000Y-47000000D01*
D35*
X90250000Y-86390000D02*
X90250000Y-94950000D01*
X90250000Y-94950000D02*
X94450000Y-99150000D01*
X90200000Y-78400000D02*
X90200000Y-72571054D01*
X90200000Y-80271662D02*
X90200000Y-78400000D01*
X88640000Y-115710000D02*
X88640000Y-111530000D01*
X89740000Y-116810000D02*
X88640000Y-115710000D01*
X99450000Y-116810000D02*
X89740000Y-116810000D01*
X100182000Y-116078000D02*
X99450000Y-116810000D01*
X100290000Y-116078000D02*
X100182000Y-116078000D01*
X88690000Y-111580000D02*
X88640000Y-111530000D01*
X88690000Y-112540000D02*
X88690000Y-111580000D01*
D39*
X100290000Y-112420000D02*
X100290000Y-116078000D01*
X104150000Y-108560000D02*
X100290000Y-112420000D01*
X104150000Y-106486396D02*
X104150000Y-108560000D01*
X104140000Y-106476396D02*
X104150000Y-106486396D01*
X104140000Y-105840000D02*
X104140000Y-106476396D01*
X104140000Y-105150000D02*
X104150000Y-105140000D01*
X104140000Y-105840000D02*
X104140000Y-105150000D01*
D37*
X111800000Y-99150000D02*
X114800000Y-99150000D01*
D40*
X111800000Y-99150000D02*
X111100000Y-99150000D01*
D35*
X94450000Y-99150000D02*
X111100000Y-99150000D01*
D32*
X155400000Y-55469000D02*
X157569664Y-55469000D01*
X153717332Y-55469000D02*
X155400000Y-55469000D01*
D31*
G04 #@! TO.N,/AI7688H/PORST_N*
X141138000Y-60800000D02*
X158250000Y-60800000D01*
X146860000Y-74910000D02*
X140240000Y-74910000D01*
X140240000Y-74910000D02*
X138938000Y-73608000D01*
X138938000Y-73608000D02*
X138938000Y-73588000D01*
X138938000Y-73588000D02*
X138600000Y-73250000D01*
X138600000Y-73250000D02*
X138600000Y-63338000D01*
X138600000Y-63338000D02*
X141138000Y-60800000D01*
D36*
G04 #@! TO.N,/AI7688H/MDI_TP_P2*
X113720000Y-110480000D02*
X116540000Y-110480000D01*
X118110000Y-112050000D02*
X118110000Y-116078000D01*
X116540000Y-110480000D02*
X118110000Y-112050000D01*
D31*
G04 #@! TO.N,/AI7688H/JTCLK_GPIO_40*
X143482000Y-61750000D02*
X156296000Y-61750000D01*
X141450000Y-61750000D02*
X143482000Y-61750000D01*
X139250000Y-63950000D02*
X141450000Y-61750000D01*
X139250000Y-72500000D02*
X139250000Y-63950000D01*
X140395000Y-73645000D02*
X139250000Y-72500000D01*
X140600000Y-73850000D02*
X140395000Y-73645000D01*
X145580000Y-73850000D02*
X140600000Y-73850000D01*
G04 #@! TO.N,/AI7688H/EPHY_LED0_N*
X152770000Y-53269000D02*
X116829000Y-53269000D01*
X116829000Y-53269000D02*
X116810000Y-53250000D01*
G04 #@! TO.N,/AI7688H/JTDI_GPIO_42*
X145000000Y-72300000D02*
X140600000Y-72300000D01*
X140600000Y-72300000D02*
X139954000Y-71654000D01*
X139954000Y-71654000D02*
X139954000Y-64496000D01*
X141750000Y-62700000D02*
X141570000Y-62880000D01*
X150780000Y-62700000D02*
X141750000Y-62700000D01*
X139954000Y-64496000D02*
X141570000Y-62880000D01*
X141570000Y-62880000D02*
X141712000Y-62738000D01*
G04 #@! TO.N,/AI7688H/JRST_GPIO_39*
X149865000Y-51980000D02*
X138720000Y-51980000D01*
X138720000Y-51980000D02*
X138650000Y-52050000D01*
D36*
G04 #@! TO.N,/AI7688H/JTDO_EPHY_LED0_N*
X143270000Y-55050000D02*
X143270000Y-56770000D01*
D31*
X151030000Y-57220000D02*
X151840000Y-56410000D01*
X143720000Y-57220000D02*
X151030000Y-57220000D01*
D36*
X143270000Y-56770000D02*
X143720000Y-57220000D01*
D39*
G04 #@! TO.N,+5V_USBOTG*
X91150000Y-115320000D02*
X91150000Y-114750000D01*
X91150000Y-114750000D02*
X91130000Y-114730000D01*
D35*
X91130000Y-114730000D02*
X91130000Y-104030000D01*
X87300000Y-103400000D02*
X90500000Y-103400000D01*
X91130000Y-104030000D02*
X90500000Y-103400000D01*
D31*
G04 #@! TO.N,/AI7688H/JTMS_GPIO_41*
X145850000Y-51100000D02*
X157050000Y-51100000D01*
X157512235Y-51100000D02*
X157050000Y-51100000D01*
X157997000Y-50615235D02*
X157512235Y-51100000D01*
X157997000Y-49358000D02*
X157997000Y-50615235D01*
D36*
G04 #@! TO.N,/AI7688H/D+*
X88450000Y-106690000D02*
X88480000Y-106720000D01*
D34*
X88100000Y-106690000D02*
X88410000Y-107000000D01*
X83310000Y-106690000D02*
X88100000Y-106690000D01*
D36*
G04 #@! TO.N,/AI7688H/USB_D_N*
X88230000Y-62540000D02*
X90390000Y-64700000D01*
X88230000Y-58150000D02*
X88230000Y-62540000D01*
G04 #@! TD*
D24*
G04 #@! TO.N,+3V3*
G36*
X148540000Y-81590000D02*
X147185162Y-81590000D01*
X146750000Y-81003477D01*
X146750000Y-78590000D01*
X148540000Y-78590000D01*
X148540000Y-81590000D01*
X148540000Y-81590000D01*
G37*
X148540000Y-81590000D02*
X147185162Y-81590000D01*
X146750000Y-81003477D01*
X146750000Y-78590000D01*
X148540000Y-78590000D01*
X148540000Y-81590000D01*
G36*
X115350000Y-99650000D02*
X111450000Y-99650000D01*
X111450000Y-98650000D01*
X115350000Y-98650000D01*
X115350000Y-99650000D01*
X115350000Y-99650000D01*
G37*
X115350000Y-99650000D02*
X111450000Y-99650000D01*
X111450000Y-98650000D01*
X115350000Y-98650000D01*
X115350000Y-99650000D01*
G36*
X104850000Y-106550000D02*
X103550000Y-106550000D01*
X103550000Y-102850000D01*
X104850000Y-102850000D01*
X104850000Y-106550000D01*
X104850000Y-106550000D01*
G37*
X104850000Y-106550000D02*
X103550000Y-106550000D01*
X103550000Y-102850000D01*
X104850000Y-102850000D01*
X104850000Y-106550000D01*
G36*
X89150000Y-113050000D02*
X88250000Y-113050000D01*
X88250000Y-111050000D01*
X89150000Y-111050000D01*
X89150000Y-113050000D01*
X89150000Y-113050000D01*
G37*
X89150000Y-113050000D02*
X88250000Y-113050000D01*
X88250000Y-111050000D01*
X89150000Y-111050000D01*
X89150000Y-113050000D01*
G36*
X118650000Y-48350000D02*
X117750000Y-48350000D01*
X117750000Y-46550000D01*
X118650000Y-46550000D01*
X118650000Y-48350000D01*
X118650000Y-48350000D01*
G37*
X118650000Y-48350000D02*
X117750000Y-48350000D01*
X117750000Y-46550000D01*
X118650000Y-46550000D01*
X118650000Y-48350000D01*
G36*
X148453184Y-59217556D02*
X148463466Y-59234136D01*
X148479310Y-59245518D01*
X148500000Y-59250000D01*
X148750000Y-59250000D01*
X148750000Y-59850000D01*
X146650000Y-59850000D01*
X146650000Y-59222453D01*
X147519009Y-58450000D01*
X148165350Y-58450000D01*
X148453184Y-59217556D01*
X148453184Y-59217556D01*
G37*
X148453184Y-59217556D02*
X148463466Y-59234136D01*
X148479310Y-59245518D01*
X148500000Y-59250000D01*
X148750000Y-59250000D01*
X148750000Y-59850000D01*
X146650000Y-59850000D01*
X146650000Y-59222453D01*
X147519009Y-58450000D01*
X148165350Y-58450000D01*
X148453184Y-59217556D01*
G04 #@! TO.N,+5V*
G36*
X88400000Y-96149465D02*
X83800000Y-96100529D01*
X83800000Y-91200000D01*
X88400000Y-91200000D01*
X88400000Y-96149465D01*
X88400000Y-96149465D01*
G37*
X88400000Y-96149465D02*
X83800000Y-96100529D01*
X83800000Y-91200000D01*
X88400000Y-91200000D01*
X88400000Y-96149465D01*
D31*
G04 #@! TO.N,GND*
G36*
X163035031Y-36350692D02*
X162323000Y-38069687D01*
X162323000Y-39930313D01*
X163035031Y-41649308D01*
X164350692Y-42964969D01*
X166069687Y-43677000D01*
X167930313Y-43677000D01*
X169649308Y-42964969D01*
X170498000Y-42116277D01*
X170498001Y-112883724D01*
X169649308Y-112035031D01*
X167930313Y-111323000D01*
X166069687Y-111323000D01*
X164350692Y-112035031D01*
X163035031Y-113350692D01*
X162323000Y-115069687D01*
X162323000Y-116930313D01*
X163035031Y-118649308D01*
X163883723Y-119498000D01*
X78116277Y-119498000D01*
X78964969Y-118649308D01*
X79677000Y-116930313D01*
X79677000Y-115069687D01*
X78964969Y-113350692D01*
X77649308Y-112035031D01*
X75930313Y-111323000D01*
X74069687Y-111323000D01*
X72350692Y-112035031D01*
X71502000Y-112883723D01*
X71502000Y-106860364D01*
X76273000Y-106860364D01*
X76273000Y-107139636D01*
X76379873Y-107397651D01*
X76577349Y-107595127D01*
X76835364Y-107702000D01*
X77114636Y-107702000D01*
X77372651Y-107595127D01*
X77570127Y-107397651D01*
X77677000Y-107139636D01*
X77677000Y-106860364D01*
X77570127Y-106602349D01*
X77463441Y-106495663D01*
X82333000Y-106495663D01*
X82333000Y-106884337D01*
X82481739Y-107243426D01*
X82756574Y-107518261D01*
X83115663Y-107667000D01*
X83504337Y-107667000D01*
X83863426Y-107518261D01*
X84064687Y-107317000D01*
X87483808Y-107317000D01*
X87581739Y-107553426D01*
X87856574Y-107828261D01*
X88215663Y-107977000D01*
X88604337Y-107977000D01*
X88963426Y-107828261D01*
X89238261Y-107553426D01*
X89387000Y-107194337D01*
X89387000Y-106805663D01*
X89238261Y-106446574D01*
X88963426Y-106171739D01*
X88604337Y-106023000D01*
X88215663Y-106023000D01*
X88132931Y-106057268D01*
X88100000Y-106050718D01*
X88038254Y-106063000D01*
X84064687Y-106063000D01*
X83863426Y-105861739D01*
X83504337Y-105713000D01*
X83115663Y-105713000D01*
X82756574Y-105861739D01*
X82481739Y-106136574D01*
X82333000Y-106495663D01*
X77463441Y-106495663D01*
X77372651Y-106404873D01*
X77114636Y-106298000D01*
X76835364Y-106298000D01*
X76577349Y-106404873D01*
X76379873Y-106602349D01*
X76273000Y-106860364D01*
X71502000Y-106860364D01*
X71502000Y-102860364D01*
X76273000Y-102860364D01*
X76273000Y-103139636D01*
X76379873Y-103397651D01*
X76577349Y-103595127D01*
X76835364Y-103702000D01*
X77114636Y-103702000D01*
X77372651Y-103595127D01*
X77570127Y-103397651D01*
X77677000Y-103139636D01*
X77677000Y-102860364D01*
X77570127Y-102602349D01*
X77372651Y-102404873D01*
X77114636Y-102298000D01*
X76835364Y-102298000D01*
X76577349Y-102404873D01*
X76379873Y-102602349D01*
X76273000Y-102860364D01*
X71502000Y-102860364D01*
X71502000Y-80963608D01*
X74821800Y-80963608D01*
X74821800Y-81332392D01*
X74962927Y-81673103D01*
X75223697Y-81933873D01*
X75564408Y-82075000D01*
X75933192Y-82075000D01*
X76273903Y-81933873D01*
X76534673Y-81673103D01*
X76675800Y-81332392D01*
X76675800Y-80963608D01*
X76534673Y-80622897D01*
X76273903Y-80362127D01*
X75933192Y-80221000D01*
X75564408Y-80221000D01*
X75223697Y-80362127D01*
X74962927Y-80622897D01*
X74821800Y-80963608D01*
X71502000Y-80963608D01*
X71502000Y-72962608D01*
X74821800Y-72962608D01*
X74821800Y-73331392D01*
X74962927Y-73672103D01*
X75223697Y-73932873D01*
X75564408Y-74074000D01*
X75933192Y-74074000D01*
X76273903Y-73932873D01*
X76534673Y-73672103D01*
X76675800Y-73331392D01*
X76675800Y-72962608D01*
X76534673Y-72621897D01*
X76273903Y-72361127D01*
X75933192Y-72220000D01*
X75564408Y-72220000D01*
X75223697Y-72361127D01*
X74962927Y-72621897D01*
X74821800Y-72962608D01*
X71502000Y-72962608D01*
X71502000Y-59710000D01*
X77354839Y-59710000D01*
X77373000Y-59801300D01*
X77373000Y-59908699D01*
X77373001Y-85908695D01*
X77354839Y-86000000D01*
X77379562Y-86124287D01*
X77426786Y-86361697D01*
X77631671Y-86668330D01*
X77709074Y-86720049D01*
X83318000Y-92328976D01*
X83318001Y-94611413D01*
X83323000Y-94636545D01*
X83323000Y-96150000D01*
X83353787Y-96309200D01*
X83444871Y-96448706D01*
X83582407Y-96542736D01*
X83745458Y-96576976D01*
X86314846Y-96604310D01*
X86369250Y-96877818D01*
X86523741Y-97109030D01*
X86575904Y-97187097D01*
X86653970Y-97239259D01*
X89643000Y-100228289D01*
X89643000Y-100344120D01*
X89822187Y-100776717D01*
X90153283Y-101107813D01*
X90534346Y-101265654D01*
X90692187Y-101646717D01*
X91023283Y-101977813D01*
X91455880Y-102157000D01*
X91564388Y-102157000D01*
X91615903Y-102234097D01*
X91693969Y-102286259D01*
X91925181Y-102440750D01*
X92289999Y-102513317D01*
X92382085Y-102495000D01*
X103202652Y-102495000D01*
X103198065Y-102498065D01*
X103105503Y-102636594D01*
X103073000Y-102800000D01*
X103073000Y-103118600D01*
X102983000Y-103335880D01*
X102983000Y-103804120D01*
X103073000Y-104021400D01*
X103073000Y-104308600D01*
X102983000Y-104525880D01*
X102983000Y-104994120D01*
X103073000Y-105211400D01*
X103073000Y-105476885D01*
X103003000Y-105645880D01*
X103003000Y-106114120D01*
X103073000Y-106283115D01*
X103073000Y-106600000D01*
X103105503Y-106763406D01*
X103198065Y-106901935D01*
X103215000Y-106913251D01*
X103215001Y-108172709D01*
X99693972Y-111693739D01*
X99615903Y-111745903D01*
X99549213Y-111845712D01*
X99409250Y-112055182D01*
X99336683Y-112420000D01*
X99355000Y-112512086D01*
X99355001Y-114762785D01*
X99234393Y-114786775D01*
X99093150Y-114881150D01*
X98998775Y-115022393D01*
X98965635Y-115189000D01*
X98965635Y-116129000D01*
X91722687Y-116129000D01*
X91978261Y-115873426D01*
X92127000Y-115514337D01*
X92127000Y-115125663D01*
X92085000Y-115024266D01*
X92085000Y-114857450D01*
X92107000Y-114804337D01*
X92107000Y-114415663D01*
X91958261Y-114056574D01*
X91811000Y-113909313D01*
X91811000Y-104097065D01*
X91824340Y-104030000D01*
X91811000Y-103962935D01*
X91811000Y-103962931D01*
X91771487Y-103764287D01*
X91620973Y-103539027D01*
X91564114Y-103501035D01*
X91028967Y-102965889D01*
X90990973Y-102909027D01*
X90765713Y-102758513D01*
X90567069Y-102719000D01*
X90567065Y-102719000D01*
X90500000Y-102705660D01*
X90432935Y-102719000D01*
X88574739Y-102719000D01*
X88497813Y-102533283D01*
X88177000Y-102212470D01*
X88177000Y-101985880D01*
X87997813Y-101553283D01*
X87666717Y-101222187D01*
X87234120Y-101043000D01*
X86765880Y-101043000D01*
X86333283Y-101222187D01*
X86002187Y-101553283D01*
X85823000Y-101985880D01*
X85823000Y-102454120D01*
X86002187Y-102886717D01*
X86323000Y-103207530D01*
X86323000Y-103434120D01*
X86502187Y-103866717D01*
X86833283Y-104197813D01*
X87265880Y-104377000D01*
X87734120Y-104377000D01*
X88166717Y-104197813D01*
X88283530Y-104081000D01*
X90217922Y-104081000D01*
X90449001Y-104312080D01*
X90449000Y-113909313D01*
X90301739Y-114056574D01*
X90153000Y-114415663D01*
X90153000Y-114804337D01*
X90215000Y-114954019D01*
X90215000Y-115024266D01*
X90173000Y-115125663D01*
X90173000Y-115514337D01*
X90321739Y-115873426D01*
X90577313Y-116129000D01*
X90022079Y-116129000D01*
X89321000Y-115427922D01*
X89321000Y-113502932D01*
X89363406Y-113494497D01*
X89501935Y-113401935D01*
X89594497Y-113263406D01*
X89627000Y-113100000D01*
X89627000Y-112830906D01*
X89667000Y-112734337D01*
X89667000Y-112345663D01*
X89627000Y-112249094D01*
X89627000Y-111000000D01*
X89594497Y-110836594D01*
X89501935Y-110698065D01*
X89363406Y-110605503D01*
X89200000Y-110573000D01*
X88882621Y-110573000D01*
X88834337Y-110553000D01*
X88445663Y-110553000D01*
X88397379Y-110573000D01*
X88200000Y-110573000D01*
X88036594Y-110605503D01*
X87898065Y-110698065D01*
X87805503Y-110836594D01*
X87773000Y-111000000D01*
X87773000Y-111070099D01*
X87663000Y-111335663D01*
X87663000Y-111724337D01*
X87773000Y-111989901D01*
X87773000Y-112200810D01*
X87713000Y-112345663D01*
X87713000Y-112734337D01*
X87773000Y-112879190D01*
X87773000Y-113100000D01*
X87805503Y-113263406D01*
X87898065Y-113401935D01*
X87959001Y-113442651D01*
X87959000Y-115642935D01*
X87945660Y-115710000D01*
X87959000Y-115777065D01*
X87959000Y-115777068D01*
X87998513Y-115975712D01*
X88149027Y-116200972D01*
X88205886Y-116238965D01*
X89211035Y-117244114D01*
X89249027Y-117300973D01*
X89474287Y-117451487D01*
X89672931Y-117491000D01*
X89672935Y-117491000D01*
X89740000Y-117504340D01*
X89807065Y-117491000D01*
X99382935Y-117491000D01*
X99450000Y-117504340D01*
X99517065Y-117491000D01*
X99517069Y-117491000D01*
X99715713Y-117451487D01*
X99789229Y-117402365D01*
X101179000Y-117402365D01*
X101345607Y-117369225D01*
X101486850Y-117274850D01*
X101581225Y-117133607D01*
X101614365Y-116967000D01*
X101614365Y-116582071D01*
X101714349Y-116823454D01*
X102084546Y-117193651D01*
X102568231Y-117394000D01*
X103091769Y-117394000D01*
X103575454Y-117193651D01*
X103945651Y-116823454D01*
X104100000Y-116450823D01*
X104254349Y-116823454D01*
X104624546Y-117193651D01*
X105108231Y-117394000D01*
X105631769Y-117394000D01*
X106115454Y-117193651D01*
X106485651Y-116823454D01*
X106686000Y-116339769D01*
X106686000Y-115816231D01*
X106485651Y-115332546D01*
X106115454Y-114962349D01*
X105631769Y-114762000D01*
X105108231Y-114762000D01*
X104624546Y-114962349D01*
X104254349Y-115332546D01*
X104100000Y-115705177D01*
X103945651Y-115332546D01*
X103575454Y-114962349D01*
X103091769Y-114762000D01*
X102568231Y-114762000D01*
X102084546Y-114962349D01*
X101714349Y-115332546D01*
X101614365Y-115573929D01*
X101614365Y-115189000D01*
X101581225Y-115022393D01*
X101486850Y-114881150D01*
X101345607Y-114786775D01*
X101225000Y-114762785D01*
X101225000Y-112807289D01*
X103746626Y-110285663D01*
X112743000Y-110285663D01*
X112743000Y-110674337D01*
X112891739Y-111033426D01*
X113166574Y-111308261D01*
X113525663Y-111457000D01*
X113914337Y-111457000D01*
X114273426Y-111308261D01*
X114524687Y-111057000D01*
X116301000Y-111057000D01*
X117533000Y-112289001D01*
X117533001Y-114892573D01*
X117364546Y-114962349D01*
X116994349Y-115332546D01*
X116840000Y-115705177D01*
X116685651Y-115332546D01*
X116315454Y-114962349D01*
X115831769Y-114762000D01*
X115308231Y-114762000D01*
X114824546Y-114962349D01*
X114454349Y-115332546D01*
X114254000Y-115816231D01*
X114254000Y-116339769D01*
X114454349Y-116823454D01*
X114824546Y-117193651D01*
X115308231Y-117394000D01*
X115831769Y-117394000D01*
X116315454Y-117193651D01*
X116685651Y-116823454D01*
X116840000Y-116450823D01*
X116994349Y-116823454D01*
X117364546Y-117193651D01*
X117848231Y-117394000D01*
X118371769Y-117394000D01*
X118855454Y-117193651D01*
X119225651Y-116823454D01*
X119380000Y-116450823D01*
X119534349Y-116823454D01*
X119904546Y-117193651D01*
X120388231Y-117394000D01*
X120911769Y-117394000D01*
X121395454Y-117193651D01*
X121765651Y-116823454D01*
X121920000Y-116450823D01*
X122074349Y-116823454D01*
X122444546Y-117193651D01*
X122928231Y-117394000D01*
X123451769Y-117394000D01*
X123935454Y-117193651D01*
X124305651Y-116823454D01*
X124460000Y-116450823D01*
X124614349Y-116823454D01*
X124984546Y-117193651D01*
X125468231Y-117394000D01*
X125991769Y-117394000D01*
X126475454Y-117193651D01*
X126845651Y-116823454D01*
X127000000Y-116450823D01*
X127154349Y-116823454D01*
X127524546Y-117193651D01*
X128008231Y-117394000D01*
X128531769Y-117394000D01*
X129015454Y-117193651D01*
X129385651Y-116823454D01*
X129540000Y-116450823D01*
X129694349Y-116823454D01*
X130064546Y-117193651D01*
X130548231Y-117394000D01*
X131071769Y-117394000D01*
X131555454Y-117193651D01*
X131925651Y-116823454D01*
X132080000Y-116450823D01*
X132234349Y-116823454D01*
X132604546Y-117193651D01*
X133088231Y-117394000D01*
X133611769Y-117394000D01*
X134095454Y-117193651D01*
X134465651Y-116823454D01*
X134666000Y-116339769D01*
X134666000Y-115816231D01*
X134465651Y-115332546D01*
X134095454Y-114962349D01*
X133611769Y-114762000D01*
X133088231Y-114762000D01*
X132604546Y-114962349D01*
X132234349Y-115332546D01*
X132080000Y-115705177D01*
X131925651Y-115332546D01*
X131555454Y-114962349D01*
X131071769Y-114762000D01*
X130548231Y-114762000D01*
X130064546Y-114962349D01*
X129694349Y-115332546D01*
X129540000Y-115705177D01*
X129385651Y-115332546D01*
X129015454Y-114962349D01*
X128531769Y-114762000D01*
X128008231Y-114762000D01*
X127524546Y-114962349D01*
X127154349Y-115332546D01*
X127000000Y-115705177D01*
X126845651Y-115332546D01*
X126475454Y-114962349D01*
X125991769Y-114762000D01*
X125468231Y-114762000D01*
X124984546Y-114962349D01*
X124614349Y-115332546D01*
X124460000Y-115705177D01*
X124305651Y-115332546D01*
X123935454Y-114962349D01*
X123451769Y-114762000D01*
X122928231Y-114762000D01*
X122444546Y-114962349D01*
X122074349Y-115332546D01*
X121920000Y-115705177D01*
X121765651Y-115332546D01*
X121395454Y-114962349D01*
X120911769Y-114762000D01*
X120388231Y-114762000D01*
X119904546Y-114962349D01*
X119534349Y-115332546D01*
X119380000Y-115705177D01*
X119225651Y-115332546D01*
X118855454Y-114962349D01*
X118687000Y-114892573D01*
X118687000Y-112106827D01*
X118698304Y-112049999D01*
X118681220Y-111964114D01*
X118653522Y-111824866D01*
X118525994Y-111634006D01*
X118477815Y-111601814D01*
X116988188Y-110112188D01*
X116955994Y-110064006D01*
X116765134Y-109936478D01*
X116596829Y-109903000D01*
X116596828Y-109903000D01*
X116540000Y-109891696D01*
X116483172Y-109903000D01*
X114524687Y-109903000D01*
X114273426Y-109651739D01*
X113914337Y-109503000D01*
X113525663Y-109503000D01*
X113166574Y-109651739D01*
X112891739Y-109926574D01*
X112743000Y-110285663D01*
X103746626Y-110285663D01*
X104746031Y-109286259D01*
X104824097Y-109234097D01*
X105030750Y-108924819D01*
X105085000Y-108652086D01*
X105085000Y-108652083D01*
X105103316Y-108560001D01*
X105085000Y-108467919D01*
X105085000Y-106980068D01*
X105201935Y-106901935D01*
X105294497Y-106763406D01*
X105327000Y-106600000D01*
X105327000Y-106186547D01*
X105357000Y-106114120D01*
X105357000Y-105645880D01*
X105327000Y-105573453D01*
X105327000Y-105018262D01*
X105337000Y-104994120D01*
X105337000Y-104525880D01*
X105327000Y-104501738D01*
X105327000Y-103828262D01*
X105337000Y-103804120D01*
X105337000Y-103335880D01*
X105327000Y-103311738D01*
X105327000Y-102800000D01*
X105294497Y-102636594D01*
X105201935Y-102498065D01*
X105197348Y-102495000D01*
X135754025Y-102495000D01*
X140035001Y-106775977D01*
X140035000Y-114762785D01*
X139914393Y-114786775D01*
X139773150Y-114881150D01*
X139678775Y-115022393D01*
X139645635Y-115189000D01*
X139645635Y-115573929D01*
X139545651Y-115332546D01*
X139175454Y-114962349D01*
X138691769Y-114762000D01*
X138168231Y-114762000D01*
X137684546Y-114962349D01*
X137314349Y-115332546D01*
X137114000Y-115816231D01*
X137114000Y-116339769D01*
X137314349Y-116823454D01*
X137684546Y-117193651D01*
X138168231Y-117394000D01*
X138691769Y-117394000D01*
X139175454Y-117193651D01*
X139545651Y-116823454D01*
X139645635Y-116582071D01*
X139645635Y-116967000D01*
X139678775Y-117133607D01*
X139773150Y-117274850D01*
X139914393Y-117369225D01*
X140081000Y-117402365D01*
X141859000Y-117402365D01*
X142025607Y-117369225D01*
X142166850Y-117274850D01*
X142261225Y-117133607D01*
X142294365Y-116967000D01*
X142294365Y-115189000D01*
X142261225Y-115022393D01*
X142166850Y-114881150D01*
X142025607Y-114786775D01*
X141905000Y-114762785D01*
X141905000Y-106451082D01*
X141915161Y-106400000D01*
X141905000Y-106348918D01*
X141905000Y-106307914D01*
X141850750Y-106035181D01*
X141644097Y-105725903D01*
X141531934Y-105650958D01*
X136850051Y-100969076D01*
X136798330Y-100891670D01*
X136491697Y-100686785D01*
X136221302Y-100633000D01*
X136221300Y-100633000D01*
X136130000Y-100614839D01*
X136038700Y-100633000D01*
X135832305Y-100633000D01*
X135792086Y-100625000D01*
X92816930Y-100625000D01*
X92687813Y-100313283D01*
X92356717Y-99982187D01*
X92064818Y-99861279D01*
X91938721Y-99735182D01*
X91817813Y-99443283D01*
X91486717Y-99112187D01*
X91054120Y-98933000D01*
X90992289Y-98933000D01*
X88637612Y-96578323D01*
X88751935Y-96501935D01*
X88844497Y-96363406D01*
X88877000Y-96200000D01*
X88877000Y-91150000D01*
X88844497Y-90986594D01*
X88751935Y-90848065D01*
X88613406Y-90755503D01*
X88450000Y-90723000D01*
X84333976Y-90723000D01*
X79227000Y-85616025D01*
X79227000Y-60093975D01*
X81020975Y-58300000D01*
X82759942Y-58300000D01*
X82851291Y-58759242D01*
X83111431Y-59148569D01*
X83338063Y-59300000D01*
X83111431Y-59451431D01*
X82851291Y-59840758D01*
X82759942Y-60300000D01*
X82851291Y-60759242D01*
X83111431Y-61148569D01*
X83500758Y-61408709D01*
X83844080Y-61477000D01*
X85575920Y-61477000D01*
X85919242Y-61408709D01*
X86308569Y-61148569D01*
X86568709Y-60759242D01*
X86660058Y-60300000D01*
X86568709Y-59840758D01*
X86308569Y-59451431D01*
X86081937Y-59300000D01*
X86308569Y-59148569D01*
X86568709Y-58759242D01*
X86660058Y-58300000D01*
X86591566Y-57955663D01*
X87253000Y-57955663D01*
X87253000Y-58344337D01*
X87401739Y-58703426D01*
X87653000Y-58954687D01*
X87653001Y-62483167D01*
X87641696Y-62540000D01*
X87681082Y-62738001D01*
X87686479Y-62765134D01*
X87814007Y-62955994D01*
X87862186Y-62988186D01*
X89413000Y-64539001D01*
X89413000Y-64894337D01*
X89561739Y-65253426D01*
X89836574Y-65528261D01*
X90195663Y-65677000D01*
X90584337Y-65677000D01*
X90943426Y-65528261D01*
X91218261Y-65253426D01*
X91367000Y-64894337D01*
X91367000Y-64505663D01*
X91218261Y-64146574D01*
X90943426Y-63871739D01*
X90584337Y-63723000D01*
X90229001Y-63723000D01*
X88807000Y-62301000D01*
X88807000Y-58954687D01*
X89058261Y-58703426D01*
X89207000Y-58344337D01*
X89207000Y-57955663D01*
X89058261Y-57596574D01*
X88783426Y-57321739D01*
X88424337Y-57173000D01*
X88035663Y-57173000D01*
X87676574Y-57321739D01*
X87401739Y-57596574D01*
X87253000Y-57955663D01*
X86591566Y-57955663D01*
X86568709Y-57840758D01*
X86308569Y-57451431D01*
X85919242Y-57191291D01*
X85575920Y-57123000D01*
X83844080Y-57123000D01*
X83500758Y-57191291D01*
X83111431Y-57451431D01*
X82851291Y-57840758D01*
X82759942Y-58300000D01*
X81020975Y-58300000D01*
X82593976Y-56727000D01*
X83228811Y-56727000D01*
X83500758Y-56908709D01*
X83844080Y-56977000D01*
X85575920Y-56977000D01*
X85919242Y-56908709D01*
X86308569Y-56648569D01*
X86335676Y-56608000D01*
X89315316Y-56608000D01*
X93022389Y-60315073D01*
X93067465Y-60382535D01*
X93134926Y-60427611D01*
X93134927Y-60427612D01*
X93166894Y-60448972D01*
X93334734Y-60561119D01*
X93570422Y-60608000D01*
X93570426Y-60608000D01*
X93649999Y-60623828D01*
X93729572Y-60608000D01*
X111970426Y-60608000D01*
X112050000Y-60623828D01*
X112129574Y-60608000D01*
X112129578Y-60608000D01*
X112365266Y-60561119D01*
X112632535Y-60382535D01*
X112677613Y-60315071D01*
X113305074Y-59687611D01*
X113372535Y-59642535D01*
X113551119Y-59375266D01*
X113598000Y-59139578D01*
X113598000Y-59139575D01*
X113613828Y-59060001D01*
X113598000Y-58980427D01*
X113598000Y-56335365D01*
X113640000Y-56335365D01*
X113806607Y-56302225D01*
X113947850Y-56207850D01*
X114042225Y-56066607D01*
X114075365Y-55900000D01*
X114075365Y-55358005D01*
X114247412Y-55773362D01*
X114395001Y-55920951D01*
X114395000Y-56707914D01*
X114376683Y-56800000D01*
X114395000Y-56892085D01*
X114449250Y-57164818D01*
X114655903Y-57474097D01*
X114733972Y-57526261D01*
X117353740Y-60146030D01*
X117405903Y-60224097D01*
X117485000Y-60276948D01*
X117485000Y-60507915D01*
X117485001Y-78907909D01*
X117466683Y-79000000D01*
X117485000Y-79092086D01*
X117485001Y-97292709D01*
X116562711Y-98215000D01*
X115577619Y-98215000D01*
X115563406Y-98205503D01*
X115400000Y-98173000D01*
X112203777Y-98173000D01*
X111902136Y-98113000D01*
X110997864Y-98113000D01*
X110695383Y-98173167D01*
X110516179Y-98292908D01*
X110446574Y-98321739D01*
X110393300Y-98375013D01*
X110352365Y-98402365D01*
X110325013Y-98443300D01*
X110299313Y-98469000D01*
X94732079Y-98469000D01*
X90931000Y-94667922D01*
X90931000Y-87019976D01*
X91035873Y-86915103D01*
X91177000Y-86574392D01*
X91177000Y-86205608D01*
X91035873Y-85864897D01*
X90916500Y-85745524D01*
X90916500Y-85012903D01*
X91063761Y-84865642D01*
X91212500Y-84506553D01*
X91212500Y-84117879D01*
X91063761Y-83758790D01*
X90916500Y-83611529D01*
X90916500Y-82935126D01*
X91063761Y-82787865D01*
X91212500Y-82428776D01*
X91212500Y-82040102D01*
X91063761Y-81681013D01*
X90881000Y-81498252D01*
X90881000Y-80972349D01*
X91028261Y-80825088D01*
X91177000Y-80465999D01*
X91177000Y-80077325D01*
X91028261Y-79718236D01*
X90881000Y-79570975D01*
X90881000Y-79100687D01*
X91028261Y-78953426D01*
X91177000Y-78594337D01*
X91177000Y-78205663D01*
X91028261Y-77846574D01*
X90881000Y-77699313D01*
X90881000Y-73271741D01*
X91063761Y-73088980D01*
X91212500Y-72729891D01*
X91212500Y-72341217D01*
X91063761Y-71982128D01*
X90916500Y-71834867D01*
X90916500Y-71158464D01*
X91063761Y-71011203D01*
X91212500Y-70652114D01*
X91212500Y-70263440D01*
X91063761Y-69904351D01*
X90916500Y-69757090D01*
X90916500Y-69080687D01*
X91063761Y-68933426D01*
X91212500Y-68574337D01*
X91212500Y-68185663D01*
X91063761Y-67826574D01*
X90788926Y-67551739D01*
X90429837Y-67403000D01*
X90041163Y-67403000D01*
X89682074Y-67551739D01*
X89407239Y-67826574D01*
X89258500Y-68185663D01*
X89258500Y-68574337D01*
X89407239Y-68933426D01*
X89554501Y-69080688D01*
X89554500Y-69757090D01*
X89407239Y-69904351D01*
X89258500Y-70263440D01*
X89258500Y-70652114D01*
X89407239Y-71011203D01*
X89554501Y-71158465D01*
X89554500Y-71834867D01*
X89407239Y-71982128D01*
X89258500Y-72341217D01*
X89258500Y-72729891D01*
X89407239Y-73088980D01*
X89519001Y-73200742D01*
X89519000Y-77699313D01*
X89371739Y-77846574D01*
X89223000Y-78205663D01*
X89223000Y-78594337D01*
X89371739Y-78953426D01*
X89519001Y-79100688D01*
X89519000Y-79570975D01*
X89371739Y-79718236D01*
X89223000Y-80077325D01*
X89223000Y-80465999D01*
X89371739Y-80825088D01*
X89519000Y-80972349D01*
X89519001Y-81569251D01*
X89407239Y-81681013D01*
X89258500Y-82040102D01*
X89258500Y-82428776D01*
X89407239Y-82787865D01*
X89554500Y-82935126D01*
X89554501Y-83611528D01*
X89407239Y-83758790D01*
X89258500Y-84117879D01*
X89258500Y-84506553D01*
X89407239Y-84865642D01*
X89554500Y-85012903D01*
X89554501Y-85774523D01*
X89464127Y-85864897D01*
X89323000Y-86205608D01*
X89323000Y-86574392D01*
X89464127Y-86915103D01*
X89569000Y-87019976D01*
X89569001Y-94882930D01*
X89555660Y-94950000D01*
X89608513Y-95215712D01*
X89652137Y-95281000D01*
X89759028Y-95440973D01*
X89815887Y-95478965D01*
X93921035Y-99584114D01*
X93959027Y-99640973D01*
X94184287Y-99791487D01*
X94382931Y-99831000D01*
X94382935Y-99831000D01*
X94450000Y-99844340D01*
X94517065Y-99831000D01*
X110299313Y-99831000D01*
X110325013Y-99856700D01*
X110352365Y-99897635D01*
X110393300Y-99924987D01*
X110446574Y-99978261D01*
X110516179Y-100007092D01*
X110695383Y-100126833D01*
X110997864Y-100187000D01*
X111902136Y-100187000D01*
X112203777Y-100127000D01*
X115400000Y-100127000D01*
X115563406Y-100094497D01*
X115577619Y-100085000D01*
X116857914Y-100085000D01*
X116950000Y-100103317D01*
X117042086Y-100085000D01*
X117314819Y-100030750D01*
X117624097Y-99824097D01*
X117676261Y-99746028D01*
X119016031Y-98406259D01*
X119094097Y-98354097D01*
X119300750Y-98044819D01*
X119355000Y-97772086D01*
X119373317Y-97680000D01*
X119355000Y-97587914D01*
X119355000Y-79975000D01*
X146273000Y-79975000D01*
X146273000Y-81020000D01*
X146285816Y-81123829D01*
X146357077Y-81274427D01*
X146817077Y-81894427D01*
X146963000Y-82008285D01*
X146963001Y-106349950D01*
X146913000Y-106470663D01*
X146913000Y-106859337D01*
X147061739Y-107218426D01*
X147336574Y-107493261D01*
X147695663Y-107642000D01*
X148084337Y-107642000D01*
X148386115Y-107517000D01*
X148413885Y-107517000D01*
X148715663Y-107642000D01*
X149104337Y-107642000D01*
X149406115Y-107517000D01*
X152111895Y-107517000D01*
X152375546Y-107780651D01*
X152616929Y-107880635D01*
X152232000Y-107880635D01*
X152065393Y-107913775D01*
X151924150Y-108008150D01*
X151829775Y-108149393D01*
X151796635Y-108316000D01*
X151796635Y-110094000D01*
X151829775Y-110260607D01*
X151924150Y-110401850D01*
X152065393Y-110496225D01*
X152232000Y-110529365D01*
X154010000Y-110529365D01*
X154176607Y-110496225D01*
X154317850Y-110401850D01*
X154412225Y-110260607D01*
X154445365Y-110094000D01*
X154445365Y-108316000D01*
X154412225Y-108149393D01*
X154317850Y-108008150D01*
X154176607Y-107913775D01*
X154010000Y-107880635D01*
X153625071Y-107880635D01*
X153866454Y-107780651D01*
X154236651Y-107410454D01*
X154263349Y-107346000D01*
X156977935Y-107346000D01*
X157045000Y-107359340D01*
X157112065Y-107346000D01*
X157112069Y-107346000D01*
X157310713Y-107306487D01*
X157535973Y-107155973D01*
X157573967Y-107099111D01*
X158644114Y-106028965D01*
X158700973Y-105990973D01*
X158851487Y-105765713D01*
X158891000Y-105567069D01*
X158891000Y-105567065D01*
X158904340Y-105500000D01*
X158891000Y-105432935D01*
X158891000Y-90063530D01*
X159207813Y-89746717D01*
X159387000Y-89314120D01*
X159387000Y-88845880D01*
X159207813Y-88413283D01*
X158891000Y-88096470D01*
X158891000Y-81193530D01*
X159207813Y-80876717D01*
X159387000Y-80444120D01*
X159387000Y-79975880D01*
X159207813Y-79543283D01*
X158876717Y-79212187D01*
X158444120Y-79033000D01*
X157975880Y-79033000D01*
X157543283Y-79212187D01*
X157212187Y-79543283D01*
X157033000Y-79975880D01*
X157033000Y-80444120D01*
X157212187Y-80876717D01*
X157529000Y-81193530D01*
X157529001Y-88096469D01*
X157212187Y-88413283D01*
X157033000Y-88845880D01*
X157033000Y-89314120D01*
X157212187Y-89746717D01*
X157529000Y-90063530D01*
X157529001Y-105217920D01*
X156762922Y-105984000D01*
X154263349Y-105984000D01*
X154236651Y-105919546D01*
X153866454Y-105549349D01*
X153382769Y-105349000D01*
X152859231Y-105349000D01*
X152375546Y-105549349D01*
X152261895Y-105663000D01*
X148817000Y-105663000D01*
X148817000Y-81992005D01*
X148891935Y-81941935D01*
X148984497Y-81803406D01*
X149017000Y-81640000D01*
X149017000Y-78540000D01*
X148984497Y-78376594D01*
X148891935Y-78238065D01*
X148753406Y-78145503D01*
X148590000Y-78113000D01*
X148205048Y-78113000D01*
X148084337Y-78063000D01*
X147695663Y-78063000D01*
X147594266Y-78105000D01*
X119355000Y-78105000D01*
X119355000Y-60358000D01*
X140802326Y-60358000D01*
X140784843Y-60369682D01*
X140784840Y-60369685D01*
X140738589Y-60400589D01*
X140707685Y-60446840D01*
X138246844Y-62907683D01*
X138200590Y-62938589D01*
X138169684Y-62984843D01*
X138169682Y-62984845D01*
X138078144Y-63121841D01*
X138035148Y-63338000D01*
X138046001Y-63392563D01*
X138046000Y-73195442D01*
X138035148Y-73250000D01*
X138046000Y-73304558D01*
X138046000Y-73304561D01*
X138078144Y-73466159D01*
X138200589Y-73649411D01*
X138246846Y-73680319D01*
X138467409Y-73900883D01*
X138538589Y-74007411D01*
X138584846Y-74038319D01*
X139809685Y-75263159D01*
X139840589Y-75309411D01*
X139886840Y-75340315D01*
X139886843Y-75340318D01*
X140023840Y-75431856D01*
X140185438Y-75464000D01*
X140185441Y-75464000D01*
X140239999Y-75474852D01*
X140294557Y-75464000D01*
X146032313Y-75464000D01*
X146306574Y-75738261D01*
X146665663Y-75887000D01*
X147054337Y-75887000D01*
X147413426Y-75738261D01*
X147688261Y-75463426D01*
X147837000Y-75104337D01*
X147837000Y-74715663D01*
X147688261Y-74356574D01*
X147413426Y-74081739D01*
X147054337Y-73933000D01*
X146665663Y-73933000D01*
X146557000Y-73978010D01*
X146557000Y-73655663D01*
X146408261Y-73296574D01*
X146133426Y-73021739D01*
X145798626Y-72883061D01*
X145828261Y-72853426D01*
X145977000Y-72494337D01*
X145977000Y-72105663D01*
X145828261Y-71746574D01*
X145553426Y-71471739D01*
X145194337Y-71323000D01*
X144805663Y-71323000D01*
X144446574Y-71471739D01*
X144172313Y-71746000D01*
X140829474Y-71746000D01*
X140508000Y-71424527D01*
X140508000Y-70843231D01*
X151805000Y-70843231D01*
X151805000Y-71366769D01*
X152005349Y-71850454D01*
X152375546Y-72220651D01*
X152748177Y-72375000D01*
X152375546Y-72529349D01*
X152005349Y-72899546D01*
X151805000Y-73383231D01*
X151805000Y-73906769D01*
X152005349Y-74390454D01*
X152375546Y-74760651D01*
X152748177Y-74915000D01*
X152375546Y-75069349D01*
X152005349Y-75439546D01*
X151805000Y-75923231D01*
X151805000Y-76446769D01*
X152005349Y-76930454D01*
X152375546Y-77300651D01*
X152748177Y-77455000D01*
X152375546Y-77609349D01*
X152005349Y-77979546D01*
X151805000Y-78463231D01*
X151805000Y-78986769D01*
X152005349Y-79470454D01*
X152375546Y-79840651D01*
X152748177Y-79995000D01*
X152375546Y-80149349D01*
X152005349Y-80519546D01*
X151805000Y-81003231D01*
X151805000Y-81526769D01*
X152005349Y-82010454D01*
X152375546Y-82380651D01*
X152748177Y-82535000D01*
X152375546Y-82689349D01*
X152005349Y-83059546D01*
X151805000Y-83543231D01*
X151805000Y-84066769D01*
X152005349Y-84550454D01*
X152375546Y-84920651D01*
X152748177Y-85075000D01*
X152375546Y-85229349D01*
X152005349Y-85599546D01*
X151805000Y-86083231D01*
X151805000Y-86606769D01*
X152005349Y-87090454D01*
X152375546Y-87460651D01*
X152748177Y-87615000D01*
X152375546Y-87769349D01*
X152005349Y-88139546D01*
X151805000Y-88623231D01*
X151805000Y-89146769D01*
X152005349Y-89630454D01*
X152375546Y-90000651D01*
X152748177Y-90155000D01*
X152375546Y-90309349D01*
X152005349Y-90679546D01*
X151805000Y-91163231D01*
X151805000Y-91686769D01*
X152005349Y-92170454D01*
X152375546Y-92540651D01*
X152748177Y-92695000D01*
X152375546Y-92849349D01*
X152005349Y-93219546D01*
X151805000Y-93703231D01*
X151805000Y-94226769D01*
X152005349Y-94710454D01*
X152375546Y-95080651D01*
X152748177Y-95235000D01*
X152375546Y-95389349D01*
X152005349Y-95759546D01*
X151805000Y-96243231D01*
X151805000Y-96766769D01*
X152005349Y-97250454D01*
X152375546Y-97620651D01*
X152748177Y-97775000D01*
X152375546Y-97929349D01*
X152005349Y-98299546D01*
X151805000Y-98783231D01*
X151805000Y-99306769D01*
X152005349Y-99790454D01*
X152375546Y-100160651D01*
X152748177Y-100315000D01*
X152375546Y-100469349D01*
X152005349Y-100839546D01*
X151805000Y-101323231D01*
X151805000Y-101846769D01*
X152005349Y-102330454D01*
X152375546Y-102700651D01*
X152859231Y-102901000D01*
X153382769Y-102901000D01*
X153866454Y-102700651D01*
X154236651Y-102330454D01*
X154437000Y-101846769D01*
X154437000Y-101323231D01*
X154236651Y-100839546D01*
X153866454Y-100469349D01*
X153493823Y-100315000D01*
X153866454Y-100160651D01*
X154236651Y-99790454D01*
X154437000Y-99306769D01*
X154437000Y-98783231D01*
X154236651Y-98299546D01*
X153866454Y-97929349D01*
X153493823Y-97775000D01*
X153866454Y-97620651D01*
X154236651Y-97250454D01*
X154437000Y-96766769D01*
X154437000Y-96243231D01*
X154236651Y-95759546D01*
X153866454Y-95389349D01*
X153493823Y-95235000D01*
X153866454Y-95080651D01*
X154236651Y-94710454D01*
X154437000Y-94226769D01*
X154437000Y-93703231D01*
X154236651Y-93219546D01*
X153866454Y-92849349D01*
X153493823Y-92695000D01*
X153866454Y-92540651D01*
X154236651Y-92170454D01*
X154437000Y-91686769D01*
X154437000Y-91163231D01*
X154236651Y-90679546D01*
X153866454Y-90309349D01*
X153493823Y-90155000D01*
X153866454Y-90000651D01*
X154236651Y-89630454D01*
X154437000Y-89146769D01*
X154437000Y-88623231D01*
X154236651Y-88139546D01*
X153866454Y-87769349D01*
X153493823Y-87615000D01*
X153866454Y-87460651D01*
X154236651Y-87090454D01*
X154437000Y-86606769D01*
X154437000Y-86083231D01*
X154236651Y-85599546D01*
X153866454Y-85229349D01*
X153493823Y-85075000D01*
X153866454Y-84920651D01*
X154236651Y-84550454D01*
X154437000Y-84066769D01*
X154437000Y-83543231D01*
X154236651Y-83059546D01*
X153866454Y-82689349D01*
X153493823Y-82535000D01*
X153866454Y-82380651D01*
X154236651Y-82010454D01*
X154437000Y-81526769D01*
X154437000Y-81003231D01*
X154236651Y-80519546D01*
X153866454Y-80149349D01*
X153493823Y-79995000D01*
X153866454Y-79840651D01*
X154236651Y-79470454D01*
X154437000Y-78986769D01*
X154437000Y-78463231D01*
X154236651Y-77979546D01*
X153866454Y-77609349D01*
X153493823Y-77455000D01*
X153866454Y-77300651D01*
X154236651Y-76930454D01*
X154437000Y-76446769D01*
X154437000Y-75923231D01*
X154236651Y-75439546D01*
X153866454Y-75069349D01*
X153493823Y-74915000D01*
X153866454Y-74760651D01*
X154236651Y-74390454D01*
X154437000Y-73906769D01*
X154437000Y-73383231D01*
X154236651Y-72899546D01*
X153866454Y-72529349D01*
X153493823Y-72375000D01*
X153866454Y-72220651D01*
X154236651Y-71850454D01*
X154437000Y-71366769D01*
X154437000Y-70843231D01*
X154236651Y-70359546D01*
X153866454Y-69989349D01*
X153382769Y-69789000D01*
X152859231Y-69789000D01*
X152375546Y-69989349D01*
X152005349Y-70359546D01*
X151805000Y-70843231D01*
X140508000Y-70843231D01*
X140508000Y-65960424D01*
X163677000Y-65960424D01*
X163677000Y-66627576D01*
X163932308Y-67243944D01*
X164404056Y-67715692D01*
X165020424Y-67971000D01*
X165687576Y-67971000D01*
X166303944Y-67715692D01*
X166775692Y-67243944D01*
X167031000Y-66627576D01*
X167031000Y-65960424D01*
X166775692Y-65344056D01*
X166303944Y-64872308D01*
X165687576Y-64617000D01*
X165020424Y-64617000D01*
X164404056Y-64872308D01*
X163932308Y-65344056D01*
X163677000Y-65960424D01*
X140508000Y-65960424D01*
X140508000Y-64725473D01*
X141979475Y-63254000D01*
X149952313Y-63254000D01*
X150226574Y-63528261D01*
X150585663Y-63677000D01*
X150974337Y-63677000D01*
X151333426Y-63528261D01*
X151608261Y-63253426D01*
X151757000Y-62894337D01*
X151757000Y-62505663D01*
X151673469Y-62304000D01*
X155468313Y-62304000D01*
X155742574Y-62578261D01*
X156101663Y-62727000D01*
X156490337Y-62727000D01*
X156849426Y-62578261D01*
X157124261Y-62303426D01*
X157273000Y-61944337D01*
X157273000Y-61555663D01*
X157189469Y-61354000D01*
X157422313Y-61354000D01*
X157696574Y-61628261D01*
X158055663Y-61777000D01*
X158444337Y-61777000D01*
X158803426Y-61628261D01*
X159078261Y-61353426D01*
X159227000Y-60994337D01*
X159227000Y-60605663D01*
X159078261Y-60246574D01*
X158803426Y-59971739D01*
X158444337Y-59823000D01*
X158055663Y-59823000D01*
X157696574Y-59971739D01*
X157422313Y-60246000D01*
X152512723Y-60246000D01*
X152682535Y-60132535D01*
X152727613Y-60065071D01*
X154232405Y-58560280D01*
X154299867Y-58515203D01*
X154355203Y-58432388D01*
X154478451Y-58247934D01*
X154541161Y-57932668D01*
X154525332Y-57853090D01*
X154525332Y-56277000D01*
X154826313Y-56277000D01*
X154846574Y-56297261D01*
X155205663Y-56446000D01*
X155594337Y-56446000D01*
X155953426Y-56297261D01*
X155973687Y-56277000D01*
X156995977Y-56277000D01*
X157016238Y-56297261D01*
X157375327Y-56446000D01*
X157764001Y-56446000D01*
X158123090Y-56297261D01*
X158143351Y-56277000D01*
X160923471Y-56277000D01*
X161227663Y-56403000D01*
X161616337Y-56403000D01*
X161975426Y-56254261D01*
X162250261Y-55979426D01*
X162399000Y-55620337D01*
X162399000Y-55231663D01*
X162250261Y-54872574D01*
X161975426Y-54597739D01*
X161616337Y-54449000D01*
X161227663Y-54449000D01*
X160868574Y-54597739D01*
X160805313Y-54661000D01*
X158143351Y-54661000D01*
X158123090Y-54640739D01*
X157764001Y-54492000D01*
X157375327Y-54492000D01*
X157016238Y-54640739D01*
X156995977Y-54661000D01*
X155973687Y-54661000D01*
X155953426Y-54640739D01*
X155594337Y-54492000D01*
X155205663Y-54492000D01*
X154846574Y-54640739D01*
X154826313Y-54661000D01*
X154291019Y-54661000D01*
X154270758Y-54640739D01*
X153911669Y-54492000D01*
X153522995Y-54492000D01*
X153163906Y-54640739D01*
X152889071Y-54915574D01*
X152740332Y-55274663D01*
X152740332Y-55663337D01*
X152889071Y-56022426D01*
X152909332Y-56042687D01*
X152909333Y-57597982D01*
X151765316Y-58742000D01*
X148784287Y-58742000D01*
X148599813Y-58250070D01*
X148501935Y-58098065D01*
X148363406Y-58005503D01*
X148200000Y-57973000D01*
X147500000Y-57973000D01*
X147360042Y-57996589D01*
X147216317Y-58080856D01*
X146472530Y-58742000D01*
X118594290Y-58742000D01*
X116265000Y-56412711D01*
X116265000Y-55920950D01*
X116412588Y-55773362D01*
X116607000Y-55304011D01*
X116607000Y-54795989D01*
X116412588Y-54326638D01*
X116107000Y-54021050D01*
X116107000Y-53928687D01*
X116256574Y-54078261D01*
X116615663Y-54227000D01*
X117004337Y-54227000D01*
X117363426Y-54078261D01*
X117618687Y-53823000D01*
X119933366Y-53823000D01*
X119664546Y-53934349D01*
X119294349Y-54304546D01*
X119094000Y-54788231D01*
X119094000Y-55311769D01*
X119294349Y-55795454D01*
X119664546Y-56165651D01*
X120148231Y-56366000D01*
X120671769Y-56366000D01*
X121155454Y-56165651D01*
X121525651Y-55795454D01*
X121680000Y-55422823D01*
X121834349Y-55795454D01*
X122204546Y-56165651D01*
X122688231Y-56366000D01*
X123211769Y-56366000D01*
X123695454Y-56165651D01*
X124065651Y-55795454D01*
X124220000Y-55422823D01*
X124374349Y-55795454D01*
X124744546Y-56165651D01*
X125228231Y-56366000D01*
X125751769Y-56366000D01*
X126235454Y-56165651D01*
X126605651Y-55795454D01*
X126760000Y-55422823D01*
X126914349Y-55795454D01*
X127284546Y-56165651D01*
X127768231Y-56366000D01*
X128291769Y-56366000D01*
X128775454Y-56165651D01*
X129145651Y-55795454D01*
X129300000Y-55422823D01*
X129454349Y-55795454D01*
X129824546Y-56165651D01*
X130308231Y-56366000D01*
X130831769Y-56366000D01*
X131315454Y-56165651D01*
X131685651Y-55795454D01*
X131840000Y-55422823D01*
X131994349Y-55795454D01*
X132364546Y-56165651D01*
X132848231Y-56366000D01*
X133371769Y-56366000D01*
X133855454Y-56165651D01*
X134225651Y-55795454D01*
X134380000Y-55422823D01*
X134534349Y-55795454D01*
X134904546Y-56165651D01*
X135388231Y-56366000D01*
X135911769Y-56366000D01*
X136395454Y-56165651D01*
X136765651Y-55795454D01*
X136920000Y-55422823D01*
X137074349Y-55795454D01*
X137444546Y-56165651D01*
X137928231Y-56366000D01*
X138451769Y-56366000D01*
X138935454Y-56165651D01*
X139305651Y-55795454D01*
X139460000Y-55422823D01*
X139614349Y-55795454D01*
X139984546Y-56165651D01*
X140468231Y-56366000D01*
X140991769Y-56366000D01*
X141475454Y-56165651D01*
X141845651Y-55795454D01*
X142000000Y-55422823D01*
X142154349Y-55795454D01*
X142524546Y-56165651D01*
X142693001Y-56235427D01*
X142693001Y-56713168D01*
X142681696Y-56770000D01*
X142705981Y-56892085D01*
X142726479Y-56995134D01*
X142854007Y-57185994D01*
X142902186Y-57218186D01*
X143352183Y-57668184D01*
X143494865Y-57763521D01*
X143719999Y-57808304D01*
X143892454Y-57774000D01*
X150975442Y-57774000D01*
X151030000Y-57784852D01*
X151084558Y-57774000D01*
X151084562Y-57774000D01*
X151246160Y-57741856D01*
X151429411Y-57619411D01*
X151460319Y-57573154D01*
X151646473Y-57387000D01*
X152034337Y-57387000D01*
X152393426Y-57238261D01*
X152668261Y-56963426D01*
X152817000Y-56604337D01*
X152817000Y-56215663D01*
X152668261Y-55856574D01*
X152393426Y-55581739D01*
X152034337Y-55433000D01*
X151645663Y-55433000D01*
X151286574Y-55581739D01*
X151011739Y-55856574D01*
X150863000Y-56215663D01*
X150863000Y-56603527D01*
X150800527Y-56666000D01*
X143982001Y-56666000D01*
X143847000Y-56531000D01*
X143847000Y-56235427D01*
X144015454Y-56165651D01*
X144385651Y-55795454D01*
X144540000Y-55422823D01*
X144694349Y-55795454D01*
X145064546Y-56165651D01*
X145548231Y-56366000D01*
X146071769Y-56366000D01*
X146555454Y-56165651D01*
X146925651Y-55795454D01*
X147126000Y-55311769D01*
X147126000Y-54788231D01*
X146925651Y-54304546D01*
X146555454Y-53934349D01*
X146286634Y-53823000D01*
X151942313Y-53823000D01*
X152216574Y-54097261D01*
X152575663Y-54246000D01*
X152964337Y-54246000D01*
X153323426Y-54097261D01*
X153598261Y-53822426D01*
X153747000Y-53463337D01*
X153747000Y-53074663D01*
X153718420Y-53005663D01*
X156523000Y-53005663D01*
X156523000Y-53394337D01*
X156671739Y-53753426D01*
X156946574Y-54028261D01*
X157305663Y-54177000D01*
X157694337Y-54177000D01*
X158053426Y-54028261D01*
X158328261Y-53753426D01*
X158477000Y-53394337D01*
X158477000Y-53005663D01*
X158328261Y-52646574D01*
X158053426Y-52371739D01*
X157694337Y-52223000D01*
X157305663Y-52223000D01*
X156946574Y-52371739D01*
X156671739Y-52646574D01*
X156523000Y-53005663D01*
X153718420Y-53005663D01*
X153598261Y-52715574D01*
X153323426Y-52440739D01*
X152964337Y-52292000D01*
X152575663Y-52292000D01*
X152216574Y-52440739D01*
X151942313Y-52715000D01*
X150511687Y-52715000D01*
X150693261Y-52533426D01*
X150842000Y-52174337D01*
X150842000Y-51805663D01*
X158523000Y-51805663D01*
X158523000Y-52194337D01*
X158671739Y-52553426D01*
X158946574Y-52828261D01*
X159305663Y-52977000D01*
X159694337Y-52977000D01*
X160053426Y-52828261D01*
X160328261Y-52553426D01*
X160477000Y-52194337D01*
X160477000Y-51805663D01*
X160328261Y-51446574D01*
X160053426Y-51171739D01*
X159694337Y-51023000D01*
X159305663Y-51023000D01*
X158946574Y-51171739D01*
X158671739Y-51446574D01*
X158523000Y-51805663D01*
X150842000Y-51805663D01*
X150842000Y-51785663D01*
X150787464Y-51654000D01*
X157457677Y-51654000D01*
X157512235Y-51664852D01*
X157566793Y-51654000D01*
X157566797Y-51654000D01*
X157728395Y-51621856D01*
X157911646Y-51499411D01*
X157942554Y-51453155D01*
X158350159Y-51045551D01*
X158396411Y-51014646D01*
X158427315Y-50968395D01*
X158427318Y-50968392D01*
X158471049Y-50902944D01*
X158518856Y-50831395D01*
X158551000Y-50669797D01*
X158551000Y-50669792D01*
X158561852Y-50615236D01*
X158551000Y-50560679D01*
X158551000Y-50552954D01*
X158742454Y-50473651D01*
X159112651Y-50103454D01*
X159267000Y-49730823D01*
X159421349Y-50103454D01*
X159791546Y-50473651D01*
X160275231Y-50674000D01*
X160798769Y-50674000D01*
X161282454Y-50473651D01*
X161652651Y-50103454D01*
X161853000Y-49619769D01*
X161853000Y-49096231D01*
X161652651Y-48612546D01*
X161282454Y-48242349D01*
X161041071Y-48142365D01*
X161426000Y-48142365D01*
X161592607Y-48109225D01*
X161733850Y-48014850D01*
X161828225Y-47873607D01*
X161861365Y-47707000D01*
X161861365Y-45929000D01*
X161828225Y-45762393D01*
X161733850Y-45621150D01*
X161592607Y-45526775D01*
X161426000Y-45493635D01*
X159648000Y-45493635D01*
X159481393Y-45526775D01*
X159340150Y-45621150D01*
X159245775Y-45762393D01*
X159212635Y-45929000D01*
X159212635Y-46313929D01*
X159112651Y-46072546D01*
X158742454Y-45702349D01*
X158258769Y-45502000D01*
X157735231Y-45502000D01*
X157251546Y-45702349D01*
X156881349Y-46072546D01*
X156727000Y-46445177D01*
X156572651Y-46072546D01*
X156202454Y-45702349D01*
X155718769Y-45502000D01*
X155195231Y-45502000D01*
X154711546Y-45702349D01*
X154341349Y-46072546D01*
X154187000Y-46445177D01*
X154032651Y-46072546D01*
X153662454Y-45702349D01*
X153178769Y-45502000D01*
X152655231Y-45502000D01*
X152171546Y-45702349D01*
X151801349Y-46072546D01*
X151647000Y-46445177D01*
X151492651Y-46072546D01*
X151122454Y-45702349D01*
X150638769Y-45502000D01*
X150115231Y-45502000D01*
X149631546Y-45702349D01*
X149261349Y-46072546D01*
X149061000Y-46556231D01*
X149061000Y-47079769D01*
X149261349Y-47563454D01*
X149631546Y-47933651D01*
X150115231Y-48134000D01*
X150638769Y-48134000D01*
X151122454Y-47933651D01*
X151492651Y-47563454D01*
X151647000Y-47190823D01*
X151801349Y-47563454D01*
X152171546Y-47933651D01*
X152544177Y-48088000D01*
X152171546Y-48242349D01*
X151801349Y-48612546D01*
X151601000Y-49096231D01*
X151601000Y-49619769D01*
X151801349Y-50103454D01*
X152171546Y-50473651D01*
X152346212Y-50546000D01*
X146799150Y-50546000D01*
X146708261Y-50326574D01*
X146433426Y-50051739D01*
X146074337Y-49903000D01*
X145685663Y-49903000D01*
X145326574Y-50051739D01*
X145051739Y-50326574D01*
X144903000Y-50685663D01*
X144903000Y-51074337D01*
X145048663Y-51426000D01*
X139407687Y-51426000D01*
X139203426Y-51221739D01*
X138844337Y-51073000D01*
X138455663Y-51073000D01*
X138096574Y-51221739D01*
X137821739Y-51496574D01*
X137673000Y-51855663D01*
X137673000Y-52244337D01*
X137821739Y-52603426D01*
X137933313Y-52715000D01*
X117645893Y-52715000D01*
X117638261Y-52696574D01*
X117363426Y-52421739D01*
X117004337Y-52273000D01*
X116615663Y-52273000D01*
X116256574Y-52421739D01*
X116107000Y-52571313D01*
X116107000Y-48231843D01*
X116561844Y-47777000D01*
X117213000Y-47777000D01*
X117213000Y-47954337D01*
X117273000Y-48099190D01*
X117273000Y-48400000D01*
X117305503Y-48563406D01*
X117398065Y-48701935D01*
X117536594Y-48794497D01*
X117700000Y-48827000D01*
X118700000Y-48827000D01*
X118863406Y-48794497D01*
X119001935Y-48701935D01*
X119094497Y-48563406D01*
X119127000Y-48400000D01*
X119127000Y-48050906D01*
X119167000Y-47954337D01*
X119167000Y-47565663D01*
X119127000Y-47469094D01*
X119127000Y-46500000D01*
X119094497Y-46336594D01*
X119001935Y-46198065D01*
X118863406Y-46105503D01*
X118700000Y-46073000D01*
X118465048Y-46073000D01*
X118344337Y-46023000D01*
X117955663Y-46023000D01*
X117834952Y-46073000D01*
X117700000Y-46073000D01*
X117536594Y-46105503D01*
X117398065Y-46198065D01*
X117381404Y-46223000D01*
X116316524Y-46223000D01*
X116239999Y-46207778D01*
X116163474Y-46223000D01*
X115936830Y-46268082D01*
X115679814Y-46439814D01*
X115636464Y-46504692D01*
X114834693Y-47306464D01*
X114769815Y-47349814D01*
X114633766Y-47553426D01*
X114598083Y-47606830D01*
X114537778Y-47910000D01*
X114553001Y-47986530D01*
X114553000Y-54021050D01*
X114247412Y-54326638D01*
X114075365Y-54741995D01*
X114075365Y-54200000D01*
X114042225Y-54033393D01*
X113947850Y-53892150D01*
X113806607Y-53797775D01*
X113640000Y-53764635D01*
X113598000Y-53764635D01*
X113598000Y-45294684D01*
X115134685Y-43758000D01*
X126592707Y-43758000D01*
X126845383Y-43926833D01*
X127147864Y-43987000D01*
X128127136Y-43987000D01*
X128429617Y-43926833D01*
X128682293Y-43758000D01*
X138472775Y-43758000D01*
X138755383Y-43946833D01*
X139057864Y-44007000D01*
X139977869Y-44007000D01*
X140080000Y-44027315D01*
X140182131Y-44007000D01*
X140182136Y-44007000D01*
X140484617Y-43946833D01*
X140827635Y-43717635D01*
X140885492Y-43631046D01*
X140905490Y-43611048D01*
X141076832Y-43354618D01*
X141157315Y-42950001D01*
X141076832Y-42545383D01*
X140847635Y-42202365D01*
X140504617Y-41973168D01*
X140099999Y-41892685D01*
X139897321Y-41933000D01*
X139057864Y-41933000D01*
X138755383Y-41993167D01*
X138532639Y-42142000D01*
X128682293Y-42142000D01*
X128429617Y-41973167D01*
X128127136Y-41913000D01*
X127147864Y-41913000D01*
X126845383Y-41973167D01*
X126592707Y-42142000D01*
X114879572Y-42142000D01*
X114799999Y-42126172D01*
X114720426Y-42142000D01*
X114720422Y-42142000D01*
X114484734Y-42188881D01*
X114217465Y-42367465D01*
X114172388Y-42434927D01*
X112274929Y-44332387D01*
X112207465Y-44377465D01*
X112028881Y-44644735D01*
X111982000Y-44880423D01*
X111982000Y-44880426D01*
X111966172Y-44960000D01*
X111982000Y-45039574D01*
X111982001Y-53764635D01*
X111940000Y-53764635D01*
X111773393Y-53797775D01*
X111632150Y-53892150D01*
X111537775Y-54033393D01*
X111504635Y-54200000D01*
X111504635Y-55900000D01*
X111537775Y-56066607D01*
X111632150Y-56207850D01*
X111773393Y-56302225D01*
X111940000Y-56335365D01*
X111982001Y-56335365D01*
X111982000Y-58725315D01*
X111715316Y-58992000D01*
X93984685Y-58992000D01*
X90277613Y-55284929D01*
X90232535Y-55217465D01*
X89965266Y-55038881D01*
X89729578Y-54992000D01*
X89729574Y-54992000D01*
X89650000Y-54976172D01*
X89570426Y-54992000D01*
X86335676Y-54992000D01*
X86308569Y-54951431D01*
X85919242Y-54691291D01*
X85575920Y-54623000D01*
X83844080Y-54623000D01*
X83500758Y-54691291D01*
X83228811Y-54873000D01*
X82301300Y-54873000D01*
X82209999Y-54854839D01*
X82118699Y-54873000D01*
X82118698Y-54873000D01*
X81848303Y-54926785D01*
X81541670Y-55131670D01*
X81489951Y-55209073D01*
X77709076Y-58989949D01*
X77631670Y-59041670D01*
X77426785Y-59348304D01*
X77373324Y-59617069D01*
X77354839Y-59710000D01*
X71502000Y-59710000D01*
X71502000Y-54193935D01*
X95353000Y-54193935D01*
X95353000Y-54682065D01*
X95539800Y-55133039D01*
X95884961Y-55478200D01*
X96335935Y-55665000D01*
X96824065Y-55665000D01*
X97275039Y-55478200D01*
X97620200Y-55133039D01*
X97807000Y-54682065D01*
X97807000Y-54193935D01*
X97893000Y-54193935D01*
X97893000Y-54682065D01*
X98079800Y-55133039D01*
X98424961Y-55478200D01*
X98875935Y-55665000D01*
X99364065Y-55665000D01*
X99815039Y-55478200D01*
X100160200Y-55133039D01*
X100347000Y-54682065D01*
X100347000Y-54193935D01*
X102973000Y-54193935D01*
X102973000Y-54682065D01*
X103159800Y-55133039D01*
X103504961Y-55478200D01*
X103955935Y-55665000D01*
X104444065Y-55665000D01*
X104895039Y-55478200D01*
X105240200Y-55133039D01*
X105427000Y-54682065D01*
X105427000Y-54193935D01*
X105240200Y-53742961D01*
X104895039Y-53397800D01*
X104444065Y-53211000D01*
X103955935Y-53211000D01*
X103504961Y-53397800D01*
X103159800Y-53742961D01*
X102973000Y-54193935D01*
X100347000Y-54193935D01*
X100160200Y-53742961D01*
X99815039Y-53397800D01*
X99364065Y-53211000D01*
X98875935Y-53211000D01*
X98424961Y-53397800D01*
X98079800Y-53742961D01*
X97893000Y-54193935D01*
X97807000Y-54193935D01*
X97620200Y-53742961D01*
X97275039Y-53397800D01*
X96824065Y-53211000D01*
X96335935Y-53211000D01*
X95884961Y-53397800D01*
X95539800Y-53742961D01*
X95353000Y-54193935D01*
X71502000Y-54193935D01*
X71502000Y-51653935D01*
X96623000Y-51653935D01*
X96623000Y-52142065D01*
X96809800Y-52593039D01*
X97154961Y-52938200D01*
X97605935Y-53125000D01*
X98094065Y-53125000D01*
X98545039Y-52938200D01*
X98890200Y-52593039D01*
X99077000Y-52142065D01*
X99077000Y-51653935D01*
X101703000Y-51653935D01*
X101703000Y-52142065D01*
X101889800Y-52593039D01*
X102234961Y-52938200D01*
X102685935Y-53125000D01*
X103174065Y-53125000D01*
X103625039Y-52938200D01*
X103970200Y-52593039D01*
X104157000Y-52142065D01*
X104157000Y-51653935D01*
X104243000Y-51653935D01*
X104243000Y-52142065D01*
X104429800Y-52593039D01*
X104774961Y-52938200D01*
X105225935Y-53125000D01*
X105714065Y-53125000D01*
X106165039Y-52938200D01*
X106510200Y-52593039D01*
X106697000Y-52142065D01*
X106697000Y-51653935D01*
X106510200Y-51202961D01*
X106165039Y-50857800D01*
X105714065Y-50671000D01*
X105225935Y-50671000D01*
X104774961Y-50857800D01*
X104429800Y-51202961D01*
X104243000Y-51653935D01*
X104157000Y-51653935D01*
X103970200Y-51202961D01*
X103625039Y-50857800D01*
X103174065Y-50671000D01*
X102685935Y-50671000D01*
X102234961Y-50857800D01*
X101889800Y-51202961D01*
X101703000Y-51653935D01*
X99077000Y-51653935D01*
X98890200Y-51202961D01*
X98545039Y-50857800D01*
X98094065Y-50671000D01*
X97605935Y-50671000D01*
X97154961Y-50857800D01*
X96809800Y-51202961D01*
X96623000Y-51653935D01*
X71502000Y-51653935D01*
X71502000Y-44136257D01*
X78785974Y-44136257D01*
X78785974Y-44659795D01*
X78986323Y-45143480D01*
X79356520Y-45513677D01*
X79840205Y-45714026D01*
X80363743Y-45714026D01*
X80847428Y-45513677D01*
X81217625Y-45143480D01*
X81229435Y-45114968D01*
X93158000Y-45114968D01*
X93158000Y-45981032D01*
X93489428Y-46781171D01*
X94101829Y-47393572D01*
X94901968Y-47725000D01*
X95768032Y-47725000D01*
X96568171Y-47393572D01*
X97180572Y-46781171D01*
X97512000Y-45981032D01*
X97512000Y-45114968D01*
X104588000Y-45114968D01*
X104588000Y-45981032D01*
X104919428Y-46781171D01*
X105531829Y-47393572D01*
X106331968Y-47725000D01*
X107198032Y-47725000D01*
X107998171Y-47393572D01*
X108610572Y-46781171D01*
X108942000Y-45981032D01*
X108942000Y-45114968D01*
X108610572Y-44314829D01*
X107998171Y-43702428D01*
X107198032Y-43371000D01*
X106331968Y-43371000D01*
X105531829Y-43702428D01*
X104919428Y-44314829D01*
X104588000Y-45114968D01*
X97512000Y-45114968D01*
X97180572Y-44314829D01*
X96568171Y-43702428D01*
X95768032Y-43371000D01*
X94901968Y-43371000D01*
X94101829Y-43702428D01*
X93489428Y-44314829D01*
X93158000Y-45114968D01*
X81229435Y-45114968D01*
X81417974Y-44659795D01*
X81417974Y-44136257D01*
X81242518Y-43712668D01*
X81644015Y-43878974D01*
X82152037Y-43878974D01*
X82621388Y-43684562D01*
X82980614Y-43325336D01*
X83175026Y-42855985D01*
X83175026Y-42347963D01*
X82987614Y-41895511D01*
X83440066Y-42082923D01*
X83948088Y-42082923D01*
X84417439Y-41888511D01*
X84776665Y-41529285D01*
X84971077Y-41059934D01*
X84971077Y-40551912D01*
X84901544Y-40384043D01*
X93098000Y-40384043D01*
X93098000Y-40911957D01*
X93300024Y-41399685D01*
X93673315Y-41772976D01*
X94161043Y-41975000D01*
X94688957Y-41975000D01*
X95176685Y-41772976D01*
X95549976Y-41399685D01*
X95695000Y-41049567D01*
X95840024Y-41399685D01*
X96213315Y-41772976D01*
X96701043Y-41975000D01*
X97228957Y-41975000D01*
X97716685Y-41772976D01*
X98089976Y-41399685D01*
X98292000Y-40911957D01*
X98292000Y-40384043D01*
X103808000Y-40384043D01*
X103808000Y-40911957D01*
X104010024Y-41399685D01*
X104383315Y-41772976D01*
X104871043Y-41975000D01*
X105398957Y-41975000D01*
X105886685Y-41772976D01*
X106259976Y-41399685D01*
X106405000Y-41049567D01*
X106550024Y-41399685D01*
X106923315Y-41772976D01*
X107411043Y-41975000D01*
X107938957Y-41975000D01*
X108426685Y-41772976D01*
X108799976Y-41399685D01*
X109002000Y-40911957D01*
X109002000Y-40384043D01*
X108799976Y-39896315D01*
X108426685Y-39523024D01*
X107938957Y-39321000D01*
X107411043Y-39321000D01*
X106923315Y-39523024D01*
X106550024Y-39896315D01*
X106405000Y-40246433D01*
X106259976Y-39896315D01*
X105886685Y-39523024D01*
X105398957Y-39321000D01*
X104871043Y-39321000D01*
X104383315Y-39523024D01*
X104010024Y-39896315D01*
X103808000Y-40384043D01*
X98292000Y-40384043D01*
X98089976Y-39896315D01*
X97716685Y-39523024D01*
X97228957Y-39321000D01*
X96701043Y-39321000D01*
X96213315Y-39523024D01*
X95840024Y-39896315D01*
X95695000Y-40246433D01*
X95549976Y-39896315D01*
X95176685Y-39523024D01*
X94688957Y-39321000D01*
X94161043Y-39321000D01*
X93673315Y-39523024D01*
X93300024Y-39896315D01*
X93098000Y-40384043D01*
X84901544Y-40384043D01*
X84776665Y-40082561D01*
X84417439Y-39723335D01*
X83948088Y-39528923D01*
X83440066Y-39528923D01*
X82970715Y-39723335D01*
X82611489Y-40082561D01*
X82417077Y-40551912D01*
X82417077Y-41059934D01*
X82604489Y-41512386D01*
X82152037Y-41324974D01*
X81644015Y-41324974D01*
X81174664Y-41519386D01*
X80815438Y-41878612D01*
X80621026Y-42347963D01*
X80621026Y-42855985D01*
X80787332Y-43257482D01*
X80363743Y-43082026D01*
X79840205Y-43082026D01*
X79356520Y-43282375D01*
X78986323Y-43652572D01*
X78785974Y-44136257D01*
X71502000Y-44136257D01*
X71502000Y-42116277D01*
X72350692Y-42964969D01*
X74069687Y-43677000D01*
X75930313Y-43677000D01*
X77649308Y-42964969D01*
X78964969Y-41649308D01*
X79677000Y-39930313D01*
X79677000Y-38069687D01*
X78964969Y-36350692D01*
X78116277Y-35502000D01*
X163883723Y-35502000D01*
X163035031Y-36350692D01*
X163035031Y-36350692D01*
G37*
X163035031Y-36350692D02*
X162323000Y-38069687D01*
X162323000Y-39930313D01*
X163035031Y-41649308D01*
X164350692Y-42964969D01*
X166069687Y-43677000D01*
X167930313Y-43677000D01*
X169649308Y-42964969D01*
X170498000Y-42116277D01*
X170498001Y-112883724D01*
X169649308Y-112035031D01*
X167930313Y-111323000D01*
X166069687Y-111323000D01*
X164350692Y-112035031D01*
X163035031Y-113350692D01*
X162323000Y-115069687D01*
X162323000Y-116930313D01*
X163035031Y-118649308D01*
X163883723Y-119498000D01*
X78116277Y-119498000D01*
X78964969Y-118649308D01*
X79677000Y-116930313D01*
X79677000Y-115069687D01*
X78964969Y-113350692D01*
X77649308Y-112035031D01*
X75930313Y-111323000D01*
X74069687Y-111323000D01*
X72350692Y-112035031D01*
X71502000Y-112883723D01*
X71502000Y-106860364D01*
X76273000Y-106860364D01*
X76273000Y-107139636D01*
X76379873Y-107397651D01*
X76577349Y-107595127D01*
X76835364Y-107702000D01*
X77114636Y-107702000D01*
X77372651Y-107595127D01*
X77570127Y-107397651D01*
X77677000Y-107139636D01*
X77677000Y-106860364D01*
X77570127Y-106602349D01*
X77463441Y-106495663D01*
X82333000Y-106495663D01*
X82333000Y-106884337D01*
X82481739Y-107243426D01*
X82756574Y-107518261D01*
X83115663Y-107667000D01*
X83504337Y-107667000D01*
X83863426Y-107518261D01*
X84064687Y-107317000D01*
X87483808Y-107317000D01*
X87581739Y-107553426D01*
X87856574Y-107828261D01*
X88215663Y-107977000D01*
X88604337Y-107977000D01*
X88963426Y-107828261D01*
X89238261Y-107553426D01*
X89387000Y-107194337D01*
X89387000Y-106805663D01*
X89238261Y-106446574D01*
X88963426Y-106171739D01*
X88604337Y-106023000D01*
X88215663Y-106023000D01*
X88132931Y-106057268D01*
X88100000Y-106050718D01*
X88038254Y-106063000D01*
X84064687Y-106063000D01*
X83863426Y-105861739D01*
X83504337Y-105713000D01*
X83115663Y-105713000D01*
X82756574Y-105861739D01*
X82481739Y-106136574D01*
X82333000Y-106495663D01*
X77463441Y-106495663D01*
X77372651Y-106404873D01*
X77114636Y-106298000D01*
X76835364Y-106298000D01*
X76577349Y-106404873D01*
X76379873Y-106602349D01*
X76273000Y-106860364D01*
X71502000Y-106860364D01*
X71502000Y-102860364D01*
X76273000Y-102860364D01*
X76273000Y-103139636D01*
X76379873Y-103397651D01*
X76577349Y-103595127D01*
X76835364Y-103702000D01*
X77114636Y-103702000D01*
X77372651Y-103595127D01*
X77570127Y-103397651D01*
X77677000Y-103139636D01*
X77677000Y-102860364D01*
X77570127Y-102602349D01*
X77372651Y-102404873D01*
X77114636Y-102298000D01*
X76835364Y-102298000D01*
X76577349Y-102404873D01*
X76379873Y-102602349D01*
X76273000Y-102860364D01*
X71502000Y-102860364D01*
X71502000Y-80963608D01*
X74821800Y-80963608D01*
X74821800Y-81332392D01*
X74962927Y-81673103D01*
X75223697Y-81933873D01*
X75564408Y-82075000D01*
X75933192Y-82075000D01*
X76273903Y-81933873D01*
X76534673Y-81673103D01*
X76675800Y-81332392D01*
X76675800Y-80963608D01*
X76534673Y-80622897D01*
X76273903Y-80362127D01*
X75933192Y-80221000D01*
X75564408Y-80221000D01*
X75223697Y-80362127D01*
X74962927Y-80622897D01*
X74821800Y-80963608D01*
X71502000Y-80963608D01*
X71502000Y-72962608D01*
X74821800Y-72962608D01*
X74821800Y-73331392D01*
X74962927Y-73672103D01*
X75223697Y-73932873D01*
X75564408Y-74074000D01*
X75933192Y-74074000D01*
X76273903Y-73932873D01*
X76534673Y-73672103D01*
X76675800Y-73331392D01*
X76675800Y-72962608D01*
X76534673Y-72621897D01*
X76273903Y-72361127D01*
X75933192Y-72220000D01*
X75564408Y-72220000D01*
X75223697Y-72361127D01*
X74962927Y-72621897D01*
X74821800Y-72962608D01*
X71502000Y-72962608D01*
X71502000Y-59710000D01*
X77354839Y-59710000D01*
X77373000Y-59801300D01*
X77373000Y-59908699D01*
X77373001Y-85908695D01*
X77354839Y-86000000D01*
X77379562Y-86124287D01*
X77426786Y-86361697D01*
X77631671Y-86668330D01*
X77709074Y-86720049D01*
X83318000Y-92328976D01*
X83318001Y-94611413D01*
X83323000Y-94636545D01*
X83323000Y-96150000D01*
X83353787Y-96309200D01*
X83444871Y-96448706D01*
X83582407Y-96542736D01*
X83745458Y-96576976D01*
X86314846Y-96604310D01*
X86369250Y-96877818D01*
X86523741Y-97109030D01*
X86575904Y-97187097D01*
X86653970Y-97239259D01*
X89643000Y-100228289D01*
X89643000Y-100344120D01*
X89822187Y-100776717D01*
X90153283Y-101107813D01*
X90534346Y-101265654D01*
X90692187Y-101646717D01*
X91023283Y-101977813D01*
X91455880Y-102157000D01*
X91564388Y-102157000D01*
X91615903Y-102234097D01*
X91693969Y-102286259D01*
X91925181Y-102440750D01*
X92289999Y-102513317D01*
X92382085Y-102495000D01*
X103202652Y-102495000D01*
X103198065Y-102498065D01*
X103105503Y-102636594D01*
X103073000Y-102800000D01*
X103073000Y-103118600D01*
X102983000Y-103335880D01*
X102983000Y-103804120D01*
X103073000Y-104021400D01*
X103073000Y-104308600D01*
X102983000Y-104525880D01*
X102983000Y-104994120D01*
X103073000Y-105211400D01*
X103073000Y-105476885D01*
X103003000Y-105645880D01*
X103003000Y-106114120D01*
X103073000Y-106283115D01*
X103073000Y-106600000D01*
X103105503Y-106763406D01*
X103198065Y-106901935D01*
X103215000Y-106913251D01*
X103215001Y-108172709D01*
X99693972Y-111693739D01*
X99615903Y-111745903D01*
X99549213Y-111845712D01*
X99409250Y-112055182D01*
X99336683Y-112420000D01*
X99355000Y-112512086D01*
X99355001Y-114762785D01*
X99234393Y-114786775D01*
X99093150Y-114881150D01*
X98998775Y-115022393D01*
X98965635Y-115189000D01*
X98965635Y-116129000D01*
X91722687Y-116129000D01*
X91978261Y-115873426D01*
X92127000Y-115514337D01*
X92127000Y-115125663D01*
X92085000Y-115024266D01*
X92085000Y-114857450D01*
X92107000Y-114804337D01*
X92107000Y-114415663D01*
X91958261Y-114056574D01*
X91811000Y-113909313D01*
X91811000Y-104097065D01*
X91824340Y-104030000D01*
X91811000Y-103962935D01*
X91811000Y-103962931D01*
X91771487Y-103764287D01*
X91620973Y-103539027D01*
X91564114Y-103501035D01*
X91028967Y-102965889D01*
X90990973Y-102909027D01*
X90765713Y-102758513D01*
X90567069Y-102719000D01*
X90567065Y-102719000D01*
X90500000Y-102705660D01*
X90432935Y-102719000D01*
X88574739Y-102719000D01*
X88497813Y-102533283D01*
X88177000Y-102212470D01*
X88177000Y-101985880D01*
X87997813Y-101553283D01*
X87666717Y-101222187D01*
X87234120Y-101043000D01*
X86765880Y-101043000D01*
X86333283Y-101222187D01*
X86002187Y-101553283D01*
X85823000Y-101985880D01*
X85823000Y-102454120D01*
X86002187Y-102886717D01*
X86323000Y-103207530D01*
X86323000Y-103434120D01*
X86502187Y-103866717D01*
X86833283Y-104197813D01*
X87265880Y-104377000D01*
X87734120Y-104377000D01*
X88166717Y-104197813D01*
X88283530Y-104081000D01*
X90217922Y-104081000D01*
X90449001Y-104312080D01*
X90449000Y-113909313D01*
X90301739Y-114056574D01*
X90153000Y-114415663D01*
X90153000Y-114804337D01*
X90215000Y-114954019D01*
X90215000Y-115024266D01*
X90173000Y-115125663D01*
X90173000Y-115514337D01*
X90321739Y-115873426D01*
X90577313Y-116129000D01*
X90022079Y-116129000D01*
X89321000Y-115427922D01*
X89321000Y-113502932D01*
X89363406Y-113494497D01*
X89501935Y-113401935D01*
X89594497Y-113263406D01*
X89627000Y-113100000D01*
X89627000Y-112830906D01*
X89667000Y-112734337D01*
X89667000Y-112345663D01*
X89627000Y-112249094D01*
X89627000Y-111000000D01*
X89594497Y-110836594D01*
X89501935Y-110698065D01*
X89363406Y-110605503D01*
X89200000Y-110573000D01*
X88882621Y-110573000D01*
X88834337Y-110553000D01*
X88445663Y-110553000D01*
X88397379Y-110573000D01*
X88200000Y-110573000D01*
X88036594Y-110605503D01*
X87898065Y-110698065D01*
X87805503Y-110836594D01*
X87773000Y-111000000D01*
X87773000Y-111070099D01*
X87663000Y-111335663D01*
X87663000Y-111724337D01*
X87773000Y-111989901D01*
X87773000Y-112200810D01*
X87713000Y-112345663D01*
X87713000Y-112734337D01*
X87773000Y-112879190D01*
X87773000Y-113100000D01*
X87805503Y-113263406D01*
X87898065Y-113401935D01*
X87959001Y-113442651D01*
X87959000Y-115642935D01*
X87945660Y-115710000D01*
X87959000Y-115777065D01*
X87959000Y-115777068D01*
X87998513Y-115975712D01*
X88149027Y-116200972D01*
X88205886Y-116238965D01*
X89211035Y-117244114D01*
X89249027Y-117300973D01*
X89474287Y-117451487D01*
X89672931Y-117491000D01*
X89672935Y-117491000D01*
X89740000Y-117504340D01*
X89807065Y-117491000D01*
X99382935Y-117491000D01*
X99450000Y-117504340D01*
X99517065Y-117491000D01*
X99517069Y-117491000D01*
X99715713Y-117451487D01*
X99789229Y-117402365D01*
X101179000Y-117402365D01*
X101345607Y-117369225D01*
X101486850Y-117274850D01*
X101581225Y-117133607D01*
X101614365Y-116967000D01*
X101614365Y-116582071D01*
X101714349Y-116823454D01*
X102084546Y-117193651D01*
X102568231Y-117394000D01*
X103091769Y-117394000D01*
X103575454Y-117193651D01*
X103945651Y-116823454D01*
X104100000Y-116450823D01*
X104254349Y-116823454D01*
X104624546Y-117193651D01*
X105108231Y-117394000D01*
X105631769Y-117394000D01*
X106115454Y-117193651D01*
X106485651Y-116823454D01*
X106686000Y-116339769D01*
X106686000Y-115816231D01*
X106485651Y-115332546D01*
X106115454Y-114962349D01*
X105631769Y-114762000D01*
X105108231Y-114762000D01*
X104624546Y-114962349D01*
X104254349Y-115332546D01*
X104100000Y-115705177D01*
X103945651Y-115332546D01*
X103575454Y-114962349D01*
X103091769Y-114762000D01*
X102568231Y-114762000D01*
X102084546Y-114962349D01*
X101714349Y-115332546D01*
X101614365Y-115573929D01*
X101614365Y-115189000D01*
X101581225Y-115022393D01*
X101486850Y-114881150D01*
X101345607Y-114786775D01*
X101225000Y-114762785D01*
X101225000Y-112807289D01*
X103746626Y-110285663D01*
X112743000Y-110285663D01*
X112743000Y-110674337D01*
X112891739Y-111033426D01*
X113166574Y-111308261D01*
X113525663Y-111457000D01*
X113914337Y-111457000D01*
X114273426Y-111308261D01*
X114524687Y-111057000D01*
X116301000Y-111057000D01*
X117533000Y-112289001D01*
X117533001Y-114892573D01*
X117364546Y-114962349D01*
X116994349Y-115332546D01*
X116840000Y-115705177D01*
X116685651Y-115332546D01*
X116315454Y-114962349D01*
X115831769Y-114762000D01*
X115308231Y-114762000D01*
X114824546Y-114962349D01*
X114454349Y-115332546D01*
X114254000Y-115816231D01*
X114254000Y-116339769D01*
X114454349Y-116823454D01*
X114824546Y-117193651D01*
X115308231Y-117394000D01*
X115831769Y-117394000D01*
X116315454Y-117193651D01*
X116685651Y-116823454D01*
X116840000Y-116450823D01*
X116994349Y-116823454D01*
X117364546Y-117193651D01*
X117848231Y-117394000D01*
X118371769Y-117394000D01*
X118855454Y-117193651D01*
X119225651Y-116823454D01*
X119380000Y-116450823D01*
X119534349Y-116823454D01*
X119904546Y-117193651D01*
X120388231Y-117394000D01*
X120911769Y-117394000D01*
X121395454Y-117193651D01*
X121765651Y-116823454D01*
X121920000Y-116450823D01*
X122074349Y-116823454D01*
X122444546Y-117193651D01*
X122928231Y-117394000D01*
X123451769Y-117394000D01*
X123935454Y-117193651D01*
X124305651Y-116823454D01*
X124460000Y-116450823D01*
X124614349Y-116823454D01*
X124984546Y-117193651D01*
X125468231Y-117394000D01*
X125991769Y-117394000D01*
X126475454Y-117193651D01*
X126845651Y-116823454D01*
X127000000Y-116450823D01*
X127154349Y-116823454D01*
X127524546Y-117193651D01*
X128008231Y-117394000D01*
X128531769Y-117394000D01*
X129015454Y-117193651D01*
X129385651Y-116823454D01*
X129540000Y-116450823D01*
X129694349Y-116823454D01*
X130064546Y-117193651D01*
X130548231Y-117394000D01*
X131071769Y-117394000D01*
X131555454Y-117193651D01*
X131925651Y-116823454D01*
X132080000Y-116450823D01*
X132234349Y-116823454D01*
X132604546Y-117193651D01*
X133088231Y-117394000D01*
X133611769Y-117394000D01*
X134095454Y-117193651D01*
X134465651Y-116823454D01*
X134666000Y-116339769D01*
X134666000Y-115816231D01*
X134465651Y-115332546D01*
X134095454Y-114962349D01*
X133611769Y-114762000D01*
X133088231Y-114762000D01*
X132604546Y-114962349D01*
X132234349Y-115332546D01*
X132080000Y-115705177D01*
X131925651Y-115332546D01*
X131555454Y-114962349D01*
X131071769Y-114762000D01*
X130548231Y-114762000D01*
X130064546Y-114962349D01*
X129694349Y-115332546D01*
X129540000Y-115705177D01*
X129385651Y-115332546D01*
X129015454Y-114962349D01*
X128531769Y-114762000D01*
X128008231Y-114762000D01*
X127524546Y-114962349D01*
X127154349Y-115332546D01*
X127000000Y-115705177D01*
X126845651Y-115332546D01*
X126475454Y-114962349D01*
X125991769Y-114762000D01*
X125468231Y-114762000D01*
X124984546Y-114962349D01*
X124614349Y-115332546D01*
X124460000Y-115705177D01*
X124305651Y-115332546D01*
X123935454Y-114962349D01*
X123451769Y-114762000D01*
X122928231Y-114762000D01*
X122444546Y-114962349D01*
X122074349Y-115332546D01*
X121920000Y-115705177D01*
X121765651Y-115332546D01*
X121395454Y-114962349D01*
X120911769Y-114762000D01*
X120388231Y-114762000D01*
X119904546Y-114962349D01*
X119534349Y-115332546D01*
X119380000Y-115705177D01*
X119225651Y-115332546D01*
X118855454Y-114962349D01*
X118687000Y-114892573D01*
X118687000Y-112106827D01*
X118698304Y-112049999D01*
X118681220Y-111964114D01*
X118653522Y-111824866D01*
X118525994Y-111634006D01*
X118477815Y-111601814D01*
X116988188Y-110112188D01*
X116955994Y-110064006D01*
X116765134Y-109936478D01*
X116596829Y-109903000D01*
X116596828Y-109903000D01*
X116540000Y-109891696D01*
X116483172Y-109903000D01*
X114524687Y-109903000D01*
X114273426Y-109651739D01*
X113914337Y-109503000D01*
X113525663Y-109503000D01*
X113166574Y-109651739D01*
X112891739Y-109926574D01*
X112743000Y-110285663D01*
X103746626Y-110285663D01*
X104746031Y-109286259D01*
X104824097Y-109234097D01*
X105030750Y-108924819D01*
X105085000Y-108652086D01*
X105085000Y-108652083D01*
X105103316Y-108560001D01*
X105085000Y-108467919D01*
X105085000Y-106980068D01*
X105201935Y-106901935D01*
X105294497Y-106763406D01*
X105327000Y-106600000D01*
X105327000Y-106186547D01*
X105357000Y-106114120D01*
X105357000Y-105645880D01*
X105327000Y-105573453D01*
X105327000Y-105018262D01*
X105337000Y-104994120D01*
X105337000Y-104525880D01*
X105327000Y-104501738D01*
X105327000Y-103828262D01*
X105337000Y-103804120D01*
X105337000Y-103335880D01*
X105327000Y-103311738D01*
X105327000Y-102800000D01*
X105294497Y-102636594D01*
X105201935Y-102498065D01*
X105197348Y-102495000D01*
X135754025Y-102495000D01*
X140035001Y-106775977D01*
X140035000Y-114762785D01*
X139914393Y-114786775D01*
X139773150Y-114881150D01*
X139678775Y-115022393D01*
X139645635Y-115189000D01*
X139645635Y-115573929D01*
X139545651Y-115332546D01*
X139175454Y-114962349D01*
X138691769Y-114762000D01*
X138168231Y-114762000D01*
X137684546Y-114962349D01*
X137314349Y-115332546D01*
X137114000Y-115816231D01*
X137114000Y-116339769D01*
X137314349Y-116823454D01*
X137684546Y-117193651D01*
X138168231Y-117394000D01*
X138691769Y-117394000D01*
X139175454Y-117193651D01*
X139545651Y-116823454D01*
X139645635Y-116582071D01*
X139645635Y-116967000D01*
X139678775Y-117133607D01*
X139773150Y-117274850D01*
X139914393Y-117369225D01*
X140081000Y-117402365D01*
X141859000Y-117402365D01*
X142025607Y-117369225D01*
X142166850Y-117274850D01*
X142261225Y-117133607D01*
X142294365Y-116967000D01*
X142294365Y-115189000D01*
X142261225Y-115022393D01*
X142166850Y-114881150D01*
X142025607Y-114786775D01*
X141905000Y-114762785D01*
X141905000Y-106451082D01*
X141915161Y-106400000D01*
X141905000Y-106348918D01*
X141905000Y-106307914D01*
X141850750Y-106035181D01*
X141644097Y-105725903D01*
X141531934Y-105650958D01*
X136850051Y-100969076D01*
X136798330Y-100891670D01*
X136491697Y-100686785D01*
X136221302Y-100633000D01*
X136221300Y-100633000D01*
X136130000Y-100614839D01*
X136038700Y-100633000D01*
X135832305Y-100633000D01*
X135792086Y-100625000D01*
X92816930Y-100625000D01*
X92687813Y-100313283D01*
X92356717Y-99982187D01*
X92064818Y-99861279D01*
X91938721Y-99735182D01*
X91817813Y-99443283D01*
X91486717Y-99112187D01*
X91054120Y-98933000D01*
X90992289Y-98933000D01*
X88637612Y-96578323D01*
X88751935Y-96501935D01*
X88844497Y-96363406D01*
X88877000Y-96200000D01*
X88877000Y-91150000D01*
X88844497Y-90986594D01*
X88751935Y-90848065D01*
X88613406Y-90755503D01*
X88450000Y-90723000D01*
X84333976Y-90723000D01*
X79227000Y-85616025D01*
X79227000Y-60093975D01*
X81020975Y-58300000D01*
X82759942Y-58300000D01*
X82851291Y-58759242D01*
X83111431Y-59148569D01*
X83338063Y-59300000D01*
X83111431Y-59451431D01*
X82851291Y-59840758D01*
X82759942Y-60300000D01*
X82851291Y-60759242D01*
X83111431Y-61148569D01*
X83500758Y-61408709D01*
X83844080Y-61477000D01*
X85575920Y-61477000D01*
X85919242Y-61408709D01*
X86308569Y-61148569D01*
X86568709Y-60759242D01*
X86660058Y-60300000D01*
X86568709Y-59840758D01*
X86308569Y-59451431D01*
X86081937Y-59300000D01*
X86308569Y-59148569D01*
X86568709Y-58759242D01*
X86660058Y-58300000D01*
X86591566Y-57955663D01*
X87253000Y-57955663D01*
X87253000Y-58344337D01*
X87401739Y-58703426D01*
X87653000Y-58954687D01*
X87653001Y-62483167D01*
X87641696Y-62540000D01*
X87681082Y-62738001D01*
X87686479Y-62765134D01*
X87814007Y-62955994D01*
X87862186Y-62988186D01*
X89413000Y-64539001D01*
X89413000Y-64894337D01*
X89561739Y-65253426D01*
X89836574Y-65528261D01*
X90195663Y-65677000D01*
X90584337Y-65677000D01*
X90943426Y-65528261D01*
X91218261Y-65253426D01*
X91367000Y-64894337D01*
X91367000Y-64505663D01*
X91218261Y-64146574D01*
X90943426Y-63871739D01*
X90584337Y-63723000D01*
X90229001Y-63723000D01*
X88807000Y-62301000D01*
X88807000Y-58954687D01*
X89058261Y-58703426D01*
X89207000Y-58344337D01*
X89207000Y-57955663D01*
X89058261Y-57596574D01*
X88783426Y-57321739D01*
X88424337Y-57173000D01*
X88035663Y-57173000D01*
X87676574Y-57321739D01*
X87401739Y-57596574D01*
X87253000Y-57955663D01*
X86591566Y-57955663D01*
X86568709Y-57840758D01*
X86308569Y-57451431D01*
X85919242Y-57191291D01*
X85575920Y-57123000D01*
X83844080Y-57123000D01*
X83500758Y-57191291D01*
X83111431Y-57451431D01*
X82851291Y-57840758D01*
X82759942Y-58300000D01*
X81020975Y-58300000D01*
X82593976Y-56727000D01*
X83228811Y-56727000D01*
X83500758Y-56908709D01*
X83844080Y-56977000D01*
X85575920Y-56977000D01*
X85919242Y-56908709D01*
X86308569Y-56648569D01*
X86335676Y-56608000D01*
X89315316Y-56608000D01*
X93022389Y-60315073D01*
X93067465Y-60382535D01*
X93134926Y-60427611D01*
X93134927Y-60427612D01*
X93166894Y-60448972D01*
X93334734Y-60561119D01*
X93570422Y-60608000D01*
X93570426Y-60608000D01*
X93649999Y-60623828D01*
X93729572Y-60608000D01*
X111970426Y-60608000D01*
X112050000Y-60623828D01*
X112129574Y-60608000D01*
X112129578Y-60608000D01*
X112365266Y-60561119D01*
X112632535Y-60382535D01*
X112677613Y-60315071D01*
X113305074Y-59687611D01*
X113372535Y-59642535D01*
X113551119Y-59375266D01*
X113598000Y-59139578D01*
X113598000Y-59139575D01*
X113613828Y-59060001D01*
X113598000Y-58980427D01*
X113598000Y-56335365D01*
X113640000Y-56335365D01*
X113806607Y-56302225D01*
X113947850Y-56207850D01*
X114042225Y-56066607D01*
X114075365Y-55900000D01*
X114075365Y-55358005D01*
X114247412Y-55773362D01*
X114395001Y-55920951D01*
X114395000Y-56707914D01*
X114376683Y-56800000D01*
X114395000Y-56892085D01*
X114449250Y-57164818D01*
X114655903Y-57474097D01*
X114733972Y-57526261D01*
X117353740Y-60146030D01*
X117405903Y-60224097D01*
X117485000Y-60276948D01*
X117485000Y-60507915D01*
X117485001Y-78907909D01*
X117466683Y-79000000D01*
X117485000Y-79092086D01*
X117485001Y-97292709D01*
X116562711Y-98215000D01*
X115577619Y-98215000D01*
X115563406Y-98205503D01*
X115400000Y-98173000D01*
X112203777Y-98173000D01*
X111902136Y-98113000D01*
X110997864Y-98113000D01*
X110695383Y-98173167D01*
X110516179Y-98292908D01*
X110446574Y-98321739D01*
X110393300Y-98375013D01*
X110352365Y-98402365D01*
X110325013Y-98443300D01*
X110299313Y-98469000D01*
X94732079Y-98469000D01*
X90931000Y-94667922D01*
X90931000Y-87019976D01*
X91035873Y-86915103D01*
X91177000Y-86574392D01*
X91177000Y-86205608D01*
X91035873Y-85864897D01*
X90916500Y-85745524D01*
X90916500Y-85012903D01*
X91063761Y-84865642D01*
X91212500Y-84506553D01*
X91212500Y-84117879D01*
X91063761Y-83758790D01*
X90916500Y-83611529D01*
X90916500Y-82935126D01*
X91063761Y-82787865D01*
X91212500Y-82428776D01*
X91212500Y-82040102D01*
X91063761Y-81681013D01*
X90881000Y-81498252D01*
X90881000Y-80972349D01*
X91028261Y-80825088D01*
X91177000Y-80465999D01*
X91177000Y-80077325D01*
X91028261Y-79718236D01*
X90881000Y-79570975D01*
X90881000Y-79100687D01*
X91028261Y-78953426D01*
X91177000Y-78594337D01*
X91177000Y-78205663D01*
X91028261Y-77846574D01*
X90881000Y-77699313D01*
X90881000Y-73271741D01*
X91063761Y-73088980D01*
X91212500Y-72729891D01*
X91212500Y-72341217D01*
X91063761Y-71982128D01*
X90916500Y-71834867D01*
X90916500Y-71158464D01*
X91063761Y-71011203D01*
X91212500Y-70652114D01*
X91212500Y-70263440D01*
X91063761Y-69904351D01*
X90916500Y-69757090D01*
X90916500Y-69080687D01*
X91063761Y-68933426D01*
X91212500Y-68574337D01*
X91212500Y-68185663D01*
X91063761Y-67826574D01*
X90788926Y-67551739D01*
X90429837Y-67403000D01*
X90041163Y-67403000D01*
X89682074Y-67551739D01*
X89407239Y-67826574D01*
X89258500Y-68185663D01*
X89258500Y-68574337D01*
X89407239Y-68933426D01*
X89554501Y-69080688D01*
X89554500Y-69757090D01*
X89407239Y-69904351D01*
X89258500Y-70263440D01*
X89258500Y-70652114D01*
X89407239Y-71011203D01*
X89554501Y-71158465D01*
X89554500Y-71834867D01*
X89407239Y-71982128D01*
X89258500Y-72341217D01*
X89258500Y-72729891D01*
X89407239Y-73088980D01*
X89519001Y-73200742D01*
X89519000Y-77699313D01*
X89371739Y-77846574D01*
X89223000Y-78205663D01*
X89223000Y-78594337D01*
X89371739Y-78953426D01*
X89519001Y-79100688D01*
X89519000Y-79570975D01*
X89371739Y-79718236D01*
X89223000Y-80077325D01*
X89223000Y-80465999D01*
X89371739Y-80825088D01*
X89519000Y-80972349D01*
X89519001Y-81569251D01*
X89407239Y-81681013D01*
X89258500Y-82040102D01*
X89258500Y-82428776D01*
X89407239Y-82787865D01*
X89554500Y-82935126D01*
X89554501Y-83611528D01*
X89407239Y-83758790D01*
X89258500Y-84117879D01*
X89258500Y-84506553D01*
X89407239Y-84865642D01*
X89554500Y-85012903D01*
X89554501Y-85774523D01*
X89464127Y-85864897D01*
X89323000Y-86205608D01*
X89323000Y-86574392D01*
X89464127Y-86915103D01*
X89569000Y-87019976D01*
X89569001Y-94882930D01*
X89555660Y-94950000D01*
X89608513Y-95215712D01*
X89652137Y-95281000D01*
X89759028Y-95440973D01*
X89815887Y-95478965D01*
X93921035Y-99584114D01*
X93959027Y-99640973D01*
X94184287Y-99791487D01*
X94382931Y-99831000D01*
X94382935Y-99831000D01*
X94450000Y-99844340D01*
X94517065Y-99831000D01*
X110299313Y-99831000D01*
X110325013Y-99856700D01*
X110352365Y-99897635D01*
X110393300Y-99924987D01*
X110446574Y-99978261D01*
X110516179Y-100007092D01*
X110695383Y-100126833D01*
X110997864Y-100187000D01*
X111902136Y-100187000D01*
X112203777Y-100127000D01*
X115400000Y-100127000D01*
X115563406Y-100094497D01*
X115577619Y-100085000D01*
X116857914Y-100085000D01*
X116950000Y-100103317D01*
X117042086Y-100085000D01*
X117314819Y-100030750D01*
X117624097Y-99824097D01*
X117676261Y-99746028D01*
X119016031Y-98406259D01*
X119094097Y-98354097D01*
X119300750Y-98044819D01*
X119355000Y-97772086D01*
X119373317Y-97680000D01*
X119355000Y-97587914D01*
X119355000Y-79975000D01*
X146273000Y-79975000D01*
X146273000Y-81020000D01*
X146285816Y-81123829D01*
X146357077Y-81274427D01*
X146817077Y-81894427D01*
X146963000Y-82008285D01*
X146963001Y-106349950D01*
X146913000Y-106470663D01*
X146913000Y-106859337D01*
X147061739Y-107218426D01*
X147336574Y-107493261D01*
X147695663Y-107642000D01*
X148084337Y-107642000D01*
X148386115Y-107517000D01*
X148413885Y-107517000D01*
X148715663Y-107642000D01*
X149104337Y-107642000D01*
X149406115Y-107517000D01*
X152111895Y-107517000D01*
X152375546Y-107780651D01*
X152616929Y-107880635D01*
X152232000Y-107880635D01*
X152065393Y-107913775D01*
X151924150Y-108008150D01*
X151829775Y-108149393D01*
X151796635Y-108316000D01*
X151796635Y-110094000D01*
X151829775Y-110260607D01*
X151924150Y-110401850D01*
X152065393Y-110496225D01*
X152232000Y-110529365D01*
X154010000Y-110529365D01*
X154176607Y-110496225D01*
X154317850Y-110401850D01*
X154412225Y-110260607D01*
X154445365Y-110094000D01*
X154445365Y-108316000D01*
X154412225Y-108149393D01*
X154317850Y-108008150D01*
X154176607Y-107913775D01*
X154010000Y-107880635D01*
X153625071Y-107880635D01*
X153866454Y-107780651D01*
X154236651Y-107410454D01*
X154263349Y-107346000D01*
X156977935Y-107346000D01*
X157045000Y-107359340D01*
X157112065Y-107346000D01*
X157112069Y-107346000D01*
X157310713Y-107306487D01*
X157535973Y-107155973D01*
X157573967Y-107099111D01*
X158644114Y-106028965D01*
X158700973Y-105990973D01*
X158851487Y-105765713D01*
X158891000Y-105567069D01*
X158891000Y-105567065D01*
X158904340Y-105500000D01*
X158891000Y-105432935D01*
X158891000Y-90063530D01*
X159207813Y-89746717D01*
X159387000Y-89314120D01*
X159387000Y-88845880D01*
X159207813Y-88413283D01*
X158891000Y-88096470D01*
X158891000Y-81193530D01*
X159207813Y-80876717D01*
X159387000Y-80444120D01*
X159387000Y-79975880D01*
X159207813Y-79543283D01*
X158876717Y-79212187D01*
X158444120Y-79033000D01*
X157975880Y-79033000D01*
X157543283Y-79212187D01*
X157212187Y-79543283D01*
X157033000Y-79975880D01*
X157033000Y-80444120D01*
X157212187Y-80876717D01*
X157529000Y-81193530D01*
X157529001Y-88096469D01*
X157212187Y-88413283D01*
X157033000Y-88845880D01*
X157033000Y-89314120D01*
X157212187Y-89746717D01*
X157529000Y-90063530D01*
X157529001Y-105217920D01*
X156762922Y-105984000D01*
X154263349Y-105984000D01*
X154236651Y-105919546D01*
X153866454Y-105549349D01*
X153382769Y-105349000D01*
X152859231Y-105349000D01*
X152375546Y-105549349D01*
X152261895Y-105663000D01*
X148817000Y-105663000D01*
X148817000Y-81992005D01*
X148891935Y-81941935D01*
X148984497Y-81803406D01*
X149017000Y-81640000D01*
X149017000Y-78540000D01*
X148984497Y-78376594D01*
X148891935Y-78238065D01*
X148753406Y-78145503D01*
X148590000Y-78113000D01*
X148205048Y-78113000D01*
X148084337Y-78063000D01*
X147695663Y-78063000D01*
X147594266Y-78105000D01*
X119355000Y-78105000D01*
X119355000Y-60358000D01*
X140802326Y-60358000D01*
X140784843Y-60369682D01*
X140784840Y-60369685D01*
X140738589Y-60400589D01*
X140707685Y-60446840D01*
X138246844Y-62907683D01*
X138200590Y-62938589D01*
X138169684Y-62984843D01*
X138169682Y-62984845D01*
X138078144Y-63121841D01*
X138035148Y-63338000D01*
X138046001Y-63392563D01*
X138046000Y-73195442D01*
X138035148Y-73250000D01*
X138046000Y-73304558D01*
X138046000Y-73304561D01*
X138078144Y-73466159D01*
X138200589Y-73649411D01*
X138246846Y-73680319D01*
X138467409Y-73900883D01*
X138538589Y-74007411D01*
X138584846Y-74038319D01*
X139809685Y-75263159D01*
X139840589Y-75309411D01*
X139886840Y-75340315D01*
X139886843Y-75340318D01*
X140023840Y-75431856D01*
X140185438Y-75464000D01*
X140185441Y-75464000D01*
X140239999Y-75474852D01*
X140294557Y-75464000D01*
X146032313Y-75464000D01*
X146306574Y-75738261D01*
X146665663Y-75887000D01*
X147054337Y-75887000D01*
X147413426Y-75738261D01*
X147688261Y-75463426D01*
X147837000Y-75104337D01*
X147837000Y-74715663D01*
X147688261Y-74356574D01*
X147413426Y-74081739D01*
X147054337Y-73933000D01*
X146665663Y-73933000D01*
X146557000Y-73978010D01*
X146557000Y-73655663D01*
X146408261Y-73296574D01*
X146133426Y-73021739D01*
X145798626Y-72883061D01*
X145828261Y-72853426D01*
X145977000Y-72494337D01*
X145977000Y-72105663D01*
X145828261Y-71746574D01*
X145553426Y-71471739D01*
X145194337Y-71323000D01*
X144805663Y-71323000D01*
X144446574Y-71471739D01*
X144172313Y-71746000D01*
X140829474Y-71746000D01*
X140508000Y-71424527D01*
X140508000Y-70843231D01*
X151805000Y-70843231D01*
X151805000Y-71366769D01*
X152005349Y-71850454D01*
X152375546Y-72220651D01*
X152748177Y-72375000D01*
X152375546Y-72529349D01*
X152005349Y-72899546D01*
X151805000Y-73383231D01*
X151805000Y-73906769D01*
X152005349Y-74390454D01*
X152375546Y-74760651D01*
X152748177Y-74915000D01*
X152375546Y-75069349D01*
X152005349Y-75439546D01*
X151805000Y-75923231D01*
X151805000Y-76446769D01*
X152005349Y-76930454D01*
X152375546Y-77300651D01*
X152748177Y-77455000D01*
X152375546Y-77609349D01*
X152005349Y-77979546D01*
X151805000Y-78463231D01*
X151805000Y-78986769D01*
X152005349Y-79470454D01*
X152375546Y-79840651D01*
X152748177Y-79995000D01*
X152375546Y-80149349D01*
X152005349Y-80519546D01*
X151805000Y-81003231D01*
X151805000Y-81526769D01*
X152005349Y-82010454D01*
X152375546Y-82380651D01*
X152748177Y-82535000D01*
X152375546Y-82689349D01*
X152005349Y-83059546D01*
X151805000Y-83543231D01*
X151805000Y-84066769D01*
X152005349Y-84550454D01*
X152375546Y-84920651D01*
X152748177Y-85075000D01*
X152375546Y-85229349D01*
X152005349Y-85599546D01*
X151805000Y-86083231D01*
X151805000Y-86606769D01*
X152005349Y-87090454D01*
X152375546Y-87460651D01*
X152748177Y-87615000D01*
X152375546Y-87769349D01*
X152005349Y-88139546D01*
X151805000Y-88623231D01*
X151805000Y-89146769D01*
X152005349Y-89630454D01*
X152375546Y-90000651D01*
X152748177Y-90155000D01*
X152375546Y-90309349D01*
X152005349Y-90679546D01*
X151805000Y-91163231D01*
X151805000Y-91686769D01*
X152005349Y-92170454D01*
X152375546Y-92540651D01*
X152748177Y-92695000D01*
X152375546Y-92849349D01*
X152005349Y-93219546D01*
X151805000Y-93703231D01*
X151805000Y-94226769D01*
X152005349Y-94710454D01*
X152375546Y-95080651D01*
X152748177Y-95235000D01*
X152375546Y-95389349D01*
X152005349Y-95759546D01*
X151805000Y-96243231D01*
X151805000Y-96766769D01*
X152005349Y-97250454D01*
X152375546Y-97620651D01*
X152748177Y-97775000D01*
X152375546Y-97929349D01*
X152005349Y-98299546D01*
X151805000Y-98783231D01*
X151805000Y-99306769D01*
X152005349Y-99790454D01*
X152375546Y-100160651D01*
X152748177Y-100315000D01*
X152375546Y-100469349D01*
X152005349Y-100839546D01*
X151805000Y-101323231D01*
X151805000Y-101846769D01*
X152005349Y-102330454D01*
X152375546Y-102700651D01*
X152859231Y-102901000D01*
X153382769Y-102901000D01*
X153866454Y-102700651D01*
X154236651Y-102330454D01*
X154437000Y-101846769D01*
X154437000Y-101323231D01*
X154236651Y-100839546D01*
X153866454Y-100469349D01*
X153493823Y-100315000D01*
X153866454Y-100160651D01*
X154236651Y-99790454D01*
X154437000Y-99306769D01*
X154437000Y-98783231D01*
X154236651Y-98299546D01*
X153866454Y-97929349D01*
X153493823Y-97775000D01*
X153866454Y-97620651D01*
X154236651Y-97250454D01*
X154437000Y-96766769D01*
X154437000Y-96243231D01*
X154236651Y-95759546D01*
X153866454Y-95389349D01*
X153493823Y-95235000D01*
X153866454Y-95080651D01*
X154236651Y-94710454D01*
X154437000Y-94226769D01*
X154437000Y-93703231D01*
X154236651Y-93219546D01*
X153866454Y-92849349D01*
X153493823Y-92695000D01*
X153866454Y-92540651D01*
X154236651Y-92170454D01*
X154437000Y-91686769D01*
X154437000Y-91163231D01*
X154236651Y-90679546D01*
X153866454Y-90309349D01*
X153493823Y-90155000D01*
X153866454Y-90000651D01*
X154236651Y-89630454D01*
X154437000Y-89146769D01*
X154437000Y-88623231D01*
X154236651Y-88139546D01*
X153866454Y-87769349D01*
X153493823Y-87615000D01*
X153866454Y-87460651D01*
X154236651Y-87090454D01*
X154437000Y-86606769D01*
X154437000Y-86083231D01*
X154236651Y-85599546D01*
X153866454Y-85229349D01*
X153493823Y-85075000D01*
X153866454Y-84920651D01*
X154236651Y-84550454D01*
X154437000Y-84066769D01*
X154437000Y-83543231D01*
X154236651Y-83059546D01*
X153866454Y-82689349D01*
X153493823Y-82535000D01*
X153866454Y-82380651D01*
X154236651Y-82010454D01*
X154437000Y-81526769D01*
X154437000Y-81003231D01*
X154236651Y-80519546D01*
X153866454Y-80149349D01*
X153493823Y-79995000D01*
X153866454Y-79840651D01*
X154236651Y-79470454D01*
X154437000Y-78986769D01*
X154437000Y-78463231D01*
X154236651Y-77979546D01*
X153866454Y-77609349D01*
X153493823Y-77455000D01*
X153866454Y-77300651D01*
X154236651Y-76930454D01*
X154437000Y-76446769D01*
X154437000Y-75923231D01*
X154236651Y-75439546D01*
X153866454Y-75069349D01*
X153493823Y-74915000D01*
X153866454Y-74760651D01*
X154236651Y-74390454D01*
X154437000Y-73906769D01*
X154437000Y-73383231D01*
X154236651Y-72899546D01*
X153866454Y-72529349D01*
X153493823Y-72375000D01*
X153866454Y-72220651D01*
X154236651Y-71850454D01*
X154437000Y-71366769D01*
X154437000Y-70843231D01*
X154236651Y-70359546D01*
X153866454Y-69989349D01*
X153382769Y-69789000D01*
X152859231Y-69789000D01*
X152375546Y-69989349D01*
X152005349Y-70359546D01*
X151805000Y-70843231D01*
X140508000Y-70843231D01*
X140508000Y-65960424D01*
X163677000Y-65960424D01*
X163677000Y-66627576D01*
X163932308Y-67243944D01*
X164404056Y-67715692D01*
X165020424Y-67971000D01*
X165687576Y-67971000D01*
X166303944Y-67715692D01*
X166775692Y-67243944D01*
X167031000Y-66627576D01*
X167031000Y-65960424D01*
X166775692Y-65344056D01*
X166303944Y-64872308D01*
X165687576Y-64617000D01*
X165020424Y-64617000D01*
X164404056Y-64872308D01*
X163932308Y-65344056D01*
X163677000Y-65960424D01*
X140508000Y-65960424D01*
X140508000Y-64725473D01*
X141979475Y-63254000D01*
X149952313Y-63254000D01*
X150226574Y-63528261D01*
X150585663Y-63677000D01*
X150974337Y-63677000D01*
X151333426Y-63528261D01*
X151608261Y-63253426D01*
X151757000Y-62894337D01*
X151757000Y-62505663D01*
X151673469Y-62304000D01*
X155468313Y-62304000D01*
X155742574Y-62578261D01*
X156101663Y-62727000D01*
X156490337Y-62727000D01*
X156849426Y-62578261D01*
X157124261Y-62303426D01*
X157273000Y-61944337D01*
X157273000Y-61555663D01*
X157189469Y-61354000D01*
X157422313Y-61354000D01*
X157696574Y-61628261D01*
X158055663Y-61777000D01*
X158444337Y-61777000D01*
X158803426Y-61628261D01*
X159078261Y-61353426D01*
X159227000Y-60994337D01*
X159227000Y-60605663D01*
X159078261Y-60246574D01*
X158803426Y-59971739D01*
X158444337Y-59823000D01*
X158055663Y-59823000D01*
X157696574Y-59971739D01*
X157422313Y-60246000D01*
X152512723Y-60246000D01*
X152682535Y-60132535D01*
X152727613Y-60065071D01*
X154232405Y-58560280D01*
X154299867Y-58515203D01*
X154355203Y-58432388D01*
X154478451Y-58247934D01*
X154541161Y-57932668D01*
X154525332Y-57853090D01*
X154525332Y-56277000D01*
X154826313Y-56277000D01*
X154846574Y-56297261D01*
X155205663Y-56446000D01*
X155594337Y-56446000D01*
X155953426Y-56297261D01*
X155973687Y-56277000D01*
X156995977Y-56277000D01*
X157016238Y-56297261D01*
X157375327Y-56446000D01*
X157764001Y-56446000D01*
X158123090Y-56297261D01*
X158143351Y-56277000D01*
X160923471Y-56277000D01*
X161227663Y-56403000D01*
X161616337Y-56403000D01*
X161975426Y-56254261D01*
X162250261Y-55979426D01*
X162399000Y-55620337D01*
X162399000Y-55231663D01*
X162250261Y-54872574D01*
X161975426Y-54597739D01*
X161616337Y-54449000D01*
X161227663Y-54449000D01*
X160868574Y-54597739D01*
X160805313Y-54661000D01*
X158143351Y-54661000D01*
X158123090Y-54640739D01*
X157764001Y-54492000D01*
X157375327Y-54492000D01*
X157016238Y-54640739D01*
X156995977Y-54661000D01*
X155973687Y-54661000D01*
X155953426Y-54640739D01*
X155594337Y-54492000D01*
X155205663Y-54492000D01*
X154846574Y-54640739D01*
X154826313Y-54661000D01*
X154291019Y-54661000D01*
X154270758Y-54640739D01*
X153911669Y-54492000D01*
X153522995Y-54492000D01*
X153163906Y-54640739D01*
X152889071Y-54915574D01*
X152740332Y-55274663D01*
X152740332Y-55663337D01*
X152889071Y-56022426D01*
X152909332Y-56042687D01*
X152909333Y-57597982D01*
X151765316Y-58742000D01*
X148784287Y-58742000D01*
X148599813Y-58250070D01*
X148501935Y-58098065D01*
X148363406Y-58005503D01*
X148200000Y-57973000D01*
X147500000Y-57973000D01*
X147360042Y-57996589D01*
X147216317Y-58080856D01*
X146472530Y-58742000D01*
X118594290Y-58742000D01*
X116265000Y-56412711D01*
X116265000Y-55920950D01*
X116412588Y-55773362D01*
X116607000Y-55304011D01*
X116607000Y-54795989D01*
X116412588Y-54326638D01*
X116107000Y-54021050D01*
X116107000Y-53928687D01*
X116256574Y-54078261D01*
X116615663Y-54227000D01*
X117004337Y-54227000D01*
X117363426Y-54078261D01*
X117618687Y-53823000D01*
X119933366Y-53823000D01*
X119664546Y-53934349D01*
X119294349Y-54304546D01*
X119094000Y-54788231D01*
X119094000Y-55311769D01*
X119294349Y-55795454D01*
X119664546Y-56165651D01*
X120148231Y-56366000D01*
X120671769Y-56366000D01*
X121155454Y-56165651D01*
X121525651Y-55795454D01*
X121680000Y-55422823D01*
X121834349Y-55795454D01*
X122204546Y-56165651D01*
X122688231Y-56366000D01*
X123211769Y-56366000D01*
X123695454Y-56165651D01*
X124065651Y-55795454D01*
X124220000Y-55422823D01*
X124374349Y-55795454D01*
X124744546Y-56165651D01*
X125228231Y-56366000D01*
X125751769Y-56366000D01*
X126235454Y-56165651D01*
X126605651Y-55795454D01*
X126760000Y-55422823D01*
X126914349Y-55795454D01*
X127284546Y-56165651D01*
X127768231Y-56366000D01*
X128291769Y-56366000D01*
X128775454Y-56165651D01*
X129145651Y-55795454D01*
X129300000Y-55422823D01*
X129454349Y-55795454D01*
X129824546Y-56165651D01*
X130308231Y-56366000D01*
X130831769Y-56366000D01*
X131315454Y-56165651D01*
X131685651Y-55795454D01*
X131840000Y-55422823D01*
X131994349Y-55795454D01*
X132364546Y-56165651D01*
X132848231Y-56366000D01*
X133371769Y-56366000D01*
X133855454Y-56165651D01*
X134225651Y-55795454D01*
X134380000Y-55422823D01*
X134534349Y-55795454D01*
X134904546Y-56165651D01*
X135388231Y-56366000D01*
X135911769Y-56366000D01*
X136395454Y-56165651D01*
X136765651Y-55795454D01*
X136920000Y-55422823D01*
X137074349Y-55795454D01*
X137444546Y-56165651D01*
X137928231Y-56366000D01*
X138451769Y-56366000D01*
X138935454Y-56165651D01*
X139305651Y-55795454D01*
X139460000Y-55422823D01*
X139614349Y-55795454D01*
X139984546Y-56165651D01*
X140468231Y-56366000D01*
X140991769Y-56366000D01*
X141475454Y-56165651D01*
X141845651Y-55795454D01*
X142000000Y-55422823D01*
X142154349Y-55795454D01*
X142524546Y-56165651D01*
X142693001Y-56235427D01*
X142693001Y-56713168D01*
X142681696Y-56770000D01*
X142705981Y-56892085D01*
X142726479Y-56995134D01*
X142854007Y-57185994D01*
X142902186Y-57218186D01*
X143352183Y-57668184D01*
X143494865Y-57763521D01*
X143719999Y-57808304D01*
X143892454Y-57774000D01*
X150975442Y-57774000D01*
X151030000Y-57784852D01*
X151084558Y-57774000D01*
X151084562Y-57774000D01*
X151246160Y-57741856D01*
X151429411Y-57619411D01*
X151460319Y-57573154D01*
X151646473Y-57387000D01*
X152034337Y-57387000D01*
X152393426Y-57238261D01*
X152668261Y-56963426D01*
X152817000Y-56604337D01*
X152817000Y-56215663D01*
X152668261Y-55856574D01*
X152393426Y-55581739D01*
X152034337Y-55433000D01*
X151645663Y-55433000D01*
X151286574Y-55581739D01*
X151011739Y-55856574D01*
X150863000Y-56215663D01*
X150863000Y-56603527D01*
X150800527Y-56666000D01*
X143982001Y-56666000D01*
X143847000Y-56531000D01*
X143847000Y-56235427D01*
X144015454Y-56165651D01*
X144385651Y-55795454D01*
X144540000Y-55422823D01*
X144694349Y-55795454D01*
X145064546Y-56165651D01*
X145548231Y-56366000D01*
X146071769Y-56366000D01*
X146555454Y-56165651D01*
X146925651Y-55795454D01*
X147126000Y-55311769D01*
X147126000Y-54788231D01*
X146925651Y-54304546D01*
X146555454Y-53934349D01*
X146286634Y-53823000D01*
X151942313Y-53823000D01*
X152216574Y-54097261D01*
X152575663Y-54246000D01*
X152964337Y-54246000D01*
X153323426Y-54097261D01*
X153598261Y-53822426D01*
X153747000Y-53463337D01*
X153747000Y-53074663D01*
X153718420Y-53005663D01*
X156523000Y-53005663D01*
X156523000Y-53394337D01*
X156671739Y-53753426D01*
X156946574Y-54028261D01*
X157305663Y-54177000D01*
X157694337Y-54177000D01*
X158053426Y-54028261D01*
X158328261Y-53753426D01*
X158477000Y-53394337D01*
X158477000Y-53005663D01*
X158328261Y-52646574D01*
X158053426Y-52371739D01*
X157694337Y-52223000D01*
X157305663Y-52223000D01*
X156946574Y-52371739D01*
X156671739Y-52646574D01*
X156523000Y-53005663D01*
X153718420Y-53005663D01*
X153598261Y-52715574D01*
X153323426Y-52440739D01*
X152964337Y-52292000D01*
X152575663Y-52292000D01*
X152216574Y-52440739D01*
X151942313Y-52715000D01*
X150511687Y-52715000D01*
X150693261Y-52533426D01*
X150842000Y-52174337D01*
X150842000Y-51805663D01*
X158523000Y-51805663D01*
X158523000Y-52194337D01*
X158671739Y-52553426D01*
X158946574Y-52828261D01*
X159305663Y-52977000D01*
X159694337Y-52977000D01*
X160053426Y-52828261D01*
X160328261Y-52553426D01*
X160477000Y-52194337D01*
X160477000Y-51805663D01*
X160328261Y-51446574D01*
X160053426Y-51171739D01*
X159694337Y-51023000D01*
X159305663Y-51023000D01*
X158946574Y-51171739D01*
X158671739Y-51446574D01*
X158523000Y-51805663D01*
X150842000Y-51805663D01*
X150842000Y-51785663D01*
X150787464Y-51654000D01*
X157457677Y-51654000D01*
X157512235Y-51664852D01*
X157566793Y-51654000D01*
X157566797Y-51654000D01*
X157728395Y-51621856D01*
X157911646Y-51499411D01*
X157942554Y-51453155D01*
X158350159Y-51045551D01*
X158396411Y-51014646D01*
X158427315Y-50968395D01*
X158427318Y-50968392D01*
X158471049Y-50902944D01*
X158518856Y-50831395D01*
X158551000Y-50669797D01*
X158551000Y-50669792D01*
X158561852Y-50615236D01*
X158551000Y-50560679D01*
X158551000Y-50552954D01*
X158742454Y-50473651D01*
X159112651Y-50103454D01*
X159267000Y-49730823D01*
X159421349Y-50103454D01*
X159791546Y-50473651D01*
X160275231Y-50674000D01*
X160798769Y-50674000D01*
X161282454Y-50473651D01*
X161652651Y-50103454D01*
X161853000Y-49619769D01*
X161853000Y-49096231D01*
X161652651Y-48612546D01*
X161282454Y-48242349D01*
X161041071Y-48142365D01*
X161426000Y-48142365D01*
X161592607Y-48109225D01*
X161733850Y-48014850D01*
X161828225Y-47873607D01*
X161861365Y-47707000D01*
X161861365Y-45929000D01*
X161828225Y-45762393D01*
X161733850Y-45621150D01*
X161592607Y-45526775D01*
X161426000Y-45493635D01*
X159648000Y-45493635D01*
X159481393Y-45526775D01*
X159340150Y-45621150D01*
X159245775Y-45762393D01*
X159212635Y-45929000D01*
X159212635Y-46313929D01*
X159112651Y-46072546D01*
X158742454Y-45702349D01*
X158258769Y-45502000D01*
X157735231Y-45502000D01*
X157251546Y-45702349D01*
X156881349Y-46072546D01*
X156727000Y-46445177D01*
X156572651Y-46072546D01*
X156202454Y-45702349D01*
X155718769Y-45502000D01*
X155195231Y-45502000D01*
X154711546Y-45702349D01*
X154341349Y-46072546D01*
X154187000Y-46445177D01*
X154032651Y-46072546D01*
X153662454Y-45702349D01*
X153178769Y-45502000D01*
X152655231Y-45502000D01*
X152171546Y-45702349D01*
X151801349Y-46072546D01*
X151647000Y-46445177D01*
X151492651Y-46072546D01*
X151122454Y-45702349D01*
X150638769Y-45502000D01*
X150115231Y-45502000D01*
X149631546Y-45702349D01*
X149261349Y-46072546D01*
X149061000Y-46556231D01*
X149061000Y-47079769D01*
X149261349Y-47563454D01*
X149631546Y-47933651D01*
X150115231Y-48134000D01*
X150638769Y-48134000D01*
X151122454Y-47933651D01*
X151492651Y-47563454D01*
X151647000Y-47190823D01*
X151801349Y-47563454D01*
X152171546Y-47933651D01*
X152544177Y-48088000D01*
X152171546Y-48242349D01*
X151801349Y-48612546D01*
X151601000Y-49096231D01*
X151601000Y-49619769D01*
X151801349Y-50103454D01*
X152171546Y-50473651D01*
X152346212Y-50546000D01*
X146799150Y-50546000D01*
X146708261Y-50326574D01*
X146433426Y-50051739D01*
X146074337Y-49903000D01*
X145685663Y-49903000D01*
X145326574Y-50051739D01*
X145051739Y-50326574D01*
X144903000Y-50685663D01*
X144903000Y-51074337D01*
X145048663Y-51426000D01*
X139407687Y-51426000D01*
X139203426Y-51221739D01*
X138844337Y-51073000D01*
X138455663Y-51073000D01*
X138096574Y-51221739D01*
X137821739Y-51496574D01*
X137673000Y-51855663D01*
X137673000Y-52244337D01*
X137821739Y-52603426D01*
X137933313Y-52715000D01*
X117645893Y-52715000D01*
X117638261Y-52696574D01*
X117363426Y-52421739D01*
X117004337Y-52273000D01*
X116615663Y-52273000D01*
X116256574Y-52421739D01*
X116107000Y-52571313D01*
X116107000Y-48231843D01*
X116561844Y-47777000D01*
X117213000Y-47777000D01*
X117213000Y-47954337D01*
X117273000Y-48099190D01*
X117273000Y-48400000D01*
X117305503Y-48563406D01*
X117398065Y-48701935D01*
X117536594Y-48794497D01*
X117700000Y-48827000D01*
X118700000Y-48827000D01*
X118863406Y-48794497D01*
X119001935Y-48701935D01*
X119094497Y-48563406D01*
X119127000Y-48400000D01*
X119127000Y-48050906D01*
X119167000Y-47954337D01*
X119167000Y-47565663D01*
X119127000Y-47469094D01*
X119127000Y-46500000D01*
X119094497Y-46336594D01*
X119001935Y-46198065D01*
X118863406Y-46105503D01*
X118700000Y-46073000D01*
X118465048Y-46073000D01*
X118344337Y-46023000D01*
X117955663Y-46023000D01*
X117834952Y-46073000D01*
X117700000Y-46073000D01*
X117536594Y-46105503D01*
X117398065Y-46198065D01*
X117381404Y-46223000D01*
X116316524Y-46223000D01*
X116239999Y-46207778D01*
X116163474Y-46223000D01*
X115936830Y-46268082D01*
X115679814Y-46439814D01*
X115636464Y-46504692D01*
X114834693Y-47306464D01*
X114769815Y-47349814D01*
X114633766Y-47553426D01*
X114598083Y-47606830D01*
X114537778Y-47910000D01*
X114553001Y-47986530D01*
X114553000Y-54021050D01*
X114247412Y-54326638D01*
X114075365Y-54741995D01*
X114075365Y-54200000D01*
X114042225Y-54033393D01*
X113947850Y-53892150D01*
X113806607Y-53797775D01*
X113640000Y-53764635D01*
X113598000Y-53764635D01*
X113598000Y-45294684D01*
X115134685Y-43758000D01*
X126592707Y-43758000D01*
X126845383Y-43926833D01*
X127147864Y-43987000D01*
X128127136Y-43987000D01*
X128429617Y-43926833D01*
X128682293Y-43758000D01*
X138472775Y-43758000D01*
X138755383Y-43946833D01*
X139057864Y-44007000D01*
X139977869Y-44007000D01*
X140080000Y-44027315D01*
X140182131Y-44007000D01*
X140182136Y-44007000D01*
X140484617Y-43946833D01*
X140827635Y-43717635D01*
X140885492Y-43631046D01*
X140905490Y-43611048D01*
X141076832Y-43354618D01*
X141157315Y-42950001D01*
X141076832Y-42545383D01*
X140847635Y-42202365D01*
X140504617Y-41973168D01*
X140099999Y-41892685D01*
X139897321Y-41933000D01*
X139057864Y-41933000D01*
X138755383Y-41993167D01*
X138532639Y-42142000D01*
X128682293Y-42142000D01*
X128429617Y-41973167D01*
X128127136Y-41913000D01*
X127147864Y-41913000D01*
X126845383Y-41973167D01*
X126592707Y-42142000D01*
X114879572Y-42142000D01*
X114799999Y-42126172D01*
X114720426Y-42142000D01*
X114720422Y-42142000D01*
X114484734Y-42188881D01*
X114217465Y-42367465D01*
X114172388Y-42434927D01*
X112274929Y-44332387D01*
X112207465Y-44377465D01*
X112028881Y-44644735D01*
X111982000Y-44880423D01*
X111982000Y-44880426D01*
X111966172Y-44960000D01*
X111982000Y-45039574D01*
X111982001Y-53764635D01*
X111940000Y-53764635D01*
X111773393Y-53797775D01*
X111632150Y-53892150D01*
X111537775Y-54033393D01*
X111504635Y-54200000D01*
X111504635Y-55900000D01*
X111537775Y-56066607D01*
X111632150Y-56207850D01*
X111773393Y-56302225D01*
X111940000Y-56335365D01*
X111982001Y-56335365D01*
X111982000Y-58725315D01*
X111715316Y-58992000D01*
X93984685Y-58992000D01*
X90277613Y-55284929D01*
X90232535Y-55217465D01*
X89965266Y-55038881D01*
X89729578Y-54992000D01*
X89729574Y-54992000D01*
X89650000Y-54976172D01*
X89570426Y-54992000D01*
X86335676Y-54992000D01*
X86308569Y-54951431D01*
X85919242Y-54691291D01*
X85575920Y-54623000D01*
X83844080Y-54623000D01*
X83500758Y-54691291D01*
X83228811Y-54873000D01*
X82301300Y-54873000D01*
X82209999Y-54854839D01*
X82118699Y-54873000D01*
X82118698Y-54873000D01*
X81848303Y-54926785D01*
X81541670Y-55131670D01*
X81489951Y-55209073D01*
X77709076Y-58989949D01*
X77631670Y-59041670D01*
X77426785Y-59348304D01*
X77373324Y-59617069D01*
X77354839Y-59710000D01*
X71502000Y-59710000D01*
X71502000Y-54193935D01*
X95353000Y-54193935D01*
X95353000Y-54682065D01*
X95539800Y-55133039D01*
X95884961Y-55478200D01*
X96335935Y-55665000D01*
X96824065Y-55665000D01*
X97275039Y-55478200D01*
X97620200Y-55133039D01*
X97807000Y-54682065D01*
X97807000Y-54193935D01*
X97893000Y-54193935D01*
X97893000Y-54682065D01*
X98079800Y-55133039D01*
X98424961Y-55478200D01*
X98875935Y-55665000D01*
X99364065Y-55665000D01*
X99815039Y-55478200D01*
X100160200Y-55133039D01*
X100347000Y-54682065D01*
X100347000Y-54193935D01*
X102973000Y-54193935D01*
X102973000Y-54682065D01*
X103159800Y-55133039D01*
X103504961Y-55478200D01*
X103955935Y-55665000D01*
X104444065Y-55665000D01*
X104895039Y-55478200D01*
X105240200Y-55133039D01*
X105427000Y-54682065D01*
X105427000Y-54193935D01*
X105240200Y-53742961D01*
X104895039Y-53397800D01*
X104444065Y-53211000D01*
X103955935Y-53211000D01*
X103504961Y-53397800D01*
X103159800Y-53742961D01*
X102973000Y-54193935D01*
X100347000Y-54193935D01*
X100160200Y-53742961D01*
X99815039Y-53397800D01*
X99364065Y-53211000D01*
X98875935Y-53211000D01*
X98424961Y-53397800D01*
X98079800Y-53742961D01*
X97893000Y-54193935D01*
X97807000Y-54193935D01*
X97620200Y-53742961D01*
X97275039Y-53397800D01*
X96824065Y-53211000D01*
X96335935Y-53211000D01*
X95884961Y-53397800D01*
X95539800Y-53742961D01*
X95353000Y-54193935D01*
X71502000Y-54193935D01*
X71502000Y-51653935D01*
X96623000Y-51653935D01*
X96623000Y-52142065D01*
X96809800Y-52593039D01*
X97154961Y-52938200D01*
X97605935Y-53125000D01*
X98094065Y-53125000D01*
X98545039Y-52938200D01*
X98890200Y-52593039D01*
X99077000Y-52142065D01*
X99077000Y-51653935D01*
X101703000Y-51653935D01*
X101703000Y-52142065D01*
X101889800Y-52593039D01*
X102234961Y-52938200D01*
X102685935Y-53125000D01*
X103174065Y-53125000D01*
X103625039Y-52938200D01*
X103970200Y-52593039D01*
X104157000Y-52142065D01*
X104157000Y-51653935D01*
X104243000Y-51653935D01*
X104243000Y-52142065D01*
X104429800Y-52593039D01*
X104774961Y-52938200D01*
X105225935Y-53125000D01*
X105714065Y-53125000D01*
X106165039Y-52938200D01*
X106510200Y-52593039D01*
X106697000Y-52142065D01*
X106697000Y-51653935D01*
X106510200Y-51202961D01*
X106165039Y-50857800D01*
X105714065Y-50671000D01*
X105225935Y-50671000D01*
X104774961Y-50857800D01*
X104429800Y-51202961D01*
X104243000Y-51653935D01*
X104157000Y-51653935D01*
X103970200Y-51202961D01*
X103625039Y-50857800D01*
X103174065Y-50671000D01*
X102685935Y-50671000D01*
X102234961Y-50857800D01*
X101889800Y-51202961D01*
X101703000Y-51653935D01*
X99077000Y-51653935D01*
X98890200Y-51202961D01*
X98545039Y-50857800D01*
X98094065Y-50671000D01*
X97605935Y-50671000D01*
X97154961Y-50857800D01*
X96809800Y-51202961D01*
X96623000Y-51653935D01*
X71502000Y-51653935D01*
X71502000Y-44136257D01*
X78785974Y-44136257D01*
X78785974Y-44659795D01*
X78986323Y-45143480D01*
X79356520Y-45513677D01*
X79840205Y-45714026D01*
X80363743Y-45714026D01*
X80847428Y-45513677D01*
X81217625Y-45143480D01*
X81229435Y-45114968D01*
X93158000Y-45114968D01*
X93158000Y-45981032D01*
X93489428Y-46781171D01*
X94101829Y-47393572D01*
X94901968Y-47725000D01*
X95768032Y-47725000D01*
X96568171Y-47393572D01*
X97180572Y-46781171D01*
X97512000Y-45981032D01*
X97512000Y-45114968D01*
X104588000Y-45114968D01*
X104588000Y-45981032D01*
X104919428Y-46781171D01*
X105531829Y-47393572D01*
X106331968Y-47725000D01*
X107198032Y-47725000D01*
X107998171Y-47393572D01*
X108610572Y-46781171D01*
X108942000Y-45981032D01*
X108942000Y-45114968D01*
X108610572Y-44314829D01*
X107998171Y-43702428D01*
X107198032Y-43371000D01*
X106331968Y-43371000D01*
X105531829Y-43702428D01*
X104919428Y-44314829D01*
X104588000Y-45114968D01*
X97512000Y-45114968D01*
X97180572Y-44314829D01*
X96568171Y-43702428D01*
X95768032Y-43371000D01*
X94901968Y-43371000D01*
X94101829Y-43702428D01*
X93489428Y-44314829D01*
X93158000Y-45114968D01*
X81229435Y-45114968D01*
X81417974Y-44659795D01*
X81417974Y-44136257D01*
X81242518Y-43712668D01*
X81644015Y-43878974D01*
X82152037Y-43878974D01*
X82621388Y-43684562D01*
X82980614Y-43325336D01*
X83175026Y-42855985D01*
X83175026Y-42347963D01*
X82987614Y-41895511D01*
X83440066Y-42082923D01*
X83948088Y-42082923D01*
X84417439Y-41888511D01*
X84776665Y-41529285D01*
X84971077Y-41059934D01*
X84971077Y-40551912D01*
X84901544Y-40384043D01*
X93098000Y-40384043D01*
X93098000Y-40911957D01*
X93300024Y-41399685D01*
X93673315Y-41772976D01*
X94161043Y-41975000D01*
X94688957Y-41975000D01*
X95176685Y-41772976D01*
X95549976Y-41399685D01*
X95695000Y-41049567D01*
X95840024Y-41399685D01*
X96213315Y-41772976D01*
X96701043Y-41975000D01*
X97228957Y-41975000D01*
X97716685Y-41772976D01*
X98089976Y-41399685D01*
X98292000Y-40911957D01*
X98292000Y-40384043D01*
X103808000Y-40384043D01*
X103808000Y-40911957D01*
X104010024Y-41399685D01*
X104383315Y-41772976D01*
X104871043Y-41975000D01*
X105398957Y-41975000D01*
X105886685Y-41772976D01*
X106259976Y-41399685D01*
X106405000Y-41049567D01*
X106550024Y-41399685D01*
X106923315Y-41772976D01*
X107411043Y-41975000D01*
X107938957Y-41975000D01*
X108426685Y-41772976D01*
X108799976Y-41399685D01*
X109002000Y-40911957D01*
X109002000Y-40384043D01*
X108799976Y-39896315D01*
X108426685Y-39523024D01*
X107938957Y-39321000D01*
X107411043Y-39321000D01*
X106923315Y-39523024D01*
X106550024Y-39896315D01*
X106405000Y-40246433D01*
X106259976Y-39896315D01*
X105886685Y-39523024D01*
X105398957Y-39321000D01*
X104871043Y-39321000D01*
X104383315Y-39523024D01*
X104010024Y-39896315D01*
X103808000Y-40384043D01*
X98292000Y-40384043D01*
X98089976Y-39896315D01*
X97716685Y-39523024D01*
X97228957Y-39321000D01*
X96701043Y-39321000D01*
X96213315Y-39523024D01*
X95840024Y-39896315D01*
X95695000Y-40246433D01*
X95549976Y-39896315D01*
X95176685Y-39523024D01*
X94688957Y-39321000D01*
X94161043Y-39321000D01*
X93673315Y-39523024D01*
X93300024Y-39896315D01*
X93098000Y-40384043D01*
X84901544Y-40384043D01*
X84776665Y-40082561D01*
X84417439Y-39723335D01*
X83948088Y-39528923D01*
X83440066Y-39528923D01*
X82970715Y-39723335D01*
X82611489Y-40082561D01*
X82417077Y-40551912D01*
X82417077Y-41059934D01*
X82604489Y-41512386D01*
X82152037Y-41324974D01*
X81644015Y-41324974D01*
X81174664Y-41519386D01*
X80815438Y-41878612D01*
X80621026Y-42347963D01*
X80621026Y-42855985D01*
X80787332Y-43257482D01*
X80363743Y-43082026D01*
X79840205Y-43082026D01*
X79356520Y-43282375D01*
X78986323Y-43652572D01*
X78785974Y-44136257D01*
X71502000Y-44136257D01*
X71502000Y-42116277D01*
X72350692Y-42964969D01*
X74069687Y-43677000D01*
X75930313Y-43677000D01*
X77649308Y-42964969D01*
X78964969Y-41649308D01*
X79677000Y-39930313D01*
X79677000Y-38069687D01*
X78964969Y-36350692D01*
X78116277Y-35502000D01*
X163883723Y-35502000D01*
X163035031Y-36350692D01*
G04 #@! TD*
M02*
