M48
;DRILL file {KiCad (5.0.2)-1} date 31/05/2019 8:04:04 SA
;FORMAT={-:-/ absolute / inch / decimal}
FMAT,2
INCH,TZ
T1C0.0118
T2C0.0197
T3C0.0236
T4C0.0256
T5C0.0276
T6C0.0394
T7C0.0472
T8C0.0606
T9C0.0709
T10C0.0866
T11C0.1102
T12C0.1339
%
G90
G05
T1
X4.6146Y-2.8008
X5.565Y-2.7598
X5.5669Y-2.6654
X5.5673Y-2.7118
X6.1034Y-2.7494
X6.6752Y-3.565
X4.563Y-3.128
X6.3622Y-3.565
X6.5187Y-3.565
X5.9402Y-3.4488
T2
X3.5531Y-3.4012
X6.248Y-4.4449
X5.4138Y-1.8665
X4.4959Y-4.2315
X4.4161Y-1.4528
X5.8858Y-4.4331
X3.8177Y-3.7697
X4.7555Y-1.8669
X5.7445Y-1.7281
X4.3677Y-4.4264
X3.9705Y-1.9173
X6.35Y-2.89
X6.6516Y-1.8524
X6.5715Y-3.2343
X6.4678Y-3.2343
X6.42Y-2.38
X3.2425Y-4.4154
X2.9291Y-1.8386
X5.6713Y-2.5886
X6.2244Y-2.9469
X5.7087Y-4.0945
X5.0861Y-2.2701
X5.89Y-2.99
X4.5583Y-2.8059
X4.8012Y-4.4656
X2.8661Y-2.6913
X4.7118Y-4.2315
X5.6339Y-4.4331
X2.9988Y-2.6913
X5.93Y-2.85
X6.4606Y-2.1161
X3.978Y-2.9354
X5.7445Y-1.5904
X4.1705Y-4.4272
X3.7795Y-1.4331
X6.67Y-2.29
X5.8169Y-2.7461
X6.6516Y-2.0846
X6.2866Y-4.2087
X4.9811Y-2.2701
X6.47Y-2.31
X3.113Y-4.3665
X6.7Y-2.61
X4.4803Y-2.4567
X5.5925Y-2.2697
X5.6339Y-4.3031
X5.3861Y-2.2701
X6.24Y-2.87
X5.1937Y-1.8669
X3.905Y-2.24
X4.9012Y-4.4656
X3.2925Y-2.6913
X4.2799Y-4.2315
X5.75Y-4.3031
X3.2469Y-3.1484
X6.6173Y-4.3118
X6.4626Y-1.7874
X3.4Y-2.6571
X5.5231Y-1.4528
X4.2205Y-1.4331
X6.32Y-2.41
X6.41Y-2.83
X4.1575Y-4.3071
X6.3642Y-3.9331
X4.8861Y-2.2701
X6.6Y-2.34
X5.1012Y-4.4656
X3.8504Y-1.9173
X5.2861Y-2.2701
X5.9402Y-3.3528
X3.7106Y-2.5531
X3.2425Y-4.5411
X5.5236Y-4.0079
X5.7244Y-2.5453
X5.9402Y-3.274
X4.3169Y-2.2402
X4.6543Y-4.078
X4.6012Y-4.4656
X3.8815Y-2.9354
X2.9512Y-3.7597
X5.9402Y-3.95
X4.8358Y-1.8669
X2.9512Y-3.6269
X3.7736Y-3.7421
X3.4874Y-2.6134
X5.0803Y-1.4528
X3.5Y-1.7008
X6.4882Y-2.8878
X6.561Y-1.9724
X6.52Y-2.41
X3.3898Y-4.6654
X4.7861Y-2.2701
X6.67Y-2.19
X5.2012Y-4.4656
X6.55Y-2.24
X6.372Y-4.4449
X3.9705Y-1.8071
X3.8059Y-4.6669
X5.9402Y-3.85
X2.9291Y-1.9882
X4.475Y-2.605
X5.9402Y-3.6469
X4.5433Y-2.5157
X2.9512Y-3.8925
X4.1Y-2.24
X4.6038Y-4.2315
X6.6614Y-2.9902
X5.3037Y-1.8669
X5.352Y-4.389
X6.6732Y-3.9331
X5.3017Y-1.4528
X2.9512Y-3.4941
X6.4626Y-2.0138
X5.7445Y-1.4528
X4.0039Y-1.4331
X6.2953Y-2.939
X6.5728Y-2.83
X6.5551Y-2.1083
X6.46Y-2.22
X6.6516Y-1.9705
X4.085Y-3.4217
X5.6654Y-2.528
X4.6911Y-2.2701
X6.3Y-2.8
X3.9705Y-1.6969
X4.2691Y-4.4264
X6.128Y-4.4449
X3.0787Y-1.9882
X4.21Y-2.61
X3.9528Y-3.4217
X5.3661Y-4.2913
X5.75Y-4.4331
X4.9177Y-1.8669
X4.2173Y-3.4217
X6.6752Y-3.2343
X3.176Y-2.6913
X3.2476Y-2.9488
X4.6375Y-1.4528
X6.4626Y-1.8957
X4.0906Y-1.9173
X4.8589Y-1.4528
X3.5Y-1.4331
X6.2185Y-2.4783
X6.69Y-2.83
X6.0909Y-2.4783
X6.561Y-1.8189
X6.65Y-2.91
X5.0012Y-4.4656
X6.1925Y-2.7917
X4.4469Y-3.1614
X4.3976Y-2.437
X5.4811Y-2.2701
X3.2425Y-4.6669
X5.7087Y-4.0039
X4.42Y-2.82
X5.9402Y-3.7484
X4.4016Y-2.5276
X4.3879Y-4.2315
X6.3642Y-3.2343
X3.8453Y-3.0945
X4.7012Y-4.4656
X5.6472Y-1.8657
X3.2461Y-3.0486
X3.5242Y-4.6669
X5.7445Y-1.8657
X6.6516Y-1.7461
X3.3346Y-1.4331
X3.5Y-1.5669
X6.67Y-2.41
X3.3898Y-4.5433
X3.976Y-3.0945
X3.785Y-2.9346
X3.2445Y-3.426
X6.5728Y-2.8937
X5.1929Y-2.2701
X5.9402Y-3.5429
T3
X2.8606Y-3.8953
X3.0409Y-3.8965
X3.276Y-4.0484
X3.2799Y-4.2004
X3.3394Y-3.4252
X3.3409Y-4.2764
X3.4252Y-4.0244
X3.4339Y-3.6398
X3.4339Y-3.6755
X3.4339Y-3.7112
X3.4339Y-3.7469
X3.4449Y-4.063
X3.4736Y-2.2894
X3.4807Y-4.2126
X3.487Y-2.1268
X3.4898Y-4.3909
X3.4917Y-4.4307
X3.5114Y-4.1535
X3.5508Y-2.3933
X3.5512Y-3.0866
X3.5512Y-3.1603
X3.5526Y-2.6921
X3.5526Y-2.7739
X3.5526Y-2.8557
X3.5526Y-3.2376
X3.5526Y-3.3194
X3.5587Y-2.5472
X3.5756Y-3.9413
X3.5878Y-4.5122
X3.5886Y-4.5402
X3.6098Y-3.9756
X3.6378Y-2.933
X3.6398Y-3.0906
X3.6937Y-2.2453
X3.7244Y-2.7221
X3.7504Y-2.7484
X3.7559Y-2.4055
X3.8189Y-3.7244
X3.8484Y-2.6909
X3.8661Y-2.4488
X3.9567Y-2.4528
X3.9941Y-3.6811
X4.0535Y-2.4512
X4.1008Y-4.0776
X4.1008Y-4.1244
X4.1016Y-4.1685
X4.1528Y-2.452
X4.2441Y-3.6555
X4.2441Y-3.6909
X4.311Y-2.4469
X4.3701Y-3.9035
X4.4016Y-3.9035
X4.437Y-3.9035
X4.4457Y-1.5827
X4.4772Y-4.3496
X4.4783Y-1.5827
X4.4783Y-3.9035
X4.5197Y-3.9035
X4.5988Y-2.0965
X4.6516Y-1.8504
X4.6531Y-1.8803
X4.7539Y-2.5315
X4.7634Y-4.0794
X4.8386Y-2.7402
X4.8386Y-2.9843
X4.8386Y-3.248
X4.8386Y-3.4252
X4.8386Y-3.5984
X4.8386Y-3.7618
X5.0015Y-2.7402
X5.0015Y-2.9843
X5.0015Y-3.248
X5.0015Y-3.4252
X5.0015Y-3.7618
X5.0098Y-1.6909
X5.0404Y-1.6909
X5.1644Y-3.4252
X5.1654Y-2.7402
X5.1654Y-3.5984
X5.1654Y-3.7618
X5.1673Y-2.9843
X5.3273Y-3.248
X5.3273Y-3.4252
X5.3701Y-4.1969
X5.3839Y-2.7402
X5.3839Y-3.7618
X5.3858Y-2.9843
X5.4587Y-2.0492
X5.4787Y-1.6917
X5.4882Y-3.5984
X5.4902Y-3.248
X5.4902Y-3.4252
X5.5157Y-1.6909
X5.5567Y-3.7827
X5.6161Y-4.0944
X5.6181Y-4.0035
X5.7087Y-2.8465
X5.7224Y-2.7795
X5.7315Y-2.9075
X5.7433Y-2.0031
X5.7819Y-2.9492
X5.7913Y-2.5236
X5.7953Y-2.3425
X5.8169Y-2.3209
X5.8224Y-3.1118
X5.8224Y-3.1496
X5.8224Y-3.1882
X5.8224Y-4.1994
X5.8287Y-2.3445
X5.8626Y-4.1994
X5.8834Y-2.7544
X5.8976Y-2.187
X5.9002Y-2.0465
X5.9098Y-3.1173
X5.911Y-2.525
X5.9114Y-3.1902
X5.9362Y-2.4685
X5.978Y-2.2209
X5.99Y-2.71
X6.0146Y-2.0972
X6.0307Y-2.525
X6.0519Y-2.1838
X6.1181Y-2.1838
X6.1503Y-2.525
X6.1534Y-2.4311
X6.1681Y-3.8898
X6.2008Y-2.0945
X6.2035Y-2.1838
X6.2287Y-3.1579
X6.2287Y-3.5071
X6.2303Y-2.3937
X6.25Y-2.71
X6.27Y-2.525
X6.2795Y-2.0472
X6.3552Y-2.1821
X6.5187Y-3.9331
X6.6169Y-3.8465
X6.6173Y-4.1925
X6.6184Y-3.1494
X6.6184Y-3.4994
T6
X3.0829Y-1.8187
X3.1536Y-1.748
X3.2243Y-1.6772
X3.295Y-1.6065
X4.4406Y-2.1673
X4.5406Y-2.1673
X4.6406Y-2.1673
X4.7406Y-2.1673
X4.8406Y-2.1673
X4.9406Y-2.1673
X5.0406Y-2.1673
X5.1406Y-2.1673
X5.2406Y-2.1673
X5.3406Y-2.1673
X5.4406Y-2.1673
X5.5406Y-2.1673
X5.6406Y-2.1673
X5.7406Y-2.1673
X5.385Y-2.8559
X5.9204Y-1.8432
X5.9204Y-1.9432
X6.0204Y-1.8432
X6.0204Y-1.9432
X6.1204Y-1.8432
X6.1204Y-1.9432
X6.2204Y-1.8432
X6.2204Y-1.9432
X6.3204Y-1.8432
X6.3204Y-1.9432
X3.335Y-2.1969
X3.335Y-2.2953
X3.335Y-2.374
X3.335Y-2.4724
X3.8024Y-2.1432
X3.8524Y-2.0432
X3.9024Y-2.1432
X3.9524Y-2.0432
X4.0024Y-2.1432
X4.0524Y-2.0432
X4.1024Y-2.1432
X4.1524Y-2.0432
X4.9488Y-3.6378
X6.0284Y-2.7994
X6.0284Y-2.8994
X6.0284Y-2.9994
X6.0284Y-3.0994
X6.0284Y-3.1994
X6.0284Y-3.2994
X6.0284Y-3.3994
X6.0284Y-3.4994
X6.0284Y-3.5994
X6.0284Y-3.6994
X6.0284Y-3.7994
X6.0284Y-3.8994
X6.0284Y-3.9994
X6.0284Y-4.0994
X6.0284Y-4.1994
X6.0284Y-4.2994
X4.45Y-4.57
X4.55Y-4.57
X4.65Y-4.57
X4.75Y-4.57
X4.85Y-4.57
X4.95Y-4.57
X5.05Y-4.57
X5.15Y-4.57
X5.25Y-4.57
X5.35Y-4.57
X5.45Y-4.57
X5.55Y-4.57
X4.9488Y-2.8543
X5.3839Y-3.6339
X5.1657Y-3.25
X2.9822Y-2.8798
X2.9822Y-3.1948
X3.9484Y-4.57
X4.0484Y-4.57
X4.1484Y-4.57
X4.2484Y-4.57
T7
X3.7175Y-1.6003
X3.8175Y-1.6003
X4.1392Y-1.6003
X4.2392Y-1.6003
T8
X6.41Y-2.51
X6.41Y-2.71
X6.51Y-2.61
X6.61Y-2.51
X6.61Y-2.71
T9
X3.6722Y-1.8976
X4.2821Y-1.8976
T10
X3.2283Y-2.0957
X3.2283Y-2.5736
T11
X2.9528Y-1.5354
X2.9528Y-4.5669
X6.5748Y-1.5354
X6.5748Y-4.5669
T12
X3.7533Y-1.7932
X4.2033Y-1.7932
T3
X3.0709Y-3.6319G85X3.0709Y-3.7106
G05
X3.1575Y-3.8465G85X3.2362Y-3.8465
G05
X3.3268Y-3.6319G85X3.3268Y-3.7106
G05
T4
X3.0591Y-4.0384G85X3.0433Y-4.0384
G05
X3.0591Y-4.2293G85X3.0433Y-4.2293
G05
T5
X2.9575Y-3.9724G85X2.9024Y-3.9724
G05
X2.9575Y-4.2953G85X2.9024Y-4.2953
G05
T0
M30
