G04 #@! TF.GenerationSoftware,KiCad,Pcbnew,(5.0.2)-1*
G04 #@! TF.CreationDate,2019-05-31T08:04:00+07:00*
G04 #@! TF.ProjectId,HY-AI7688H,48592d41-4937-4363-9838-482e6b696361,A*
G04 #@! TF.SameCoordinates,Original*
G04 #@! TF.FileFunction,Soldermask,Bot*
G04 #@! TF.FilePolarity,Negative*
%FSLAX46Y46*%
G04 Gerber Fmt 4.6, Leading zero omitted, Abs format (unit mm)*
G04 Created by KiCad (PCBNEW (5.0.2)-1) date 31/05/2019 8:04:00 SA*
%MOMM*%
%LPD*%
G01*
G04 APERTURE LIST*
%ADD10C,0.100000*%
G04 APERTURE END LIST*
D10*
G36*
X167933405Y-112922974D02*
X168345197Y-113093545D01*
X168515768Y-113164197D01*
X168864389Y-113397138D01*
X169039883Y-113514399D01*
X169485601Y-113960117D01*
X169485602Y-113960119D01*
X169835803Y-114484232D01*
X169835803Y-114484233D01*
X170077026Y-115066595D01*
X170200000Y-115684827D01*
X170200000Y-116315173D01*
X170077026Y-116933405D01*
X170042068Y-117017800D01*
X169835803Y-117515768D01*
X169602862Y-117864389D01*
X169485601Y-118039883D01*
X169039883Y-118485601D01*
X168864389Y-118602862D01*
X168515768Y-118835803D01*
X168345197Y-118906455D01*
X167933405Y-119077026D01*
X167315173Y-119200000D01*
X166684827Y-119200000D01*
X166066595Y-119077026D01*
X165654803Y-118906455D01*
X165484232Y-118835803D01*
X165135611Y-118602862D01*
X164960117Y-118485601D01*
X164514399Y-118039883D01*
X164397138Y-117864389D01*
X164164197Y-117515768D01*
X163957932Y-117017800D01*
X163922974Y-116933405D01*
X163800000Y-116315173D01*
X163800000Y-115684827D01*
X163922974Y-115066595D01*
X164164197Y-114484233D01*
X164164197Y-114484232D01*
X164514398Y-113960119D01*
X164514399Y-113960117D01*
X164960117Y-113514399D01*
X165135611Y-113397138D01*
X165484232Y-113164197D01*
X165654803Y-113093545D01*
X166066595Y-112922974D01*
X166684827Y-112800000D01*
X167315173Y-112800000D01*
X167933405Y-112922974D01*
X167933405Y-112922974D01*
G37*
G36*
X75933405Y-112922974D02*
X76345197Y-113093545D01*
X76515768Y-113164197D01*
X76864389Y-113397138D01*
X77039883Y-113514399D01*
X77485601Y-113960117D01*
X77485602Y-113960119D01*
X77835803Y-114484232D01*
X77835803Y-114484233D01*
X78077026Y-115066595D01*
X78200000Y-115684827D01*
X78200000Y-116315173D01*
X78077026Y-116933405D01*
X78042068Y-117017800D01*
X77835803Y-117515768D01*
X77602862Y-117864389D01*
X77485601Y-118039883D01*
X77039883Y-118485601D01*
X76864389Y-118602862D01*
X76515768Y-118835803D01*
X76345197Y-118906455D01*
X75933405Y-119077026D01*
X75315173Y-119200000D01*
X74684827Y-119200000D01*
X74066595Y-119077026D01*
X73654803Y-118906455D01*
X73484232Y-118835803D01*
X73135611Y-118602862D01*
X72960117Y-118485601D01*
X72514399Y-118039883D01*
X72397138Y-117864389D01*
X72164197Y-117515768D01*
X71957932Y-117017800D01*
X71922974Y-116933405D01*
X71800000Y-116315173D01*
X71800000Y-115684827D01*
X71922974Y-115066595D01*
X72164197Y-114484233D01*
X72164197Y-114484232D01*
X72514398Y-113960119D01*
X72514399Y-113960117D01*
X72960117Y-113514399D01*
X73135611Y-113397138D01*
X73484232Y-113164197D01*
X73654803Y-113093545D01*
X74066595Y-112922974D01*
X74684827Y-112800000D01*
X75315173Y-112800000D01*
X75933405Y-112922974D01*
X75933405Y-112922974D01*
G37*
G36*
X133624129Y-115174316D02*
X133795162Y-115245160D01*
X133856649Y-115286244D01*
X133949090Y-115348011D01*
X134079989Y-115478910D01*
X134141756Y-115571351D01*
X134182840Y-115632838D01*
X134253684Y-115803871D01*
X134289800Y-115985438D01*
X134289800Y-116170562D01*
X134253684Y-116352129D01*
X134182840Y-116523162D01*
X134141756Y-116584649D01*
X134079989Y-116677090D01*
X133949090Y-116807989D01*
X133856649Y-116869756D01*
X133795162Y-116910840D01*
X133624129Y-116981684D01*
X133442563Y-117017800D01*
X133257437Y-117017800D01*
X133075871Y-116981684D01*
X132904838Y-116910840D01*
X132843351Y-116869756D01*
X132750910Y-116807989D01*
X132620011Y-116677090D01*
X132558244Y-116584649D01*
X132517160Y-116523162D01*
X132446316Y-116352129D01*
X132410200Y-116170562D01*
X132410200Y-115985438D01*
X132446316Y-115803871D01*
X132517160Y-115632838D01*
X132558244Y-115571351D01*
X132620011Y-115478910D01*
X132750910Y-115348011D01*
X132843351Y-115286244D01*
X132904838Y-115245160D01*
X133075871Y-115174316D01*
X133257437Y-115138200D01*
X133442563Y-115138200D01*
X133624129Y-115174316D01*
X133624129Y-115174316D01*
G37*
G36*
X128544129Y-115174316D02*
X128715162Y-115245160D01*
X128776649Y-115286244D01*
X128869090Y-115348011D01*
X128999989Y-115478910D01*
X129061756Y-115571351D01*
X129102840Y-115632838D01*
X129173684Y-115803871D01*
X129209800Y-115985438D01*
X129209800Y-116170562D01*
X129173684Y-116352129D01*
X129102840Y-116523162D01*
X129061756Y-116584649D01*
X128999989Y-116677090D01*
X128869090Y-116807989D01*
X128776649Y-116869756D01*
X128715162Y-116910840D01*
X128544129Y-116981684D01*
X128362563Y-117017800D01*
X128177437Y-117017800D01*
X127995871Y-116981684D01*
X127824838Y-116910840D01*
X127763351Y-116869756D01*
X127670910Y-116807989D01*
X127540011Y-116677090D01*
X127478244Y-116584649D01*
X127437160Y-116523162D01*
X127366316Y-116352129D01*
X127330200Y-116170562D01*
X127330200Y-115985438D01*
X127366316Y-115803871D01*
X127437160Y-115632838D01*
X127478244Y-115571351D01*
X127540011Y-115478910D01*
X127670910Y-115348011D01*
X127763351Y-115286244D01*
X127824838Y-115245160D01*
X127995871Y-115174316D01*
X128177437Y-115138200D01*
X128362563Y-115138200D01*
X128544129Y-115174316D01*
X128544129Y-115174316D01*
G37*
G36*
X103104129Y-115174316D02*
X103275162Y-115245160D01*
X103336649Y-115286244D01*
X103429090Y-115348011D01*
X103559989Y-115478910D01*
X103621756Y-115571351D01*
X103662840Y-115632838D01*
X103733684Y-115803871D01*
X103769800Y-115985438D01*
X103769800Y-116170562D01*
X103733684Y-116352129D01*
X103662840Y-116523162D01*
X103621756Y-116584649D01*
X103559989Y-116677090D01*
X103429090Y-116807989D01*
X103336649Y-116869756D01*
X103275162Y-116910840D01*
X103104129Y-116981684D01*
X102922563Y-117017800D01*
X102737437Y-117017800D01*
X102555871Y-116981684D01*
X102384838Y-116910840D01*
X102323351Y-116869756D01*
X102230910Y-116807989D01*
X102100011Y-116677090D01*
X102038244Y-116584649D01*
X101997160Y-116523162D01*
X101926316Y-116352129D01*
X101890200Y-116170562D01*
X101890200Y-115985438D01*
X101926316Y-115803871D01*
X101997160Y-115632838D01*
X102038244Y-115571351D01*
X102100011Y-115478910D01*
X102230910Y-115348011D01*
X102323351Y-115286244D01*
X102384838Y-115245160D01*
X102555871Y-115174316D01*
X102737437Y-115138200D01*
X102922563Y-115138200D01*
X103104129Y-115174316D01*
X103104129Y-115174316D01*
G37*
G36*
X101229800Y-117017800D02*
X99350200Y-117017800D01*
X99350200Y-115138200D01*
X101229800Y-115138200D01*
X101229800Y-117017800D01*
X101229800Y-117017800D01*
G37*
G36*
X136164129Y-115174316D02*
X136335162Y-115245160D01*
X136396649Y-115286244D01*
X136489090Y-115348011D01*
X136619989Y-115478910D01*
X136681756Y-115571351D01*
X136722840Y-115632838D01*
X136793684Y-115803871D01*
X136829800Y-115985438D01*
X136829800Y-116170562D01*
X136793684Y-116352129D01*
X136722840Y-116523162D01*
X136681756Y-116584649D01*
X136619989Y-116677090D01*
X136489090Y-116807989D01*
X136396649Y-116869756D01*
X136335162Y-116910840D01*
X136164129Y-116981684D01*
X135982563Y-117017800D01*
X135797437Y-117017800D01*
X135615871Y-116981684D01*
X135444838Y-116910840D01*
X135383351Y-116869756D01*
X135290910Y-116807989D01*
X135160011Y-116677090D01*
X135098244Y-116584649D01*
X135057160Y-116523162D01*
X134986316Y-116352129D01*
X134950200Y-116170562D01*
X134950200Y-115985438D01*
X134986316Y-115803871D01*
X135057160Y-115632838D01*
X135098244Y-115571351D01*
X135160011Y-115478910D01*
X135290910Y-115348011D01*
X135383351Y-115286244D01*
X135444838Y-115245160D01*
X135615871Y-115174316D01*
X135797437Y-115138200D01*
X135982563Y-115138200D01*
X136164129Y-115174316D01*
X136164129Y-115174316D01*
G37*
G36*
X138704129Y-115174316D02*
X138875162Y-115245160D01*
X138936649Y-115286244D01*
X139029090Y-115348011D01*
X139159989Y-115478910D01*
X139221756Y-115571351D01*
X139262840Y-115632838D01*
X139333684Y-115803871D01*
X139369800Y-115985438D01*
X139369800Y-116170562D01*
X139333684Y-116352129D01*
X139262840Y-116523162D01*
X139221756Y-116584649D01*
X139159989Y-116677090D01*
X139029090Y-116807989D01*
X138936649Y-116869756D01*
X138875162Y-116910840D01*
X138704129Y-116981684D01*
X138522563Y-117017800D01*
X138337437Y-117017800D01*
X138155871Y-116981684D01*
X137984838Y-116910840D01*
X137923351Y-116869756D01*
X137830910Y-116807989D01*
X137700011Y-116677090D01*
X137638244Y-116584649D01*
X137597160Y-116523162D01*
X137526316Y-116352129D01*
X137490200Y-116170562D01*
X137490200Y-115985438D01*
X137526316Y-115803871D01*
X137597160Y-115632838D01*
X137638244Y-115571351D01*
X137700011Y-115478910D01*
X137830910Y-115348011D01*
X137923351Y-115286244D01*
X137984838Y-115245160D01*
X138155871Y-115174316D01*
X138337437Y-115138200D01*
X138522563Y-115138200D01*
X138704129Y-115174316D01*
X138704129Y-115174316D01*
G37*
G36*
X141909800Y-117017800D02*
X140030200Y-117017800D01*
X140030200Y-115138200D01*
X141909800Y-115138200D01*
X141909800Y-117017800D01*
X141909800Y-117017800D01*
G37*
G36*
X131084129Y-115174316D02*
X131255162Y-115245160D01*
X131316649Y-115286244D01*
X131409090Y-115348011D01*
X131539989Y-115478910D01*
X131601756Y-115571351D01*
X131642840Y-115632838D01*
X131713684Y-115803871D01*
X131749800Y-115985438D01*
X131749800Y-116170562D01*
X131713684Y-116352129D01*
X131642840Y-116523162D01*
X131601756Y-116584649D01*
X131539989Y-116677090D01*
X131409090Y-116807989D01*
X131316649Y-116869756D01*
X131255162Y-116910840D01*
X131084129Y-116981684D01*
X130902563Y-117017800D01*
X130717437Y-117017800D01*
X130535871Y-116981684D01*
X130364838Y-116910840D01*
X130303351Y-116869756D01*
X130210910Y-116807989D01*
X130080011Y-116677090D01*
X130018244Y-116584649D01*
X129977160Y-116523162D01*
X129906316Y-116352129D01*
X129870200Y-116170562D01*
X129870200Y-115985438D01*
X129906316Y-115803871D01*
X129977160Y-115632838D01*
X130018244Y-115571351D01*
X130080011Y-115478910D01*
X130210910Y-115348011D01*
X130303351Y-115286244D01*
X130364838Y-115245160D01*
X130535871Y-115174316D01*
X130717437Y-115138200D01*
X130902563Y-115138200D01*
X131084129Y-115174316D01*
X131084129Y-115174316D01*
G37*
G36*
X123464129Y-115174316D02*
X123635162Y-115245160D01*
X123696649Y-115286244D01*
X123789090Y-115348011D01*
X123919989Y-115478910D01*
X123981756Y-115571351D01*
X124022840Y-115632838D01*
X124093684Y-115803871D01*
X124129800Y-115985438D01*
X124129800Y-116170562D01*
X124093684Y-116352129D01*
X124022840Y-116523162D01*
X123981756Y-116584649D01*
X123919989Y-116677090D01*
X123789090Y-116807989D01*
X123696649Y-116869756D01*
X123635162Y-116910840D01*
X123464129Y-116981684D01*
X123282563Y-117017800D01*
X123097437Y-117017800D01*
X122915871Y-116981684D01*
X122744838Y-116910840D01*
X122683351Y-116869756D01*
X122590910Y-116807989D01*
X122460011Y-116677090D01*
X122398244Y-116584649D01*
X122357160Y-116523162D01*
X122286316Y-116352129D01*
X122250200Y-116170562D01*
X122250200Y-115985438D01*
X122286316Y-115803871D01*
X122357160Y-115632838D01*
X122398244Y-115571351D01*
X122460011Y-115478910D01*
X122590910Y-115348011D01*
X122683351Y-115286244D01*
X122744838Y-115245160D01*
X122915871Y-115174316D01*
X123097437Y-115138200D01*
X123282563Y-115138200D01*
X123464129Y-115174316D01*
X123464129Y-115174316D01*
G37*
G36*
X108184129Y-115174316D02*
X108355162Y-115245160D01*
X108416649Y-115286244D01*
X108509090Y-115348011D01*
X108639989Y-115478910D01*
X108701756Y-115571351D01*
X108742840Y-115632838D01*
X108813684Y-115803871D01*
X108849800Y-115985438D01*
X108849800Y-116170562D01*
X108813684Y-116352129D01*
X108742840Y-116523162D01*
X108701756Y-116584649D01*
X108639989Y-116677090D01*
X108509090Y-116807989D01*
X108416649Y-116869756D01*
X108355162Y-116910840D01*
X108184129Y-116981684D01*
X108002563Y-117017800D01*
X107817437Y-117017800D01*
X107635871Y-116981684D01*
X107464838Y-116910840D01*
X107403351Y-116869756D01*
X107310910Y-116807989D01*
X107180011Y-116677090D01*
X107118244Y-116584649D01*
X107077160Y-116523162D01*
X107006316Y-116352129D01*
X106970200Y-116170562D01*
X106970200Y-115985438D01*
X107006316Y-115803871D01*
X107077160Y-115632838D01*
X107118244Y-115571351D01*
X107180011Y-115478910D01*
X107310910Y-115348011D01*
X107403351Y-115286244D01*
X107464838Y-115245160D01*
X107635871Y-115174316D01*
X107817437Y-115138200D01*
X108002563Y-115138200D01*
X108184129Y-115174316D01*
X108184129Y-115174316D01*
G37*
G36*
X115844129Y-115174316D02*
X116015162Y-115245160D01*
X116076649Y-115286244D01*
X116169090Y-115348011D01*
X116299989Y-115478910D01*
X116361756Y-115571351D01*
X116402840Y-115632838D01*
X116473684Y-115803871D01*
X116509800Y-115985438D01*
X116509800Y-116170562D01*
X116473684Y-116352129D01*
X116402840Y-116523162D01*
X116361756Y-116584649D01*
X116299989Y-116677090D01*
X116169090Y-116807989D01*
X116076649Y-116869756D01*
X116015162Y-116910840D01*
X115844129Y-116981684D01*
X115662563Y-117017800D01*
X115477437Y-117017800D01*
X115295871Y-116981684D01*
X115124838Y-116910840D01*
X115063351Y-116869756D01*
X114970910Y-116807989D01*
X114840011Y-116677090D01*
X114778244Y-116584649D01*
X114737160Y-116523162D01*
X114666316Y-116352129D01*
X114630200Y-116170562D01*
X114630200Y-115985438D01*
X114666316Y-115803871D01*
X114737160Y-115632838D01*
X114778244Y-115571351D01*
X114840011Y-115478910D01*
X114970910Y-115348011D01*
X115063351Y-115286244D01*
X115124838Y-115245160D01*
X115295871Y-115174316D01*
X115477437Y-115138200D01*
X115662563Y-115138200D01*
X115844129Y-115174316D01*
X115844129Y-115174316D01*
G37*
G36*
X113304129Y-115174316D02*
X113475162Y-115245160D01*
X113536649Y-115286244D01*
X113629090Y-115348011D01*
X113759989Y-115478910D01*
X113821756Y-115571351D01*
X113862840Y-115632838D01*
X113933684Y-115803871D01*
X113969800Y-115985438D01*
X113969800Y-116170562D01*
X113933684Y-116352129D01*
X113862840Y-116523162D01*
X113821756Y-116584649D01*
X113759989Y-116677090D01*
X113629090Y-116807989D01*
X113536649Y-116869756D01*
X113475162Y-116910840D01*
X113304129Y-116981684D01*
X113122563Y-117017800D01*
X112937437Y-117017800D01*
X112755871Y-116981684D01*
X112584838Y-116910840D01*
X112523351Y-116869756D01*
X112430910Y-116807989D01*
X112300011Y-116677090D01*
X112238244Y-116584649D01*
X112197160Y-116523162D01*
X112126316Y-116352129D01*
X112090200Y-116170562D01*
X112090200Y-115985438D01*
X112126316Y-115803871D01*
X112197160Y-115632838D01*
X112238244Y-115571351D01*
X112300011Y-115478910D01*
X112430910Y-115348011D01*
X112523351Y-115286244D01*
X112584838Y-115245160D01*
X112755871Y-115174316D01*
X112937437Y-115138200D01*
X113122563Y-115138200D01*
X113304129Y-115174316D01*
X113304129Y-115174316D01*
G37*
G36*
X118384129Y-115174316D02*
X118555162Y-115245160D01*
X118616649Y-115286244D01*
X118709090Y-115348011D01*
X118839989Y-115478910D01*
X118901756Y-115571351D01*
X118942840Y-115632838D01*
X119013684Y-115803871D01*
X119049800Y-115985438D01*
X119049800Y-116170562D01*
X119013684Y-116352129D01*
X118942840Y-116523162D01*
X118901756Y-116584649D01*
X118839989Y-116677090D01*
X118709090Y-116807989D01*
X118616649Y-116869756D01*
X118555162Y-116910840D01*
X118384129Y-116981684D01*
X118202563Y-117017800D01*
X118017437Y-117017800D01*
X117835871Y-116981684D01*
X117664838Y-116910840D01*
X117603351Y-116869756D01*
X117510910Y-116807989D01*
X117380011Y-116677090D01*
X117318244Y-116584649D01*
X117277160Y-116523162D01*
X117206316Y-116352129D01*
X117170200Y-116170562D01*
X117170200Y-115985438D01*
X117206316Y-115803871D01*
X117277160Y-115632838D01*
X117318244Y-115571351D01*
X117380011Y-115478910D01*
X117510910Y-115348011D01*
X117603351Y-115286244D01*
X117664838Y-115245160D01*
X117835871Y-115174316D01*
X118017437Y-115138200D01*
X118202563Y-115138200D01*
X118384129Y-115174316D01*
X118384129Y-115174316D01*
G37*
G36*
X120924129Y-115174316D02*
X121095162Y-115245160D01*
X121156649Y-115286244D01*
X121249090Y-115348011D01*
X121379989Y-115478910D01*
X121441756Y-115571351D01*
X121482840Y-115632838D01*
X121553684Y-115803871D01*
X121589800Y-115985438D01*
X121589800Y-116170562D01*
X121553684Y-116352129D01*
X121482840Y-116523162D01*
X121441756Y-116584649D01*
X121379989Y-116677090D01*
X121249090Y-116807989D01*
X121156649Y-116869756D01*
X121095162Y-116910840D01*
X120924129Y-116981684D01*
X120742563Y-117017800D01*
X120557437Y-117017800D01*
X120375871Y-116981684D01*
X120204838Y-116910840D01*
X120143351Y-116869756D01*
X120050910Y-116807989D01*
X119920011Y-116677090D01*
X119858244Y-116584649D01*
X119817160Y-116523162D01*
X119746316Y-116352129D01*
X119710200Y-116170562D01*
X119710200Y-115985438D01*
X119746316Y-115803871D01*
X119817160Y-115632838D01*
X119858244Y-115571351D01*
X119920011Y-115478910D01*
X120050910Y-115348011D01*
X120143351Y-115286244D01*
X120204838Y-115245160D01*
X120375871Y-115174316D01*
X120557437Y-115138200D01*
X120742563Y-115138200D01*
X120924129Y-115174316D01*
X120924129Y-115174316D01*
G37*
G36*
X126004129Y-115174316D02*
X126175162Y-115245160D01*
X126236649Y-115286244D01*
X126329090Y-115348011D01*
X126459989Y-115478910D01*
X126521756Y-115571351D01*
X126562840Y-115632838D01*
X126633684Y-115803871D01*
X126669800Y-115985438D01*
X126669800Y-116170562D01*
X126633684Y-116352129D01*
X126562840Y-116523162D01*
X126521756Y-116584649D01*
X126459989Y-116677090D01*
X126329090Y-116807989D01*
X126236649Y-116869756D01*
X126175162Y-116910840D01*
X126004129Y-116981684D01*
X125822563Y-117017800D01*
X125637437Y-117017800D01*
X125455871Y-116981684D01*
X125284838Y-116910840D01*
X125223351Y-116869756D01*
X125130910Y-116807989D01*
X125000011Y-116677090D01*
X124938244Y-116584649D01*
X124897160Y-116523162D01*
X124826316Y-116352129D01*
X124790200Y-116170562D01*
X124790200Y-115985438D01*
X124826316Y-115803871D01*
X124897160Y-115632838D01*
X124938244Y-115571351D01*
X125000011Y-115478910D01*
X125130910Y-115348011D01*
X125223351Y-115286244D01*
X125284838Y-115245160D01*
X125455871Y-115174316D01*
X125637437Y-115138200D01*
X125822563Y-115138200D01*
X126004129Y-115174316D01*
X126004129Y-115174316D01*
G37*
G36*
X105644129Y-115174316D02*
X105815162Y-115245160D01*
X105876649Y-115286244D01*
X105969090Y-115348011D01*
X106099989Y-115478910D01*
X106161756Y-115571351D01*
X106202840Y-115632838D01*
X106273684Y-115803871D01*
X106309800Y-115985438D01*
X106309800Y-116170562D01*
X106273684Y-116352129D01*
X106202840Y-116523162D01*
X106161756Y-116584649D01*
X106099989Y-116677090D01*
X105969090Y-116807989D01*
X105876649Y-116869756D01*
X105815162Y-116910840D01*
X105644129Y-116981684D01*
X105462563Y-117017800D01*
X105277437Y-117017800D01*
X105095871Y-116981684D01*
X104924838Y-116910840D01*
X104863351Y-116869756D01*
X104770910Y-116807989D01*
X104640011Y-116677090D01*
X104578244Y-116584649D01*
X104537160Y-116523162D01*
X104466316Y-116352129D01*
X104430200Y-116170562D01*
X104430200Y-115985438D01*
X104466316Y-115803871D01*
X104537160Y-115632838D01*
X104578244Y-115571351D01*
X104640011Y-115478910D01*
X104770910Y-115348011D01*
X104863351Y-115286244D01*
X104924838Y-115245160D01*
X105095871Y-115174316D01*
X105277437Y-115138200D01*
X105462563Y-115138200D01*
X105644129Y-115174316D01*
X105644129Y-115174316D01*
G37*
G36*
X154060800Y-110144800D02*
X152181200Y-110144800D01*
X152181200Y-108265200D01*
X154060800Y-108265200D01*
X154060800Y-110144800D01*
X154060800Y-110144800D01*
G37*
G36*
X75356232Y-108163746D02*
X75535308Y-108218068D01*
X75700345Y-108306282D01*
X75845001Y-108424999D01*
X75963718Y-108569655D01*
X76051932Y-108734692D01*
X76106254Y-108913768D01*
X76124596Y-109100000D01*
X76106254Y-109286232D01*
X76051932Y-109465308D01*
X75963718Y-109630345D01*
X75845001Y-109775001D01*
X75700345Y-109893718D01*
X75700343Y-109893719D01*
X75535308Y-109981932D01*
X75356232Y-110036254D01*
X75216666Y-110050000D01*
X73623334Y-110050000D01*
X73483768Y-110036254D01*
X73304692Y-109981932D01*
X73139657Y-109893719D01*
X73139655Y-109893718D01*
X72994999Y-109775001D01*
X72876282Y-109630345D01*
X72788068Y-109465308D01*
X72733746Y-109286232D01*
X72715404Y-109100000D01*
X72733746Y-108913768D01*
X72788068Y-108734692D01*
X72876282Y-108569655D01*
X72994999Y-108424999D01*
X73139655Y-108306282D01*
X73304692Y-108218068D01*
X73483768Y-108163746D01*
X73623334Y-108150000D01*
X75216666Y-108150000D01*
X75356232Y-108163746D01*
X75356232Y-108163746D01*
G37*
G36*
X77847025Y-106685852D02*
X77988401Y-106728738D01*
X78110280Y-106793884D01*
X78118693Y-106798381D01*
X78232895Y-106892105D01*
X78326619Y-107006307D01*
X78326620Y-107006309D01*
X78396262Y-107136599D01*
X78439148Y-107277975D01*
X78453628Y-107425000D01*
X78439148Y-107572025D01*
X78396262Y-107713401D01*
X78331116Y-107835280D01*
X78326619Y-107843693D01*
X78232895Y-107957895D01*
X78118693Y-108051619D01*
X78118691Y-108051620D01*
X77988401Y-108121262D01*
X77847025Y-108164148D01*
X77736839Y-108175000D01*
X77263161Y-108175000D01*
X77152975Y-108164148D01*
X77011599Y-108121262D01*
X76881309Y-108051620D01*
X76881307Y-108051619D01*
X76767105Y-107957895D01*
X76673381Y-107843693D01*
X76668884Y-107835280D01*
X76603738Y-107713401D01*
X76560852Y-107572025D01*
X76546372Y-107425000D01*
X76560852Y-107277975D01*
X76603738Y-107136599D01*
X76673380Y-107006309D01*
X76673381Y-107006307D01*
X76767105Y-106892105D01*
X76881307Y-106798381D01*
X76889720Y-106793884D01*
X77011599Y-106728738D01*
X77152975Y-106685852D01*
X77263161Y-106675000D01*
X77736839Y-106675000D01*
X77847025Y-106685852D01*
X77847025Y-106685852D01*
G37*
G36*
X153395129Y-105761316D02*
X153566162Y-105832160D01*
X153627649Y-105873244D01*
X153720090Y-105935011D01*
X153850989Y-106065910D01*
X153912756Y-106158351D01*
X153953840Y-106219838D01*
X154024684Y-106390871D01*
X154060800Y-106572438D01*
X154060800Y-106757562D01*
X154024684Y-106939129D01*
X153953840Y-107110162D01*
X153936175Y-107136599D01*
X153850989Y-107264090D01*
X153720090Y-107394989D01*
X153627649Y-107456756D01*
X153566162Y-107497840D01*
X153395129Y-107568684D01*
X153213563Y-107604800D01*
X153028437Y-107604800D01*
X152846871Y-107568684D01*
X152675838Y-107497840D01*
X152614351Y-107456756D01*
X152521910Y-107394989D01*
X152391011Y-107264090D01*
X152305825Y-107136599D01*
X152288160Y-107110162D01*
X152217316Y-106939129D01*
X152181200Y-106757562D01*
X152181200Y-106572438D01*
X152217316Y-106390871D01*
X152288160Y-106219838D01*
X152329244Y-106158351D01*
X152391011Y-106065910D01*
X152521910Y-105935011D01*
X152614351Y-105873244D01*
X152675838Y-105832160D01*
X152846871Y-105761316D01*
X153028437Y-105725200D01*
X153213563Y-105725200D01*
X153395129Y-105761316D01*
X153395129Y-105761316D01*
G37*
G36*
X153296106Y-103201619D02*
X153395129Y-103221316D01*
X153566162Y-103292160D01*
X153599069Y-103314148D01*
X153720090Y-103395011D01*
X153850989Y-103525910D01*
X153912756Y-103618351D01*
X153953840Y-103679838D01*
X154024684Y-103850871D01*
X154060800Y-104032438D01*
X154060800Y-104217562D01*
X154024684Y-104399129D01*
X153953840Y-104570162D01*
X153912756Y-104631649D01*
X153850989Y-104724090D01*
X153720090Y-104854989D01*
X153627649Y-104916756D01*
X153566162Y-104957840D01*
X153395129Y-105028684D01*
X153213563Y-105064800D01*
X153028437Y-105064800D01*
X152846871Y-105028684D01*
X152675838Y-104957840D01*
X152614351Y-104916756D01*
X152521910Y-104854989D01*
X152391011Y-104724090D01*
X152329244Y-104631649D01*
X152288160Y-104570162D01*
X152217316Y-104399129D01*
X152181200Y-104217562D01*
X152181200Y-104032438D01*
X152217316Y-103850871D01*
X152288160Y-103679838D01*
X152329244Y-103618351D01*
X152391011Y-103525910D01*
X152521910Y-103395011D01*
X152642931Y-103314148D01*
X152675838Y-103292160D01*
X152846871Y-103221316D01*
X152945894Y-103201619D01*
X153028437Y-103185200D01*
X153213563Y-103185200D01*
X153296106Y-103201619D01*
X153296106Y-103201619D01*
G37*
G36*
X77847025Y-101835852D02*
X77988401Y-101878738D01*
X78110280Y-101943884D01*
X78118693Y-101948381D01*
X78232895Y-102042105D01*
X78326619Y-102156307D01*
X78326620Y-102156309D01*
X78396262Y-102286599D01*
X78439148Y-102427975D01*
X78453628Y-102575000D01*
X78439148Y-102722025D01*
X78396262Y-102863401D01*
X78331116Y-102985280D01*
X78326619Y-102993693D01*
X78232895Y-103107895D01*
X78118693Y-103201619D01*
X78118691Y-103201620D01*
X77988401Y-103271262D01*
X77847025Y-103314148D01*
X77736839Y-103325000D01*
X77263161Y-103325000D01*
X77152975Y-103314148D01*
X77011599Y-103271262D01*
X76881309Y-103201620D01*
X76881307Y-103201619D01*
X76767105Y-103107895D01*
X76673381Y-102993693D01*
X76668884Y-102985280D01*
X76603738Y-102863401D01*
X76560852Y-102722025D01*
X76546372Y-102575000D01*
X76560852Y-102427975D01*
X76603738Y-102286599D01*
X76673380Y-102156309D01*
X76673381Y-102156307D01*
X76767105Y-102042105D01*
X76881307Y-101948381D01*
X76889720Y-101943884D01*
X77011599Y-101878738D01*
X77152975Y-101835852D01*
X77263161Y-101825000D01*
X77736839Y-101825000D01*
X77847025Y-101835852D01*
X77847025Y-101835852D01*
G37*
G36*
X153395129Y-100681316D02*
X153566162Y-100752160D01*
X153627649Y-100793244D01*
X153720090Y-100855011D01*
X153850989Y-100985910D01*
X153912756Y-101078351D01*
X153953840Y-101139838D01*
X153953840Y-101139839D01*
X154024684Y-101310871D01*
X154060800Y-101492437D01*
X154060800Y-101677563D01*
X154031473Y-101825000D01*
X154024684Y-101859129D01*
X153953840Y-102030162D01*
X153912756Y-102091649D01*
X153850989Y-102184090D01*
X153720090Y-102314989D01*
X153627649Y-102376756D01*
X153566162Y-102417840D01*
X153395129Y-102488684D01*
X153213563Y-102524800D01*
X153028437Y-102524800D01*
X152846871Y-102488684D01*
X152675838Y-102417840D01*
X152614351Y-102376756D01*
X152521910Y-102314989D01*
X152391011Y-102184090D01*
X152329244Y-102091649D01*
X152288160Y-102030162D01*
X152217316Y-101859129D01*
X152210527Y-101825000D01*
X152181200Y-101677563D01*
X152181200Y-101492437D01*
X152217316Y-101310871D01*
X152288160Y-101139839D01*
X152288160Y-101139838D01*
X152329244Y-101078351D01*
X152391011Y-100985910D01*
X152521910Y-100855011D01*
X152614351Y-100793244D01*
X152675838Y-100752160D01*
X152846871Y-100681316D01*
X153028437Y-100645200D01*
X153213563Y-100645200D01*
X153395129Y-100681316D01*
X153395129Y-100681316D01*
G37*
G36*
X75356232Y-99963746D02*
X75535308Y-100018068D01*
X75700345Y-100106282D01*
X75845001Y-100224999D01*
X75963718Y-100369655D01*
X76051932Y-100534692D01*
X76106254Y-100713768D01*
X76124596Y-100900000D01*
X76106254Y-101086232D01*
X76051932Y-101265308D01*
X75963718Y-101430345D01*
X75845001Y-101575001D01*
X75700345Y-101693718D01*
X75700343Y-101693719D01*
X75535308Y-101781932D01*
X75356232Y-101836254D01*
X75216666Y-101850000D01*
X73623334Y-101850000D01*
X73483768Y-101836254D01*
X73304692Y-101781932D01*
X73139657Y-101693719D01*
X73139655Y-101693718D01*
X72994999Y-101575001D01*
X72876282Y-101430345D01*
X72788068Y-101265308D01*
X72733746Y-101086232D01*
X72715404Y-100900000D01*
X72733746Y-100713768D01*
X72788068Y-100534692D01*
X72876282Y-100369655D01*
X72994999Y-100224999D01*
X73139655Y-100106282D01*
X73304692Y-100018068D01*
X73483768Y-99963746D01*
X73623334Y-99950000D01*
X75216666Y-99950000D01*
X75356232Y-99963746D01*
X75356232Y-99963746D01*
G37*
G36*
X153395129Y-98141316D02*
X153566162Y-98212160D01*
X153627649Y-98253244D01*
X153720090Y-98315011D01*
X153850989Y-98445910D01*
X153912756Y-98538351D01*
X153953840Y-98599838D01*
X154024684Y-98770871D01*
X154060800Y-98952438D01*
X154060800Y-99137562D01*
X154024684Y-99319129D01*
X153953840Y-99490162D01*
X153912756Y-99551649D01*
X153850989Y-99644090D01*
X153720090Y-99774989D01*
X153627649Y-99836756D01*
X153566162Y-99877840D01*
X153395129Y-99948684D01*
X153213563Y-99984800D01*
X153028437Y-99984800D01*
X152846871Y-99948684D01*
X152675838Y-99877840D01*
X152614351Y-99836756D01*
X152521910Y-99774989D01*
X152391011Y-99644090D01*
X152329244Y-99551649D01*
X152288160Y-99490162D01*
X152217316Y-99319129D01*
X152181200Y-99137562D01*
X152181200Y-98952438D01*
X152217316Y-98770871D01*
X152288160Y-98599838D01*
X152329244Y-98538351D01*
X152391011Y-98445910D01*
X152521910Y-98315011D01*
X152614351Y-98253244D01*
X152675838Y-98212160D01*
X152846871Y-98141316D01*
X153028437Y-98105200D01*
X153213563Y-98105200D01*
X153395129Y-98141316D01*
X153395129Y-98141316D01*
G37*
G36*
X82602964Y-96905860D02*
X82754858Y-96951936D01*
X82894845Y-97026761D01*
X83017543Y-97127457D01*
X83118239Y-97250155D01*
X83193064Y-97390142D01*
X83239140Y-97542036D01*
X83254698Y-97700000D01*
X83239140Y-97857964D01*
X83193064Y-98009858D01*
X83118239Y-98149845D01*
X83017543Y-98272543D01*
X82894845Y-98373239D01*
X82754858Y-98448064D01*
X82602964Y-98494140D01*
X82484579Y-98505800D01*
X79915421Y-98505800D01*
X79797036Y-98494140D01*
X79645142Y-98448064D01*
X79505155Y-98373239D01*
X79382457Y-98272543D01*
X79281761Y-98149845D01*
X79206936Y-98009858D01*
X79160860Y-97857964D01*
X79145302Y-97700000D01*
X79160860Y-97542036D01*
X79206936Y-97390142D01*
X79281761Y-97250155D01*
X79382457Y-97127457D01*
X79505155Y-97026761D01*
X79645142Y-96951936D01*
X79797036Y-96905860D01*
X79915421Y-96894200D01*
X82484579Y-96894200D01*
X82602964Y-96905860D01*
X82602964Y-96905860D01*
G37*
G36*
X153395129Y-95601316D02*
X153566162Y-95672160D01*
X153627649Y-95713244D01*
X153720090Y-95775011D01*
X153850989Y-95905910D01*
X153912756Y-95998351D01*
X153953840Y-96059838D01*
X154024684Y-96230871D01*
X154060800Y-96412438D01*
X154060800Y-96597562D01*
X154024684Y-96779129D01*
X153953840Y-96950162D01*
X153912756Y-97011649D01*
X153850989Y-97104090D01*
X153720090Y-97234989D01*
X153627649Y-97296756D01*
X153566162Y-97337840D01*
X153439893Y-97390142D01*
X153395129Y-97408684D01*
X153213563Y-97444800D01*
X153028437Y-97444800D01*
X152846871Y-97408684D01*
X152802107Y-97390142D01*
X152675838Y-97337840D01*
X152614351Y-97296756D01*
X152521910Y-97234989D01*
X152391011Y-97104090D01*
X152329244Y-97011649D01*
X152288160Y-96950162D01*
X152217316Y-96779129D01*
X152181200Y-96597562D01*
X152181200Y-96412438D01*
X152217316Y-96230871D01*
X152288160Y-96059838D01*
X152329244Y-95998351D01*
X152391011Y-95905910D01*
X152521910Y-95775011D01*
X152614351Y-95713244D01*
X152675838Y-95672160D01*
X152846871Y-95601316D01*
X153028437Y-95565200D01*
X153213563Y-95565200D01*
X153395129Y-95601316D01*
X153395129Y-95601316D01*
G37*
G36*
X78157963Y-91210860D02*
X78309857Y-91256936D01*
X78449841Y-91331759D01*
X78449843Y-91331761D01*
X78572543Y-91432457D01*
X78583309Y-91445576D01*
X78673239Y-91555155D01*
X78748064Y-91695142D01*
X78794140Y-91847036D01*
X78805800Y-91965421D01*
X78805800Y-94534579D01*
X78794140Y-94652964D01*
X78748064Y-94804858D01*
X78673239Y-94944845D01*
X78572543Y-95067543D01*
X78449845Y-95168239D01*
X78309858Y-95243064D01*
X78157964Y-95289140D01*
X78000000Y-95304698D01*
X77842037Y-95289140D01*
X77690143Y-95243064D01*
X77550156Y-95168239D01*
X77427458Y-95067543D01*
X77326762Y-94944845D01*
X77251937Y-94804858D01*
X77205861Y-94652964D01*
X77194201Y-94534579D01*
X77194200Y-91965422D01*
X77205860Y-91847037D01*
X77251936Y-91695143D01*
X77326759Y-91555159D01*
X77357614Y-91517562D01*
X77427457Y-91432457D01*
X77471654Y-91396185D01*
X77550155Y-91331761D01*
X77690142Y-91256936D01*
X77842036Y-91210860D01*
X78000000Y-91195302D01*
X78157963Y-91210860D01*
X78157963Y-91210860D01*
G37*
G36*
X84657963Y-91210860D02*
X84809857Y-91256936D01*
X84949841Y-91331759D01*
X84949843Y-91331761D01*
X85072543Y-91432457D01*
X85083309Y-91445576D01*
X85173239Y-91555155D01*
X85248064Y-91695142D01*
X85294140Y-91847036D01*
X85305800Y-91965421D01*
X85305800Y-94534579D01*
X85294140Y-94652964D01*
X85248064Y-94804858D01*
X85173239Y-94944845D01*
X85072543Y-95067543D01*
X84949845Y-95168239D01*
X84809858Y-95243064D01*
X84657964Y-95289140D01*
X84500000Y-95304698D01*
X84342037Y-95289140D01*
X84190143Y-95243064D01*
X84050156Y-95168239D01*
X83927458Y-95067543D01*
X83826762Y-94944845D01*
X83751937Y-94804858D01*
X83705861Y-94652964D01*
X83694201Y-94534579D01*
X83694200Y-91965422D01*
X83705860Y-91847037D01*
X83751936Y-91695143D01*
X83826759Y-91555159D01*
X83857614Y-91517562D01*
X83927457Y-91432457D01*
X83971654Y-91396185D01*
X84050155Y-91331761D01*
X84190142Y-91256936D01*
X84342036Y-91210860D01*
X84500000Y-91195302D01*
X84657963Y-91210860D01*
X84657963Y-91210860D01*
G37*
G36*
X153395129Y-93061316D02*
X153566162Y-93132160D01*
X153627649Y-93173244D01*
X153720090Y-93235011D01*
X153850989Y-93365910D01*
X153912339Y-93457727D01*
X153953840Y-93519838D01*
X154024684Y-93690871D01*
X154060800Y-93872438D01*
X154060800Y-94057562D01*
X154024684Y-94239129D01*
X153953840Y-94410162D01*
X153912756Y-94471649D01*
X153850989Y-94564090D01*
X153720090Y-94694989D01*
X153627649Y-94756756D01*
X153566162Y-94797840D01*
X153395129Y-94868684D01*
X153213563Y-94904800D01*
X153028437Y-94904800D01*
X152846871Y-94868684D01*
X152675838Y-94797840D01*
X152614351Y-94756756D01*
X152521910Y-94694989D01*
X152391011Y-94564090D01*
X152329244Y-94471649D01*
X152288160Y-94410162D01*
X152217316Y-94239129D01*
X152181200Y-94057562D01*
X152181200Y-93872438D01*
X152217316Y-93690871D01*
X152288160Y-93519838D01*
X152329661Y-93457727D01*
X152391011Y-93365910D01*
X152521910Y-93235011D01*
X152614351Y-93173244D01*
X152675838Y-93132160D01*
X152846871Y-93061316D01*
X153028437Y-93025200D01*
X153213563Y-93025200D01*
X153395129Y-93061316D01*
X153395129Y-93061316D01*
G37*
G36*
X126020858Y-91342272D02*
X126162411Y-91400906D01*
X126221045Y-91425193D01*
X126251550Y-91445576D01*
X126401211Y-91545576D01*
X126554424Y-91698789D01*
X126554425Y-91698791D01*
X126674807Y-91878955D01*
X126674807Y-91878956D01*
X126757728Y-92079142D01*
X126800000Y-92291659D01*
X126800000Y-92508341D01*
X126757728Y-92720858D01*
X126699094Y-92862411D01*
X126674807Y-92921045D01*
X126605213Y-93025200D01*
X126554424Y-93101211D01*
X126401211Y-93254424D01*
X126370705Y-93274807D01*
X126221045Y-93374807D01*
X126162411Y-93399094D01*
X126020858Y-93457728D01*
X125808341Y-93500000D01*
X125591659Y-93500000D01*
X125379142Y-93457728D01*
X125237589Y-93399094D01*
X125178955Y-93374807D01*
X125029295Y-93274807D01*
X124998789Y-93254424D01*
X124845576Y-93101211D01*
X124794787Y-93025200D01*
X124725193Y-92921045D01*
X124700906Y-92862411D01*
X124642272Y-92720858D01*
X124600000Y-92508341D01*
X124600000Y-92291659D01*
X124642272Y-92079142D01*
X124725193Y-91878956D01*
X124725193Y-91878955D01*
X124845575Y-91698791D01*
X124845576Y-91698789D01*
X124998789Y-91545576D01*
X125148450Y-91445576D01*
X125178955Y-91425193D01*
X125237589Y-91400906D01*
X125379142Y-91342272D01*
X125591659Y-91300000D01*
X125808341Y-91300000D01*
X126020858Y-91342272D01*
X126020858Y-91342272D01*
G37*
G36*
X137070858Y-91242272D02*
X137210224Y-91300000D01*
X137271045Y-91325193D01*
X137390884Y-91405267D01*
X137451211Y-91445576D01*
X137604424Y-91598789D01*
X137604425Y-91598791D01*
X137724807Y-91778955D01*
X137724807Y-91778956D01*
X137807728Y-91979142D01*
X137850000Y-92191659D01*
X137850000Y-92408341D01*
X137807728Y-92620858D01*
X137766306Y-92720858D01*
X137724807Y-92821045D01*
X137657990Y-92921044D01*
X137604424Y-93001211D01*
X137451211Y-93154424D01*
X137390884Y-93194733D01*
X137271045Y-93274807D01*
X137212411Y-93299094D01*
X137070858Y-93357728D01*
X136858341Y-93400000D01*
X136641659Y-93400000D01*
X136429142Y-93357728D01*
X136287589Y-93299094D01*
X136228955Y-93274807D01*
X136109116Y-93194733D01*
X136048789Y-93154424D01*
X135895576Y-93001211D01*
X135842010Y-92921044D01*
X135775193Y-92821045D01*
X135733694Y-92720858D01*
X135692272Y-92620858D01*
X135650000Y-92408341D01*
X135650000Y-92191659D01*
X135692272Y-91979142D01*
X135775193Y-91778956D01*
X135775193Y-91778955D01*
X135895575Y-91598791D01*
X135895576Y-91598789D01*
X136048789Y-91445576D01*
X136109116Y-91405267D01*
X136228955Y-91325193D01*
X136289776Y-91300000D01*
X136429142Y-91242272D01*
X136641659Y-91200000D01*
X136858341Y-91200000D01*
X137070858Y-91242272D01*
X137070858Y-91242272D01*
G37*
G36*
X153395129Y-90521316D02*
X153566162Y-90592160D01*
X153627649Y-90633244D01*
X153720090Y-90695011D01*
X153850989Y-90825910D01*
X153912756Y-90918351D01*
X153953840Y-90979838D01*
X153953840Y-90979839D01*
X154024684Y-91150871D01*
X154060800Y-91332437D01*
X154060800Y-91517563D01*
X154044643Y-91598789D01*
X154024684Y-91699129D01*
X153953840Y-91870162D01*
X153912756Y-91931649D01*
X153850989Y-92024090D01*
X153720090Y-92154989D01*
X153627649Y-92216756D01*
X153566162Y-92257840D01*
X153484515Y-92291659D01*
X153395129Y-92328684D01*
X153213563Y-92364800D01*
X153028437Y-92364800D01*
X152846871Y-92328684D01*
X152757485Y-92291659D01*
X152675838Y-92257840D01*
X152614351Y-92216756D01*
X152521910Y-92154989D01*
X152391011Y-92024090D01*
X152329244Y-91931649D01*
X152288160Y-91870162D01*
X152217316Y-91699129D01*
X152197357Y-91598789D01*
X152181200Y-91517563D01*
X152181200Y-91332437D01*
X152217316Y-91150871D01*
X152288160Y-90979839D01*
X152288160Y-90979838D01*
X152329244Y-90918351D01*
X152391011Y-90825910D01*
X152521910Y-90695011D01*
X152614351Y-90633244D01*
X152675838Y-90592160D01*
X152846871Y-90521316D01*
X153028437Y-90485200D01*
X153213563Y-90485200D01*
X153395129Y-90521316D01*
X153395129Y-90521316D01*
G37*
G36*
X153395129Y-87981316D02*
X153566162Y-88052160D01*
X153627649Y-88093244D01*
X153720090Y-88155011D01*
X153850989Y-88285910D01*
X153912756Y-88378351D01*
X153953840Y-88439838D01*
X154024684Y-88610871D01*
X154060800Y-88792438D01*
X154060800Y-88977562D01*
X154024684Y-89159129D01*
X153953840Y-89330162D01*
X153912756Y-89391649D01*
X153850989Y-89484090D01*
X153720090Y-89614989D01*
X153627649Y-89676756D01*
X153566162Y-89717840D01*
X153395129Y-89788684D01*
X153213563Y-89824800D01*
X153028437Y-89824800D01*
X152846871Y-89788684D01*
X152675838Y-89717840D01*
X152614351Y-89676756D01*
X152521910Y-89614989D01*
X152391011Y-89484090D01*
X152329244Y-89391649D01*
X152288160Y-89330162D01*
X152217316Y-89159129D01*
X152181200Y-88977562D01*
X152181200Y-88792438D01*
X152217316Y-88610871D01*
X152288160Y-88439838D01*
X152329244Y-88378351D01*
X152391011Y-88285910D01*
X152521910Y-88155011D01*
X152614351Y-88093244D01*
X152675838Y-88052160D01*
X152846871Y-87981316D01*
X153028437Y-87945200D01*
X153213563Y-87945200D01*
X153395129Y-87981316D01*
X153395129Y-87981316D01*
G37*
G36*
X153395129Y-85441316D02*
X153566162Y-85512160D01*
X153627649Y-85553244D01*
X153720090Y-85615011D01*
X153850989Y-85745910D01*
X153912756Y-85838351D01*
X153953840Y-85899838D01*
X154024684Y-86070871D01*
X154060800Y-86252438D01*
X154060800Y-86437562D01*
X154024684Y-86619129D01*
X153953840Y-86790162D01*
X153912756Y-86851649D01*
X153850989Y-86944090D01*
X153720090Y-87074989D01*
X153627649Y-87136756D01*
X153566162Y-87177840D01*
X153395129Y-87248684D01*
X153213563Y-87284800D01*
X153028437Y-87284800D01*
X152846871Y-87248684D01*
X152675838Y-87177840D01*
X152614351Y-87136756D01*
X152521910Y-87074989D01*
X152391011Y-86944090D01*
X152329244Y-86851649D01*
X152288160Y-86790162D01*
X152217316Y-86619129D01*
X152181200Y-86437562D01*
X152181200Y-86252438D01*
X152217316Y-86070871D01*
X152288160Y-85899838D01*
X152329244Y-85838351D01*
X152391011Y-85745910D01*
X152521910Y-85615011D01*
X152614351Y-85553244D01*
X152675838Y-85512160D01*
X152846871Y-85441316D01*
X153028437Y-85405200D01*
X153213563Y-85405200D01*
X153395129Y-85441316D01*
X153395129Y-85441316D01*
G37*
G36*
X153242007Y-82870858D02*
X153395129Y-82901316D01*
X153566162Y-82972160D01*
X153627649Y-83013244D01*
X153720090Y-83075011D01*
X153850989Y-83205910D01*
X153912756Y-83298351D01*
X153953840Y-83359838D01*
X154024684Y-83530871D01*
X154060800Y-83712438D01*
X154060800Y-83897562D01*
X154024684Y-84079129D01*
X153953840Y-84250162D01*
X153912756Y-84311649D01*
X153850989Y-84404090D01*
X153720090Y-84534989D01*
X153627649Y-84596756D01*
X153566162Y-84637840D01*
X153395129Y-84708684D01*
X153213563Y-84744800D01*
X153028437Y-84744800D01*
X152846871Y-84708684D01*
X152675838Y-84637840D01*
X152614351Y-84596756D01*
X152521910Y-84534989D01*
X152391011Y-84404090D01*
X152329244Y-84311649D01*
X152288160Y-84250162D01*
X152217316Y-84079129D01*
X152181200Y-83897562D01*
X152181200Y-83712438D01*
X152217316Y-83530871D01*
X152288160Y-83359838D01*
X152329244Y-83298351D01*
X152391011Y-83205910D01*
X152521910Y-83075011D01*
X152614351Y-83013244D01*
X152675838Y-82972160D01*
X152846871Y-82901316D01*
X152999993Y-82870858D01*
X153028437Y-82865200D01*
X153213563Y-82865200D01*
X153242007Y-82870858D01*
X153242007Y-82870858D01*
G37*
G36*
X131530858Y-81492272D02*
X131643979Y-81539129D01*
X131731045Y-81575193D01*
X131850884Y-81655267D01*
X131911211Y-81695576D01*
X132064424Y-81848789D01*
X132104733Y-81909116D01*
X132184807Y-82028955D01*
X132184807Y-82028956D01*
X132267728Y-82229142D01*
X132310000Y-82441659D01*
X132310000Y-82658341D01*
X132267728Y-82870858D01*
X132209094Y-83012411D01*
X132184807Y-83071045D01*
X132104733Y-83190884D01*
X132064424Y-83251211D01*
X131911211Y-83404424D01*
X131850884Y-83444733D01*
X131731045Y-83524807D01*
X131672411Y-83549094D01*
X131530858Y-83607728D01*
X131318341Y-83650000D01*
X131101659Y-83650000D01*
X130889142Y-83607728D01*
X130747589Y-83549094D01*
X130688955Y-83524807D01*
X130569116Y-83444733D01*
X130508789Y-83404424D01*
X130355576Y-83251211D01*
X130315267Y-83190884D01*
X130235193Y-83071045D01*
X130210906Y-83012411D01*
X130152272Y-82870858D01*
X130110000Y-82658341D01*
X130110000Y-82441659D01*
X130152272Y-82229142D01*
X130235193Y-82028956D01*
X130235193Y-82028955D01*
X130315267Y-81909116D01*
X130355576Y-81848789D01*
X130508789Y-81695576D01*
X130569116Y-81655267D01*
X130688955Y-81575193D01*
X130776021Y-81539129D01*
X130889142Y-81492272D01*
X131101659Y-81450000D01*
X131318341Y-81450000D01*
X131530858Y-81492272D01*
X131530858Y-81492272D01*
G37*
G36*
X153395129Y-80361316D02*
X153566162Y-80432160D01*
X153627649Y-80473244D01*
X153720090Y-80535011D01*
X153850989Y-80665910D01*
X153912756Y-80758351D01*
X153953840Y-80819838D01*
X153953840Y-80819839D01*
X154024684Y-80990871D01*
X154060800Y-81172437D01*
X154060800Y-81357563D01*
X154034004Y-81492273D01*
X154024684Y-81539129D01*
X153953840Y-81710162D01*
X153914972Y-81768332D01*
X153850989Y-81864090D01*
X153720090Y-81994989D01*
X153669254Y-82028956D01*
X153566162Y-82097840D01*
X153395129Y-82168684D01*
X153213563Y-82204800D01*
X153028437Y-82204800D01*
X152846871Y-82168684D01*
X152675838Y-82097840D01*
X152572746Y-82028956D01*
X152521910Y-81994989D01*
X152391011Y-81864090D01*
X152327028Y-81768332D01*
X152288160Y-81710162D01*
X152217316Y-81539129D01*
X152207996Y-81492273D01*
X152181200Y-81357563D01*
X152181200Y-81172437D01*
X152217316Y-80990871D01*
X152288160Y-80819839D01*
X152288160Y-80819838D01*
X152329244Y-80758351D01*
X152391011Y-80665910D01*
X152521910Y-80535011D01*
X152614351Y-80473244D01*
X152675838Y-80432160D01*
X152846871Y-80361316D01*
X153028437Y-80325200D01*
X153213563Y-80325200D01*
X153395129Y-80361316D01*
X153395129Y-80361316D01*
G37*
G36*
X75952982Y-80474900D02*
X76043061Y-80512213D01*
X76080374Y-80527668D01*
X76195024Y-80604274D01*
X76292526Y-80701776D01*
X76369132Y-80816426D01*
X76384587Y-80853739D01*
X76421900Y-80943818D01*
X76448800Y-81079055D01*
X76448800Y-81216945D01*
X76421900Y-81352182D01*
X76384587Y-81442261D01*
X76369132Y-81479574D01*
X76292526Y-81594224D01*
X76195024Y-81691726D01*
X76080374Y-81768332D01*
X76043061Y-81783787D01*
X75952982Y-81821100D01*
X75817745Y-81848000D01*
X75679855Y-81848000D01*
X75544618Y-81821100D01*
X75454539Y-81783787D01*
X75417226Y-81768332D01*
X75302576Y-81691726D01*
X75205074Y-81594224D01*
X75128468Y-81479574D01*
X75113013Y-81442261D01*
X75075700Y-81352182D01*
X75048800Y-81216945D01*
X75048800Y-81079055D01*
X75075700Y-80943818D01*
X75113013Y-80853739D01*
X75128468Y-80816426D01*
X75205074Y-80701776D01*
X75302576Y-80604274D01*
X75417226Y-80527668D01*
X75454539Y-80512213D01*
X75544618Y-80474900D01*
X75679855Y-80448000D01*
X75817745Y-80448000D01*
X75952982Y-80474900D01*
X75952982Y-80474900D01*
G37*
G36*
X153395129Y-77821316D02*
X153566162Y-77892160D01*
X153627649Y-77933244D01*
X153720090Y-77995011D01*
X153850989Y-78125910D01*
X153912756Y-78218351D01*
X153953840Y-78279838D01*
X154024684Y-78450871D01*
X154060800Y-78632438D01*
X154060800Y-78817562D01*
X154024684Y-78999129D01*
X153953840Y-79170162D01*
X153912756Y-79231649D01*
X153850989Y-79324090D01*
X153720090Y-79454989D01*
X153627649Y-79516756D01*
X153566162Y-79557840D01*
X153395129Y-79628684D01*
X153213563Y-79664800D01*
X153028437Y-79664800D01*
X152846871Y-79628684D01*
X152675838Y-79557840D01*
X152614351Y-79516756D01*
X152521910Y-79454989D01*
X152391011Y-79324090D01*
X152329244Y-79231649D01*
X152288160Y-79170162D01*
X152217316Y-78999129D01*
X152181200Y-78817562D01*
X152181200Y-78632438D01*
X152217316Y-78450871D01*
X152288160Y-78279838D01*
X152329244Y-78218351D01*
X152391011Y-78125910D01*
X152521910Y-77995011D01*
X152614351Y-77933244D01*
X152675838Y-77892160D01*
X152846871Y-77821316D01*
X153028437Y-77785200D01*
X153213563Y-77785200D01*
X153395129Y-77821316D01*
X153395129Y-77821316D01*
G37*
G36*
X153395129Y-75281316D02*
X153566162Y-75352160D01*
X153627649Y-75393244D01*
X153720090Y-75455011D01*
X153850989Y-75585910D01*
X153912756Y-75678351D01*
X153953840Y-75739838D01*
X154024684Y-75910871D01*
X154060800Y-76092438D01*
X154060800Y-76277562D01*
X154024684Y-76459129D01*
X153953840Y-76630162D01*
X153912756Y-76691649D01*
X153850989Y-76784090D01*
X153720090Y-76914989D01*
X153627649Y-76976756D01*
X153566162Y-77017840D01*
X153395129Y-77088684D01*
X153213563Y-77124800D01*
X153028437Y-77124800D01*
X152846871Y-77088684D01*
X152675838Y-77017840D01*
X152614351Y-76976756D01*
X152521910Y-76914989D01*
X152391011Y-76784090D01*
X152329244Y-76691649D01*
X152288160Y-76630162D01*
X152217316Y-76459129D01*
X152181200Y-76277562D01*
X152181200Y-76092438D01*
X152217316Y-75910871D01*
X152288160Y-75739838D01*
X152329244Y-75678351D01*
X152391011Y-75585910D01*
X152521910Y-75455011D01*
X152614351Y-75393244D01*
X152675838Y-75352160D01*
X152846871Y-75281316D01*
X153028437Y-75245200D01*
X153213563Y-75245200D01*
X153395129Y-75281316D01*
X153395129Y-75281316D01*
G37*
G36*
X153395129Y-72741316D02*
X153566162Y-72812160D01*
X153579179Y-72820858D01*
X153720090Y-72915011D01*
X153850989Y-73045910D01*
X153912756Y-73138351D01*
X153953840Y-73199838D01*
X153970976Y-73241209D01*
X154024684Y-73370871D01*
X154060800Y-73552437D01*
X154060800Y-73737563D01*
X154044382Y-73820099D01*
X154024684Y-73919129D01*
X153953840Y-74090162D01*
X153912756Y-74151649D01*
X153850989Y-74244090D01*
X153720090Y-74374989D01*
X153627649Y-74436756D01*
X153566162Y-74477840D01*
X153395129Y-74548684D01*
X153213563Y-74584800D01*
X153028437Y-74584800D01*
X152846871Y-74548684D01*
X152675838Y-74477840D01*
X152614351Y-74436756D01*
X152521910Y-74374989D01*
X152391011Y-74244090D01*
X152329244Y-74151649D01*
X152288160Y-74090162D01*
X152217316Y-73919129D01*
X152197618Y-73820099D01*
X152181200Y-73737563D01*
X152181200Y-73552437D01*
X152217316Y-73370871D01*
X152271024Y-73241209D01*
X152288160Y-73199838D01*
X152329244Y-73138351D01*
X152391011Y-73045910D01*
X152521910Y-72915011D01*
X152662821Y-72820858D01*
X152675838Y-72812160D01*
X152846871Y-72741316D01*
X153028437Y-72705200D01*
X153213563Y-72705200D01*
X153395129Y-72741316D01*
X153395129Y-72741316D01*
G37*
G36*
X75952982Y-72473900D02*
X76043061Y-72511213D01*
X76080374Y-72526668D01*
X76195024Y-72603274D01*
X76292526Y-72700776D01*
X76369132Y-72815426D01*
X76369132Y-72815427D01*
X76421900Y-72942818D01*
X76448800Y-73078055D01*
X76448800Y-73215945D01*
X76421900Y-73351182D01*
X76384587Y-73441261D01*
X76369132Y-73478574D01*
X76292526Y-73593224D01*
X76195024Y-73690726D01*
X76080374Y-73767332D01*
X76043061Y-73782787D01*
X75952982Y-73820100D01*
X75817745Y-73847000D01*
X75679855Y-73847000D01*
X75544618Y-73820100D01*
X75454539Y-73782787D01*
X75417226Y-73767332D01*
X75302576Y-73690726D01*
X75205074Y-73593224D01*
X75128468Y-73478574D01*
X75113013Y-73441261D01*
X75075700Y-73351182D01*
X75048800Y-73215945D01*
X75048800Y-73078055D01*
X75075700Y-72942818D01*
X75128468Y-72815427D01*
X75128468Y-72815426D01*
X75205074Y-72700776D01*
X75302576Y-72603274D01*
X75417226Y-72526668D01*
X75454539Y-72511213D01*
X75544618Y-72473900D01*
X75679855Y-72447000D01*
X75817745Y-72447000D01*
X75952982Y-72473900D01*
X75952982Y-72473900D01*
G37*
G36*
X137100858Y-71482272D02*
X137242411Y-71540906D01*
X137301045Y-71565193D01*
X137420884Y-71645267D01*
X137481211Y-71685576D01*
X137634424Y-71838789D01*
X137634425Y-71838791D01*
X137754807Y-72018955D01*
X137754807Y-72018956D01*
X137837728Y-72219142D01*
X137880000Y-72431659D01*
X137880000Y-72648341D01*
X137837728Y-72860858D01*
X137779094Y-73002411D01*
X137754807Y-73061045D01*
X137674733Y-73180884D01*
X137634424Y-73241211D01*
X137481211Y-73394424D01*
X137420884Y-73434733D01*
X137301045Y-73514807D01*
X137242411Y-73539094D01*
X137100858Y-73597728D01*
X136888341Y-73640000D01*
X136671659Y-73640000D01*
X136459142Y-73597728D01*
X136317589Y-73539094D01*
X136258955Y-73514807D01*
X136139116Y-73434733D01*
X136078789Y-73394424D01*
X135925576Y-73241211D01*
X135885267Y-73180884D01*
X135805193Y-73061045D01*
X135780906Y-73002411D01*
X135722272Y-72860858D01*
X135680000Y-72648341D01*
X135680000Y-72431659D01*
X135722272Y-72219142D01*
X135805193Y-72018956D01*
X135805193Y-72018955D01*
X135925575Y-71838791D01*
X135925576Y-71838789D01*
X136078789Y-71685576D01*
X136139116Y-71645267D01*
X136258955Y-71565193D01*
X136317589Y-71540906D01*
X136459142Y-71482272D01*
X136671659Y-71440000D01*
X136888341Y-71440000D01*
X137100858Y-71482272D01*
X137100858Y-71482272D01*
G37*
G36*
X126020858Y-71442272D02*
X126162411Y-71500906D01*
X126221045Y-71525193D01*
X126280909Y-71565193D01*
X126401211Y-71645576D01*
X126554424Y-71798789D01*
X126581151Y-71838789D01*
X126674807Y-71978955D01*
X126691376Y-72018956D01*
X126757728Y-72179142D01*
X126800000Y-72391659D01*
X126800000Y-72608341D01*
X126757728Y-72820858D01*
X126718728Y-72915010D01*
X126674807Y-73021045D01*
X126636714Y-73078055D01*
X126554424Y-73201211D01*
X126401211Y-73354424D01*
X126376596Y-73370871D01*
X126221045Y-73474807D01*
X126162411Y-73499094D01*
X126020858Y-73557728D01*
X125808341Y-73600000D01*
X125591659Y-73600000D01*
X125379142Y-73557728D01*
X125237589Y-73499094D01*
X125178955Y-73474807D01*
X125023404Y-73370871D01*
X124998789Y-73354424D01*
X124845576Y-73201211D01*
X124763286Y-73078055D01*
X124725193Y-73021045D01*
X124681272Y-72915010D01*
X124642272Y-72820858D01*
X124600000Y-72608341D01*
X124600000Y-72391659D01*
X124642272Y-72179142D01*
X124708624Y-72018956D01*
X124725193Y-71978955D01*
X124818849Y-71838789D01*
X124845576Y-71798789D01*
X124998789Y-71645576D01*
X125119091Y-71565193D01*
X125178955Y-71525193D01*
X125237589Y-71500906D01*
X125379142Y-71442272D01*
X125591659Y-71400000D01*
X125808341Y-71400000D01*
X126020858Y-71442272D01*
X126020858Y-71442272D01*
G37*
G36*
X153395129Y-70201316D02*
X153566162Y-70272160D01*
X153627649Y-70313244D01*
X153720090Y-70375011D01*
X153850989Y-70505910D01*
X153912756Y-70598351D01*
X153953840Y-70659838D01*
X154024684Y-70830871D01*
X154060800Y-71012438D01*
X154060800Y-71197562D01*
X154024684Y-71379129D01*
X153953840Y-71550162D01*
X153912756Y-71611649D01*
X153850989Y-71704090D01*
X153720090Y-71834989D01*
X153627649Y-71896756D01*
X153566162Y-71937840D01*
X153466901Y-71978955D01*
X153395129Y-72008684D01*
X153213563Y-72044800D01*
X153028437Y-72044800D01*
X152846871Y-72008684D01*
X152775099Y-71978955D01*
X152675838Y-71937840D01*
X152614351Y-71896756D01*
X152521910Y-71834989D01*
X152391011Y-71704090D01*
X152329244Y-71611649D01*
X152288160Y-71550162D01*
X152217316Y-71379129D01*
X152181200Y-71197562D01*
X152181200Y-71012438D01*
X152217316Y-70830871D01*
X152288160Y-70659838D01*
X152329244Y-70598351D01*
X152391011Y-70505910D01*
X152521910Y-70375011D01*
X152614351Y-70313244D01*
X152675838Y-70272160D01*
X152846871Y-70201316D01*
X153028437Y-70165200D01*
X153213563Y-70165200D01*
X153395129Y-70201316D01*
X153395129Y-70201316D01*
G37*
G36*
X163236948Y-67439722D02*
X163500833Y-67549027D01*
X163709236Y-67688277D01*
X163738322Y-67707712D01*
X163940288Y-67909678D01*
X164098973Y-68147167D01*
X164208278Y-68411052D01*
X164264000Y-68691186D01*
X164264000Y-68976814D01*
X164208278Y-69256948D01*
X164098973Y-69520833D01*
X163940288Y-69758322D01*
X163738322Y-69960288D01*
X163500833Y-70118973D01*
X163236948Y-70228278D01*
X162956814Y-70284000D01*
X162671186Y-70284000D01*
X162391052Y-70228278D01*
X162127167Y-70118973D01*
X161889678Y-69960288D01*
X161687712Y-69758322D01*
X161529027Y-69520833D01*
X161419722Y-69256948D01*
X161364000Y-68976814D01*
X161364000Y-68691186D01*
X161419722Y-68411052D01*
X161529027Y-68147167D01*
X161687712Y-67909678D01*
X161889678Y-67707712D01*
X161918765Y-67688277D01*
X162127167Y-67549027D01*
X162391052Y-67439722D01*
X162671186Y-67384000D01*
X162956814Y-67384000D01*
X163236948Y-67439722D01*
X163236948Y-67439722D01*
G37*
G36*
X168316948Y-67439722D02*
X168580833Y-67549027D01*
X168789236Y-67688277D01*
X168818322Y-67707712D01*
X169020288Y-67909678D01*
X169178973Y-68147167D01*
X169288278Y-68411052D01*
X169344000Y-68691186D01*
X169344000Y-68976814D01*
X169288278Y-69256948D01*
X169178973Y-69520833D01*
X169020288Y-69758322D01*
X168818322Y-69960288D01*
X168580833Y-70118973D01*
X168316948Y-70228278D01*
X168036814Y-70284000D01*
X167751186Y-70284000D01*
X167471052Y-70228278D01*
X167207167Y-70118973D01*
X166969678Y-69960288D01*
X166767712Y-69758322D01*
X166609027Y-69520833D01*
X166499722Y-69256948D01*
X166444000Y-68976814D01*
X166444000Y-68691186D01*
X166499722Y-68411052D01*
X166609027Y-68147167D01*
X166767712Y-67909678D01*
X166969678Y-67707712D01*
X166998765Y-67688277D01*
X167207167Y-67549027D01*
X167471052Y-67439722D01*
X167751186Y-67384000D01*
X168036814Y-67384000D01*
X168316948Y-67439722D01*
X168316948Y-67439722D01*
G37*
G36*
X165776948Y-64899722D02*
X166040833Y-65009027D01*
X166278321Y-65167711D01*
X166480289Y-65369679D01*
X166598961Y-65547285D01*
X166638973Y-65607167D01*
X166748278Y-65871052D01*
X166804000Y-66151186D01*
X166804000Y-66436814D01*
X166748278Y-66716948D01*
X166727069Y-66768150D01*
X166638973Y-66980833D01*
X166480289Y-67218321D01*
X166278321Y-67420289D01*
X166085650Y-67549027D01*
X166040833Y-67578973D01*
X165776948Y-67688278D01*
X165496814Y-67744000D01*
X165211186Y-67744000D01*
X164931052Y-67688278D01*
X164667167Y-67578973D01*
X164622350Y-67549027D01*
X164429679Y-67420289D01*
X164227711Y-67218321D01*
X164069027Y-66980833D01*
X163980931Y-66768150D01*
X163959722Y-66716948D01*
X163904000Y-66436814D01*
X163904000Y-66151186D01*
X163959722Y-65871052D01*
X164069027Y-65607167D01*
X164109039Y-65547285D01*
X164227711Y-65369679D01*
X164429679Y-65167711D01*
X164667167Y-65009027D01*
X164931052Y-64899722D01*
X165211186Y-64844000D01*
X165496814Y-64844000D01*
X165776948Y-64899722D01*
X165776948Y-64899722D01*
G37*
G36*
X82296523Y-63593718D02*
X82525041Y-63639173D01*
X82852620Y-63774861D01*
X83035135Y-63896814D01*
X83147435Y-63971850D01*
X83398150Y-64222565D01*
X83398151Y-64222567D01*
X83595139Y-64517380D01*
X83730827Y-64844959D01*
X83741720Y-64899722D01*
X83795027Y-65167712D01*
X83800000Y-65192716D01*
X83800000Y-65547284D01*
X83730827Y-65895041D01*
X83595139Y-66222620D01*
X83452020Y-66436813D01*
X83398150Y-66517435D01*
X83147435Y-66768150D01*
X83088152Y-66807762D01*
X82852620Y-66965139D01*
X82525041Y-67100827D01*
X82351162Y-67135414D01*
X82177285Y-67170000D01*
X81822715Y-67170000D01*
X81648838Y-67135414D01*
X81474959Y-67100827D01*
X81147380Y-66965139D01*
X80911848Y-66807762D01*
X80852565Y-66768150D01*
X80601850Y-66517435D01*
X80547980Y-66436813D01*
X80404861Y-66222620D01*
X80269173Y-65895041D01*
X80200000Y-65547284D01*
X80200000Y-65192716D01*
X80204974Y-65167712D01*
X80258280Y-64899722D01*
X80269173Y-64844959D01*
X80404861Y-64517380D01*
X80601849Y-64222567D01*
X80601850Y-64222565D01*
X80852565Y-63971850D01*
X80964865Y-63896814D01*
X81147380Y-63774861D01*
X81474959Y-63639173D01*
X81703477Y-63593718D01*
X81822715Y-63570000D01*
X82177285Y-63570000D01*
X82296523Y-63593718D01*
X82296523Y-63593718D01*
G37*
G36*
X163236948Y-62359722D02*
X163417941Y-62434692D01*
X163500833Y-62469027D01*
X163717454Y-62613768D01*
X163738322Y-62627712D01*
X163940288Y-62829678D01*
X164098973Y-63067167D01*
X164208278Y-63331052D01*
X164264000Y-63611186D01*
X164264000Y-63896814D01*
X164208278Y-64176948D01*
X164098973Y-64440833D01*
X163940289Y-64678321D01*
X163738321Y-64880289D01*
X163545650Y-65009027D01*
X163500833Y-65038973D01*
X163236948Y-65148278D01*
X162956814Y-65204000D01*
X162671186Y-65204000D01*
X162391052Y-65148278D01*
X162127167Y-65038973D01*
X162082350Y-65009027D01*
X161889679Y-64880289D01*
X161687711Y-64678321D01*
X161529027Y-64440833D01*
X161419722Y-64176948D01*
X161364000Y-63896814D01*
X161364000Y-63611186D01*
X161419722Y-63331052D01*
X161529027Y-63067167D01*
X161687712Y-62829678D01*
X161889678Y-62627712D01*
X161910547Y-62613768D01*
X162127167Y-62469027D01*
X162210059Y-62434692D01*
X162391052Y-62359722D01*
X162671186Y-62304000D01*
X162956814Y-62304000D01*
X163236948Y-62359722D01*
X163236948Y-62359722D01*
G37*
G36*
X168316948Y-62359722D02*
X168497941Y-62434692D01*
X168580833Y-62469027D01*
X168797454Y-62613768D01*
X168818322Y-62627712D01*
X169020288Y-62829678D01*
X169178973Y-63067167D01*
X169288278Y-63331052D01*
X169344000Y-63611186D01*
X169344000Y-63896814D01*
X169288278Y-64176948D01*
X169178973Y-64440833D01*
X169020289Y-64678321D01*
X168818321Y-64880289D01*
X168625650Y-65009027D01*
X168580833Y-65038973D01*
X168316948Y-65148278D01*
X168036814Y-65204000D01*
X167751186Y-65204000D01*
X167471052Y-65148278D01*
X167207167Y-65038973D01*
X167162350Y-65009027D01*
X166969679Y-64880289D01*
X166767711Y-64678321D01*
X166609027Y-64440833D01*
X166499722Y-64176948D01*
X166444000Y-63896814D01*
X166444000Y-63611186D01*
X166499722Y-63331052D01*
X166609027Y-63067167D01*
X166767712Y-62829678D01*
X166969678Y-62627712D01*
X166990547Y-62613768D01*
X167207167Y-62469027D01*
X167290059Y-62434692D01*
X167471052Y-62359722D01*
X167751186Y-62304000D01*
X168036814Y-62304000D01*
X168316948Y-62359722D01*
X168316948Y-62359722D01*
G37*
G36*
X85646232Y-61863746D02*
X85825308Y-61918068D01*
X85990345Y-62006282D01*
X86135001Y-62124999D01*
X86253718Y-62269655D01*
X86341932Y-62434692D01*
X86396254Y-62613768D01*
X86414596Y-62800000D01*
X86396254Y-62986232D01*
X86341932Y-63165308D01*
X86253718Y-63330345D01*
X86135001Y-63475001D01*
X85990345Y-63593718D01*
X85990343Y-63593719D01*
X85825308Y-63681932D01*
X85646232Y-63736254D01*
X85506666Y-63750000D01*
X83913334Y-63750000D01*
X83773768Y-63736254D01*
X83594692Y-63681932D01*
X83429657Y-63593719D01*
X83429655Y-63593718D01*
X83284999Y-63475001D01*
X83166282Y-63330345D01*
X83078068Y-63165308D01*
X83023746Y-62986232D01*
X83005404Y-62800000D01*
X83023746Y-62613768D01*
X83078068Y-62434692D01*
X83166282Y-62269655D01*
X83284999Y-62124999D01*
X83429655Y-62006282D01*
X83594692Y-61918068D01*
X83773768Y-61863746D01*
X83913334Y-61850000D01*
X85506666Y-61850000D01*
X85646232Y-61863746D01*
X85646232Y-61863746D01*
G37*
G36*
X85646232Y-57363746D02*
X85825308Y-57418068D01*
X85990345Y-57506282D01*
X86135001Y-57624999D01*
X86253718Y-57769655D01*
X86341932Y-57934692D01*
X86396254Y-58113768D01*
X86414596Y-58300000D01*
X86396254Y-58486232D01*
X86341932Y-58665308D01*
X86253718Y-58830345D01*
X86135001Y-58975001D01*
X85990345Y-59093718D01*
X85990343Y-59093719D01*
X85825308Y-59181932D01*
X85646232Y-59236254D01*
X85504219Y-59250241D01*
X85494606Y-59252153D01*
X85485550Y-59255904D01*
X85477400Y-59261350D01*
X85470469Y-59268280D01*
X85465024Y-59276430D01*
X85461273Y-59285486D01*
X85459361Y-59295099D01*
X85459361Y-59304901D01*
X85461273Y-59314514D01*
X85465024Y-59323570D01*
X85470470Y-59331720D01*
X85477400Y-59338651D01*
X85485550Y-59344096D01*
X85494606Y-59347847D01*
X85504219Y-59349759D01*
X85646232Y-59363746D01*
X85825308Y-59418068D01*
X85990345Y-59506282D01*
X86135001Y-59624999D01*
X86253718Y-59769655D01*
X86341932Y-59934692D01*
X86396254Y-60113768D01*
X86414596Y-60300000D01*
X86396254Y-60486232D01*
X86341932Y-60665308D01*
X86253718Y-60830345D01*
X86135001Y-60975001D01*
X85990345Y-61093718D01*
X85990343Y-61093719D01*
X85825308Y-61181932D01*
X85646232Y-61236254D01*
X85506666Y-61250000D01*
X83913334Y-61250000D01*
X83773768Y-61236254D01*
X83594692Y-61181932D01*
X83429657Y-61093719D01*
X83429655Y-61093718D01*
X83284999Y-60975001D01*
X83166282Y-60830345D01*
X83078068Y-60665308D01*
X83023746Y-60486232D01*
X83005404Y-60300000D01*
X83023746Y-60113768D01*
X83078068Y-59934692D01*
X83166282Y-59769655D01*
X83284999Y-59624999D01*
X83429655Y-59506282D01*
X83594692Y-59418068D01*
X83773768Y-59363746D01*
X83915781Y-59349759D01*
X83925394Y-59347847D01*
X83934450Y-59344096D01*
X83942600Y-59338650D01*
X83949531Y-59331720D01*
X83954976Y-59323570D01*
X83958727Y-59314514D01*
X83960639Y-59304901D01*
X83960639Y-59295099D01*
X83958727Y-59285486D01*
X83954976Y-59276430D01*
X83949530Y-59268280D01*
X83942600Y-59261349D01*
X83934450Y-59255904D01*
X83925394Y-59252153D01*
X83915781Y-59250241D01*
X83773768Y-59236254D01*
X83594692Y-59181932D01*
X83429657Y-59093719D01*
X83429655Y-59093718D01*
X83284999Y-58975001D01*
X83166282Y-58830345D01*
X83078068Y-58665308D01*
X83023746Y-58486232D01*
X83005404Y-58300000D01*
X83023746Y-58113768D01*
X83078068Y-57934692D01*
X83166282Y-57769655D01*
X83284999Y-57624999D01*
X83429655Y-57506282D01*
X83594692Y-57418068D01*
X83773768Y-57363746D01*
X83913334Y-57350000D01*
X85506666Y-57350000D01*
X85646232Y-57363746D01*
X85646232Y-57363746D01*
G37*
G36*
X85646232Y-54863746D02*
X85825308Y-54918068D01*
X85990345Y-55006282D01*
X86135001Y-55124999D01*
X86253718Y-55269655D01*
X86341932Y-55434692D01*
X86396254Y-55613768D01*
X86414596Y-55800000D01*
X86396254Y-55986232D01*
X86341932Y-56165308D01*
X86253718Y-56330345D01*
X86135001Y-56475001D01*
X85990345Y-56593718D01*
X85990343Y-56593719D01*
X85825308Y-56681932D01*
X85646232Y-56736254D01*
X85506666Y-56750000D01*
X83913334Y-56750000D01*
X83773768Y-56736254D01*
X83594692Y-56681932D01*
X83429657Y-56593719D01*
X83429655Y-56593718D01*
X83284999Y-56475001D01*
X83166282Y-56330345D01*
X83078068Y-56165308D01*
X83023746Y-55986232D01*
X83005404Y-55800000D01*
X83023746Y-55613768D01*
X83078068Y-55434692D01*
X83166282Y-55269655D01*
X83284999Y-55124999D01*
X83429655Y-55006282D01*
X83594692Y-54918068D01*
X83773768Y-54863746D01*
X83913334Y-54850000D01*
X85506666Y-54850000D01*
X85646232Y-54863746D01*
X85646232Y-54863746D01*
G37*
G36*
X128304104Y-54146311D02*
X128304129Y-54146316D01*
X128475162Y-54217160D01*
X128526886Y-54251721D01*
X128629090Y-54320011D01*
X128759989Y-54450910D01*
X128817172Y-54536491D01*
X128862840Y-54604838D01*
X128914554Y-54729688D01*
X128933684Y-54775871D01*
X128951164Y-54863746D01*
X128969800Y-54957438D01*
X128969800Y-55142562D01*
X128933684Y-55324129D01*
X128862840Y-55495162D01*
X128821756Y-55556649D01*
X128759989Y-55649090D01*
X128629090Y-55779989D01*
X128536649Y-55841756D01*
X128475162Y-55882840D01*
X128394662Y-55916184D01*
X128304129Y-55953684D01*
X128122563Y-55989800D01*
X127937437Y-55989800D01*
X127755871Y-55953684D01*
X127665338Y-55916184D01*
X127584838Y-55882840D01*
X127523351Y-55841756D01*
X127430910Y-55779989D01*
X127300011Y-55649090D01*
X127238244Y-55556649D01*
X127197160Y-55495162D01*
X127126316Y-55324129D01*
X127090200Y-55142562D01*
X127090200Y-54957438D01*
X127108837Y-54863746D01*
X127126316Y-54775871D01*
X127145446Y-54729688D01*
X127197160Y-54604838D01*
X127242828Y-54536491D01*
X127300011Y-54450910D01*
X127430910Y-54320011D01*
X127533114Y-54251721D01*
X127584838Y-54217160D01*
X127755871Y-54146316D01*
X127755896Y-54146311D01*
X127937437Y-54110200D01*
X128122563Y-54110200D01*
X128304104Y-54146311D01*
X128304104Y-54146311D01*
G37*
G36*
X123224104Y-54146311D02*
X123224129Y-54146316D01*
X123395162Y-54217160D01*
X123446886Y-54251721D01*
X123549090Y-54320011D01*
X123679989Y-54450910D01*
X123737172Y-54536491D01*
X123782840Y-54604838D01*
X123834554Y-54729688D01*
X123853684Y-54775871D01*
X123871164Y-54863746D01*
X123889800Y-54957438D01*
X123889800Y-55142562D01*
X123853684Y-55324129D01*
X123782840Y-55495162D01*
X123741756Y-55556649D01*
X123679989Y-55649090D01*
X123549090Y-55779989D01*
X123456649Y-55841756D01*
X123395162Y-55882840D01*
X123314662Y-55916184D01*
X123224129Y-55953684D01*
X123042563Y-55989800D01*
X122857437Y-55989800D01*
X122675871Y-55953684D01*
X122585338Y-55916184D01*
X122504838Y-55882840D01*
X122443351Y-55841756D01*
X122350910Y-55779989D01*
X122220011Y-55649090D01*
X122158244Y-55556649D01*
X122117160Y-55495162D01*
X122046316Y-55324129D01*
X122010200Y-55142562D01*
X122010200Y-54957438D01*
X122028837Y-54863746D01*
X122046316Y-54775871D01*
X122065446Y-54729688D01*
X122117160Y-54604838D01*
X122162828Y-54536491D01*
X122220011Y-54450910D01*
X122350910Y-54320011D01*
X122453114Y-54251721D01*
X122504838Y-54217160D01*
X122675871Y-54146316D01*
X122675896Y-54146311D01*
X122857437Y-54110200D01*
X123042563Y-54110200D01*
X123224104Y-54146311D01*
X123224104Y-54146311D01*
G37*
G36*
X125764104Y-54146311D02*
X125764129Y-54146316D01*
X125935162Y-54217160D01*
X125986886Y-54251721D01*
X126089090Y-54320011D01*
X126219989Y-54450910D01*
X126277172Y-54536491D01*
X126322840Y-54604838D01*
X126374554Y-54729688D01*
X126393684Y-54775871D01*
X126411164Y-54863746D01*
X126429800Y-54957438D01*
X126429800Y-55142562D01*
X126393684Y-55324129D01*
X126322840Y-55495162D01*
X126281756Y-55556649D01*
X126219989Y-55649090D01*
X126089090Y-55779989D01*
X125996649Y-55841756D01*
X125935162Y-55882840D01*
X125854662Y-55916184D01*
X125764129Y-55953684D01*
X125582563Y-55989800D01*
X125397437Y-55989800D01*
X125215871Y-55953684D01*
X125125338Y-55916184D01*
X125044838Y-55882840D01*
X124983351Y-55841756D01*
X124890910Y-55779989D01*
X124760011Y-55649090D01*
X124698244Y-55556649D01*
X124657160Y-55495162D01*
X124586316Y-55324129D01*
X124550200Y-55142562D01*
X124550200Y-54957438D01*
X124568837Y-54863746D01*
X124586316Y-54775871D01*
X124605446Y-54729688D01*
X124657160Y-54604838D01*
X124702828Y-54536491D01*
X124760011Y-54450910D01*
X124890910Y-54320011D01*
X124993114Y-54251721D01*
X125044838Y-54217160D01*
X125215871Y-54146316D01*
X125215896Y-54146311D01*
X125397437Y-54110200D01*
X125582563Y-54110200D01*
X125764104Y-54146311D01*
X125764104Y-54146311D01*
G37*
G36*
X130844104Y-54146311D02*
X130844129Y-54146316D01*
X131015162Y-54217160D01*
X131066886Y-54251721D01*
X131169090Y-54320011D01*
X131299989Y-54450910D01*
X131357172Y-54536491D01*
X131402840Y-54604838D01*
X131454554Y-54729688D01*
X131473684Y-54775871D01*
X131491164Y-54863746D01*
X131509800Y-54957438D01*
X131509800Y-55142562D01*
X131473684Y-55324129D01*
X131402840Y-55495162D01*
X131361756Y-55556649D01*
X131299989Y-55649090D01*
X131169090Y-55779989D01*
X131076649Y-55841756D01*
X131015162Y-55882840D01*
X130934662Y-55916184D01*
X130844129Y-55953684D01*
X130662563Y-55989800D01*
X130477437Y-55989800D01*
X130295871Y-55953684D01*
X130205338Y-55916184D01*
X130124838Y-55882840D01*
X130063351Y-55841756D01*
X129970910Y-55779989D01*
X129840011Y-55649090D01*
X129778244Y-55556649D01*
X129737160Y-55495162D01*
X129666316Y-55324129D01*
X129630200Y-55142562D01*
X129630200Y-54957438D01*
X129648837Y-54863746D01*
X129666316Y-54775871D01*
X129685446Y-54729688D01*
X129737160Y-54604838D01*
X129782828Y-54536491D01*
X129840011Y-54450910D01*
X129970910Y-54320011D01*
X130073114Y-54251721D01*
X130124838Y-54217160D01*
X130295871Y-54146316D01*
X130295896Y-54146311D01*
X130477437Y-54110200D01*
X130662563Y-54110200D01*
X130844104Y-54146311D01*
X130844104Y-54146311D01*
G37*
G36*
X133384104Y-54146311D02*
X133384129Y-54146316D01*
X133555162Y-54217160D01*
X133606886Y-54251721D01*
X133709090Y-54320011D01*
X133839989Y-54450910D01*
X133897172Y-54536491D01*
X133942840Y-54604838D01*
X133994554Y-54729688D01*
X134013684Y-54775871D01*
X134031164Y-54863746D01*
X134049800Y-54957438D01*
X134049800Y-55142562D01*
X134013684Y-55324129D01*
X133942840Y-55495162D01*
X133901756Y-55556649D01*
X133839989Y-55649090D01*
X133709090Y-55779989D01*
X133616649Y-55841756D01*
X133555162Y-55882840D01*
X133474662Y-55916184D01*
X133384129Y-55953684D01*
X133202563Y-55989800D01*
X133017437Y-55989800D01*
X132835871Y-55953684D01*
X132745338Y-55916184D01*
X132664838Y-55882840D01*
X132603351Y-55841756D01*
X132510910Y-55779989D01*
X132380011Y-55649090D01*
X132318244Y-55556649D01*
X132277160Y-55495162D01*
X132206316Y-55324129D01*
X132170200Y-55142562D01*
X132170200Y-54957438D01*
X132188837Y-54863746D01*
X132206316Y-54775871D01*
X132225446Y-54729688D01*
X132277160Y-54604838D01*
X132322828Y-54536491D01*
X132380011Y-54450910D01*
X132510910Y-54320011D01*
X132613114Y-54251721D01*
X132664838Y-54217160D01*
X132835871Y-54146316D01*
X132835896Y-54146311D01*
X133017437Y-54110200D01*
X133202563Y-54110200D01*
X133384104Y-54146311D01*
X133384104Y-54146311D01*
G37*
G36*
X120684104Y-54146311D02*
X120684129Y-54146316D01*
X120855162Y-54217160D01*
X120906886Y-54251721D01*
X121009090Y-54320011D01*
X121139989Y-54450910D01*
X121197172Y-54536491D01*
X121242840Y-54604838D01*
X121294554Y-54729688D01*
X121313684Y-54775871D01*
X121331164Y-54863746D01*
X121349800Y-54957438D01*
X121349800Y-55142562D01*
X121313684Y-55324129D01*
X121242840Y-55495162D01*
X121201756Y-55556649D01*
X121139989Y-55649090D01*
X121009090Y-55779989D01*
X120916649Y-55841756D01*
X120855162Y-55882840D01*
X120774662Y-55916184D01*
X120684129Y-55953684D01*
X120502563Y-55989800D01*
X120317437Y-55989800D01*
X120135871Y-55953684D01*
X120045338Y-55916184D01*
X119964838Y-55882840D01*
X119903351Y-55841756D01*
X119810910Y-55779989D01*
X119680011Y-55649090D01*
X119618244Y-55556649D01*
X119577160Y-55495162D01*
X119506316Y-55324129D01*
X119470200Y-55142562D01*
X119470200Y-54957438D01*
X119488837Y-54863746D01*
X119506316Y-54775871D01*
X119525446Y-54729688D01*
X119577160Y-54604838D01*
X119622828Y-54536491D01*
X119680011Y-54450910D01*
X119810910Y-54320011D01*
X119913114Y-54251721D01*
X119964838Y-54217160D01*
X120135871Y-54146316D01*
X120135896Y-54146311D01*
X120317437Y-54110200D01*
X120502563Y-54110200D01*
X120684104Y-54146311D01*
X120684104Y-54146311D01*
G37*
G36*
X143544104Y-54146311D02*
X143544129Y-54146316D01*
X143715162Y-54217160D01*
X143766886Y-54251721D01*
X143869090Y-54320011D01*
X143999989Y-54450910D01*
X144057172Y-54536491D01*
X144102840Y-54604838D01*
X144154554Y-54729688D01*
X144173684Y-54775871D01*
X144191164Y-54863746D01*
X144209800Y-54957438D01*
X144209800Y-55142562D01*
X144173684Y-55324129D01*
X144102840Y-55495162D01*
X144061756Y-55556649D01*
X143999989Y-55649090D01*
X143869090Y-55779989D01*
X143776649Y-55841756D01*
X143715162Y-55882840D01*
X143634662Y-55916184D01*
X143544129Y-55953684D01*
X143362563Y-55989800D01*
X143177437Y-55989800D01*
X142995871Y-55953684D01*
X142905338Y-55916184D01*
X142824838Y-55882840D01*
X142763351Y-55841756D01*
X142670910Y-55779989D01*
X142540011Y-55649090D01*
X142478244Y-55556649D01*
X142437160Y-55495162D01*
X142366316Y-55324129D01*
X142330200Y-55142562D01*
X142330200Y-54957438D01*
X142348837Y-54863746D01*
X142366316Y-54775871D01*
X142385446Y-54729688D01*
X142437160Y-54604838D01*
X142482828Y-54536491D01*
X142540011Y-54450910D01*
X142670910Y-54320011D01*
X142773114Y-54251721D01*
X142824838Y-54217160D01*
X142995871Y-54146316D01*
X142995896Y-54146311D01*
X143177437Y-54110200D01*
X143362563Y-54110200D01*
X143544104Y-54146311D01*
X143544104Y-54146311D01*
G37*
G36*
X118144104Y-54146311D02*
X118144129Y-54146316D01*
X118315162Y-54217160D01*
X118366886Y-54251721D01*
X118469090Y-54320011D01*
X118599989Y-54450910D01*
X118657172Y-54536491D01*
X118702840Y-54604838D01*
X118754554Y-54729688D01*
X118773684Y-54775871D01*
X118791164Y-54863746D01*
X118809800Y-54957438D01*
X118809800Y-55142562D01*
X118773684Y-55324129D01*
X118702840Y-55495162D01*
X118661756Y-55556649D01*
X118599989Y-55649090D01*
X118469090Y-55779989D01*
X118376649Y-55841756D01*
X118315162Y-55882840D01*
X118234662Y-55916184D01*
X118144129Y-55953684D01*
X117962563Y-55989800D01*
X117777437Y-55989800D01*
X117595871Y-55953684D01*
X117505338Y-55916184D01*
X117424838Y-55882840D01*
X117363351Y-55841756D01*
X117270910Y-55779989D01*
X117140011Y-55649090D01*
X117078244Y-55556649D01*
X117037160Y-55495162D01*
X116966316Y-55324129D01*
X116930200Y-55142562D01*
X116930200Y-54957438D01*
X116948837Y-54863746D01*
X116966316Y-54775871D01*
X116985446Y-54729688D01*
X117037160Y-54604838D01*
X117082828Y-54536491D01*
X117140011Y-54450910D01*
X117270910Y-54320011D01*
X117373114Y-54251721D01*
X117424838Y-54217160D01*
X117595871Y-54146316D01*
X117595896Y-54146311D01*
X117777437Y-54110200D01*
X117962563Y-54110200D01*
X118144104Y-54146311D01*
X118144104Y-54146311D01*
G37*
G36*
X138464104Y-54146311D02*
X138464129Y-54146316D01*
X138635162Y-54217160D01*
X138686886Y-54251721D01*
X138789090Y-54320011D01*
X138919989Y-54450910D01*
X138977172Y-54536491D01*
X139022840Y-54604838D01*
X139074554Y-54729688D01*
X139093684Y-54775871D01*
X139111164Y-54863746D01*
X139129800Y-54957438D01*
X139129800Y-55142562D01*
X139093684Y-55324129D01*
X139022840Y-55495162D01*
X138981756Y-55556649D01*
X138919989Y-55649090D01*
X138789090Y-55779989D01*
X138696649Y-55841756D01*
X138635162Y-55882840D01*
X138554662Y-55916184D01*
X138464129Y-55953684D01*
X138282563Y-55989800D01*
X138097437Y-55989800D01*
X137915871Y-55953684D01*
X137825338Y-55916184D01*
X137744838Y-55882840D01*
X137683351Y-55841756D01*
X137590910Y-55779989D01*
X137460011Y-55649090D01*
X137398244Y-55556649D01*
X137357160Y-55495162D01*
X137286316Y-55324129D01*
X137250200Y-55142562D01*
X137250200Y-54957438D01*
X137268837Y-54863746D01*
X137286316Y-54775871D01*
X137305446Y-54729688D01*
X137357160Y-54604838D01*
X137402828Y-54536491D01*
X137460011Y-54450910D01*
X137590910Y-54320011D01*
X137693114Y-54251721D01*
X137744838Y-54217160D01*
X137915871Y-54146316D01*
X137915896Y-54146311D01*
X138097437Y-54110200D01*
X138282563Y-54110200D01*
X138464104Y-54146311D01*
X138464104Y-54146311D01*
G37*
G36*
X146084104Y-54146311D02*
X146084129Y-54146316D01*
X146255162Y-54217160D01*
X146306886Y-54251721D01*
X146409090Y-54320011D01*
X146539989Y-54450910D01*
X146597172Y-54536491D01*
X146642840Y-54604838D01*
X146694554Y-54729688D01*
X146713684Y-54775871D01*
X146731164Y-54863746D01*
X146749800Y-54957438D01*
X146749800Y-55142562D01*
X146713684Y-55324129D01*
X146642840Y-55495162D01*
X146601756Y-55556649D01*
X146539989Y-55649090D01*
X146409090Y-55779989D01*
X146316649Y-55841756D01*
X146255162Y-55882840D01*
X146174662Y-55916184D01*
X146084129Y-55953684D01*
X145902563Y-55989800D01*
X145717437Y-55989800D01*
X145535871Y-55953684D01*
X145445338Y-55916184D01*
X145364838Y-55882840D01*
X145303351Y-55841756D01*
X145210910Y-55779989D01*
X145080011Y-55649090D01*
X145018244Y-55556649D01*
X144977160Y-55495162D01*
X144906316Y-55324129D01*
X144870200Y-55142562D01*
X144870200Y-54957438D01*
X144888837Y-54863746D01*
X144906316Y-54775871D01*
X144925446Y-54729688D01*
X144977160Y-54604838D01*
X145022828Y-54536491D01*
X145080011Y-54450910D01*
X145210910Y-54320011D01*
X145313114Y-54251721D01*
X145364838Y-54217160D01*
X145535871Y-54146316D01*
X145535896Y-54146311D01*
X145717437Y-54110200D01*
X145902563Y-54110200D01*
X146084104Y-54146311D01*
X146084104Y-54146311D01*
G37*
G36*
X135924104Y-54146311D02*
X135924129Y-54146316D01*
X136095162Y-54217160D01*
X136146886Y-54251721D01*
X136249090Y-54320011D01*
X136379989Y-54450910D01*
X136437172Y-54536491D01*
X136482840Y-54604838D01*
X136534554Y-54729688D01*
X136553684Y-54775871D01*
X136571164Y-54863746D01*
X136589800Y-54957438D01*
X136589800Y-55142562D01*
X136553684Y-55324129D01*
X136482840Y-55495162D01*
X136441756Y-55556649D01*
X136379989Y-55649090D01*
X136249090Y-55779989D01*
X136156649Y-55841756D01*
X136095162Y-55882840D01*
X136014662Y-55916184D01*
X135924129Y-55953684D01*
X135742563Y-55989800D01*
X135557437Y-55989800D01*
X135375871Y-55953684D01*
X135285338Y-55916184D01*
X135204838Y-55882840D01*
X135143351Y-55841756D01*
X135050910Y-55779989D01*
X134920011Y-55649090D01*
X134858244Y-55556649D01*
X134817160Y-55495162D01*
X134746316Y-55324129D01*
X134710200Y-55142562D01*
X134710200Y-54957438D01*
X134728837Y-54863746D01*
X134746316Y-54775871D01*
X134765446Y-54729688D01*
X134817160Y-54604838D01*
X134862828Y-54536491D01*
X134920011Y-54450910D01*
X135050910Y-54320011D01*
X135153114Y-54251721D01*
X135204838Y-54217160D01*
X135375871Y-54146316D01*
X135375896Y-54146311D01*
X135557437Y-54110200D01*
X135742563Y-54110200D01*
X135924104Y-54146311D01*
X135924104Y-54146311D01*
G37*
G36*
X141004104Y-54146311D02*
X141004129Y-54146316D01*
X141175162Y-54217160D01*
X141226886Y-54251721D01*
X141329090Y-54320011D01*
X141459989Y-54450910D01*
X141517172Y-54536491D01*
X141562840Y-54604838D01*
X141614554Y-54729688D01*
X141633684Y-54775871D01*
X141651164Y-54863746D01*
X141669800Y-54957438D01*
X141669800Y-55142562D01*
X141633684Y-55324129D01*
X141562840Y-55495162D01*
X141521756Y-55556649D01*
X141459989Y-55649090D01*
X141329090Y-55779989D01*
X141236649Y-55841756D01*
X141175162Y-55882840D01*
X141094662Y-55916184D01*
X141004129Y-55953684D01*
X140822563Y-55989800D01*
X140637437Y-55989800D01*
X140455871Y-55953684D01*
X140365338Y-55916184D01*
X140284838Y-55882840D01*
X140223351Y-55841756D01*
X140130910Y-55779989D01*
X140000011Y-55649090D01*
X139938244Y-55556649D01*
X139897160Y-55495162D01*
X139826316Y-55324129D01*
X139790200Y-55142562D01*
X139790200Y-54957438D01*
X139808837Y-54863746D01*
X139826316Y-54775871D01*
X139845446Y-54729688D01*
X139897160Y-54604838D01*
X139942828Y-54536491D01*
X140000011Y-54450910D01*
X140130910Y-54320011D01*
X140233114Y-54251721D01*
X140284838Y-54217160D01*
X140455871Y-54146316D01*
X140455896Y-54146311D01*
X140637437Y-54110200D01*
X140822563Y-54110200D01*
X141004104Y-54146311D01*
X141004104Y-54146311D01*
G37*
G36*
X113690800Y-55950800D02*
X111889200Y-55950800D01*
X111889200Y-54149200D01*
X113690800Y-54149200D01*
X113690800Y-55950800D01*
X113690800Y-55950800D01*
G37*
G36*
X115592752Y-54183816D02*
X115592755Y-54183817D01*
X115592754Y-54183817D01*
X115756689Y-54251721D01*
X115854826Y-54317294D01*
X115904229Y-54350304D01*
X116029696Y-54475771D01*
X116029697Y-54475773D01*
X116128279Y-54623311D01*
X116172342Y-54729688D01*
X116196184Y-54787248D01*
X116230800Y-54961277D01*
X116230800Y-55138723D01*
X116196184Y-55312752D01*
X116176295Y-55360768D01*
X116128279Y-55476689D01*
X116062706Y-55574826D01*
X116029696Y-55624229D01*
X115904229Y-55749696D01*
X115858892Y-55779989D01*
X115756689Y-55848279D01*
X115673251Y-55882840D01*
X115592752Y-55916184D01*
X115418723Y-55950800D01*
X115241277Y-55950800D01*
X115067248Y-55916184D01*
X114986749Y-55882840D01*
X114903311Y-55848279D01*
X114801108Y-55779989D01*
X114755771Y-55749696D01*
X114630304Y-55624229D01*
X114597294Y-55574826D01*
X114531721Y-55476689D01*
X114483705Y-55360768D01*
X114463816Y-55312752D01*
X114429200Y-55138723D01*
X114429200Y-54961277D01*
X114463816Y-54787248D01*
X114487658Y-54729688D01*
X114531721Y-54623311D01*
X114630303Y-54475773D01*
X114630304Y-54475771D01*
X114755771Y-54350304D01*
X114805174Y-54317294D01*
X114903311Y-54251721D01*
X115067246Y-54183817D01*
X115067245Y-54183817D01*
X115067248Y-54183816D01*
X115241277Y-54149200D01*
X115418723Y-54149200D01*
X115592752Y-54183816D01*
X115592752Y-54183816D01*
G37*
G36*
X101951688Y-53476428D02*
X102058295Y-53520586D01*
X102133678Y-53551811D01*
X102242622Y-53624605D01*
X102297465Y-53661250D01*
X102436750Y-53800535D01*
X102436751Y-53800537D01*
X102546189Y-53964322D01*
X102546189Y-53964323D01*
X102621572Y-54146312D01*
X102660000Y-54339507D01*
X102660000Y-54536493D01*
X102621572Y-54729688D01*
X102577414Y-54836295D01*
X102546189Y-54911678D01*
X102482977Y-55006281D01*
X102436750Y-55075465D01*
X102297465Y-55214750D01*
X102242622Y-55251395D01*
X102133678Y-55324189D01*
X102058295Y-55355414D01*
X101951688Y-55399572D01*
X101758493Y-55438000D01*
X101561507Y-55438000D01*
X101368312Y-55399572D01*
X101261705Y-55355414D01*
X101186322Y-55324189D01*
X101077378Y-55251395D01*
X101022535Y-55214750D01*
X100883250Y-55075465D01*
X100837023Y-55006281D01*
X100773811Y-54911678D01*
X100742586Y-54836295D01*
X100698428Y-54729688D01*
X100660000Y-54536493D01*
X100660000Y-54339507D01*
X100698428Y-54146312D01*
X100773811Y-53964323D01*
X100773811Y-53964322D01*
X100883249Y-53800537D01*
X100883250Y-53800535D01*
X101022535Y-53661250D01*
X101077378Y-53624605D01*
X101186322Y-53551811D01*
X101261705Y-53520586D01*
X101368312Y-53476428D01*
X101561507Y-53438000D01*
X101758493Y-53438000D01*
X101951688Y-53476428D01*
X101951688Y-53476428D01*
G37*
G36*
X104491688Y-53476428D02*
X104598295Y-53520586D01*
X104673678Y-53551811D01*
X104782622Y-53624605D01*
X104837465Y-53661250D01*
X104976750Y-53800535D01*
X104976751Y-53800537D01*
X105086189Y-53964322D01*
X105086189Y-53964323D01*
X105161572Y-54146312D01*
X105200000Y-54339507D01*
X105200000Y-54536493D01*
X105161572Y-54729688D01*
X105117414Y-54836295D01*
X105086189Y-54911678D01*
X105022977Y-55006281D01*
X104976750Y-55075465D01*
X104837465Y-55214750D01*
X104782622Y-55251395D01*
X104673678Y-55324189D01*
X104598295Y-55355414D01*
X104491688Y-55399572D01*
X104298493Y-55438000D01*
X104101507Y-55438000D01*
X103908312Y-55399572D01*
X103801705Y-55355414D01*
X103726322Y-55324189D01*
X103617378Y-55251395D01*
X103562535Y-55214750D01*
X103423250Y-55075465D01*
X103377023Y-55006281D01*
X103313811Y-54911678D01*
X103282586Y-54836295D01*
X103238428Y-54729688D01*
X103200000Y-54536493D01*
X103200000Y-54339507D01*
X103238428Y-54146312D01*
X103313811Y-53964323D01*
X103313811Y-53964322D01*
X103423249Y-53800537D01*
X103423250Y-53800535D01*
X103562535Y-53661250D01*
X103617378Y-53624605D01*
X103726322Y-53551811D01*
X103801705Y-53520586D01*
X103908312Y-53476428D01*
X104101507Y-53438000D01*
X104298493Y-53438000D01*
X104491688Y-53476428D01*
X104491688Y-53476428D01*
G37*
G36*
X99411688Y-53476428D02*
X99518295Y-53520586D01*
X99593678Y-53551811D01*
X99702622Y-53624605D01*
X99757465Y-53661250D01*
X99896750Y-53800535D01*
X99896751Y-53800537D01*
X100006189Y-53964322D01*
X100006189Y-53964323D01*
X100081572Y-54146312D01*
X100120000Y-54339507D01*
X100120000Y-54536493D01*
X100081572Y-54729688D01*
X100037414Y-54836295D01*
X100006189Y-54911678D01*
X99942977Y-55006281D01*
X99896750Y-55075465D01*
X99757465Y-55214750D01*
X99702622Y-55251395D01*
X99593678Y-55324189D01*
X99518295Y-55355414D01*
X99411688Y-55399572D01*
X99218493Y-55438000D01*
X99021507Y-55438000D01*
X98828312Y-55399572D01*
X98721705Y-55355414D01*
X98646322Y-55324189D01*
X98537378Y-55251395D01*
X98482535Y-55214750D01*
X98343250Y-55075465D01*
X98297023Y-55006281D01*
X98233811Y-54911678D01*
X98202586Y-54836295D01*
X98158428Y-54729688D01*
X98120000Y-54536493D01*
X98120000Y-54339507D01*
X98158428Y-54146312D01*
X98233811Y-53964323D01*
X98233811Y-53964322D01*
X98343249Y-53800537D01*
X98343250Y-53800535D01*
X98482535Y-53661250D01*
X98537378Y-53624605D01*
X98646322Y-53551811D01*
X98721705Y-53520586D01*
X98828312Y-53476428D01*
X99021507Y-53438000D01*
X99218493Y-53438000D01*
X99411688Y-53476428D01*
X99411688Y-53476428D01*
G37*
G36*
X96871688Y-53476428D02*
X96978295Y-53520586D01*
X97053678Y-53551811D01*
X97162622Y-53624605D01*
X97217465Y-53661250D01*
X97356750Y-53800535D01*
X97356751Y-53800537D01*
X97466189Y-53964322D01*
X97466189Y-53964323D01*
X97541572Y-54146312D01*
X97580000Y-54339507D01*
X97580000Y-54536493D01*
X97541572Y-54729688D01*
X97497414Y-54836295D01*
X97466189Y-54911678D01*
X97402977Y-55006281D01*
X97356750Y-55075465D01*
X97217465Y-55214750D01*
X97162622Y-55251395D01*
X97053678Y-55324189D01*
X96978295Y-55355414D01*
X96871688Y-55399572D01*
X96678493Y-55438000D01*
X96481507Y-55438000D01*
X96288312Y-55399572D01*
X96181705Y-55355414D01*
X96106322Y-55324189D01*
X95997378Y-55251395D01*
X95942535Y-55214750D01*
X95803250Y-55075465D01*
X95757023Y-55006281D01*
X95693811Y-54911678D01*
X95662586Y-54836295D01*
X95618428Y-54729688D01*
X95580000Y-54536493D01*
X95580000Y-54339507D01*
X95618428Y-54146312D01*
X95693811Y-53964323D01*
X95693811Y-53964322D01*
X95803249Y-53800537D01*
X95803250Y-53800535D01*
X95942535Y-53661250D01*
X95997378Y-53624605D01*
X96106322Y-53551811D01*
X96181705Y-53520586D01*
X96288312Y-53476428D01*
X96481507Y-53438000D01*
X96678493Y-53438000D01*
X96871688Y-53476428D01*
X96871688Y-53476428D01*
G37*
G36*
X82351162Y-51464586D02*
X82525041Y-51499173D01*
X82852620Y-51634861D01*
X83088152Y-51792238D01*
X83147435Y-51831850D01*
X83398150Y-52082565D01*
X83398151Y-52082567D01*
X83595139Y-52377380D01*
X83718314Y-52674750D01*
X83730827Y-52704960D01*
X83800000Y-53052715D01*
X83800000Y-53407285D01*
X83786246Y-53476429D01*
X83730827Y-53755041D01*
X83595139Y-54082620D01*
X83505242Y-54217160D01*
X83398150Y-54377435D01*
X83147435Y-54628150D01*
X83088152Y-54667762D01*
X82852620Y-54825139D01*
X82525041Y-54960827D01*
X82351163Y-54995413D01*
X82177285Y-55030000D01*
X81822715Y-55030000D01*
X81648837Y-54995413D01*
X81474959Y-54960827D01*
X81147380Y-54825139D01*
X80911848Y-54667762D01*
X80852565Y-54628150D01*
X80601850Y-54377435D01*
X80494758Y-54217160D01*
X80404861Y-54082620D01*
X80269173Y-53755041D01*
X80213754Y-53476429D01*
X80200000Y-53407285D01*
X80200000Y-53052715D01*
X80269173Y-52704960D01*
X80281686Y-52674750D01*
X80404861Y-52377380D01*
X80601849Y-52082567D01*
X80601850Y-52082565D01*
X80852565Y-51831850D01*
X80911848Y-51792238D01*
X81147380Y-51634861D01*
X81474959Y-51499173D01*
X81648838Y-51464586D01*
X81822715Y-51430000D01*
X82177285Y-51430000D01*
X82351162Y-51464586D01*
X82351162Y-51464586D01*
G37*
G36*
X105761688Y-50936428D02*
X105868295Y-50980586D01*
X105943678Y-51011811D01*
X106052622Y-51084605D01*
X106107465Y-51121250D01*
X106246750Y-51260535D01*
X106246751Y-51260537D01*
X106356189Y-51424322D01*
X106356189Y-51424323D01*
X106431572Y-51606312D01*
X106470000Y-51799507D01*
X106470000Y-51996493D01*
X106431572Y-52189688D01*
X106387414Y-52296295D01*
X106356189Y-52371678D01*
X106283395Y-52480622D01*
X106246750Y-52535465D01*
X106107465Y-52674750D01*
X106062254Y-52704959D01*
X105943678Y-52784189D01*
X105868295Y-52815414D01*
X105761688Y-52859572D01*
X105568493Y-52898000D01*
X105371507Y-52898000D01*
X105178312Y-52859572D01*
X105071705Y-52815414D01*
X104996322Y-52784189D01*
X104877746Y-52704959D01*
X104832535Y-52674750D01*
X104693250Y-52535465D01*
X104656605Y-52480622D01*
X104583811Y-52371678D01*
X104552586Y-52296295D01*
X104508428Y-52189688D01*
X104470000Y-51996493D01*
X104470000Y-51799507D01*
X104508428Y-51606312D01*
X104583811Y-51424323D01*
X104583811Y-51424322D01*
X104693249Y-51260537D01*
X104693250Y-51260535D01*
X104832535Y-51121250D01*
X104887378Y-51084605D01*
X104996322Y-51011811D01*
X105071705Y-50980586D01*
X105178312Y-50936428D01*
X105371507Y-50898000D01*
X105568493Y-50898000D01*
X105761688Y-50936428D01*
X105761688Y-50936428D01*
G37*
G36*
X103221688Y-50936428D02*
X103328295Y-50980586D01*
X103403678Y-51011811D01*
X103512622Y-51084605D01*
X103567465Y-51121250D01*
X103706750Y-51260535D01*
X103706751Y-51260537D01*
X103816189Y-51424322D01*
X103816189Y-51424323D01*
X103891572Y-51606312D01*
X103930000Y-51799507D01*
X103930000Y-51996493D01*
X103891572Y-52189688D01*
X103847414Y-52296295D01*
X103816189Y-52371678D01*
X103743395Y-52480622D01*
X103706750Y-52535465D01*
X103567465Y-52674750D01*
X103522254Y-52704959D01*
X103403678Y-52784189D01*
X103328295Y-52815414D01*
X103221688Y-52859572D01*
X103028493Y-52898000D01*
X102831507Y-52898000D01*
X102638312Y-52859572D01*
X102531705Y-52815414D01*
X102456322Y-52784189D01*
X102337746Y-52704959D01*
X102292535Y-52674750D01*
X102153250Y-52535465D01*
X102116605Y-52480622D01*
X102043811Y-52371678D01*
X102012586Y-52296295D01*
X101968428Y-52189688D01*
X101930000Y-51996493D01*
X101930000Y-51799507D01*
X101968428Y-51606312D01*
X102043811Y-51424323D01*
X102043811Y-51424322D01*
X102153249Y-51260537D01*
X102153250Y-51260535D01*
X102292535Y-51121250D01*
X102347378Y-51084605D01*
X102456322Y-51011811D01*
X102531705Y-50980586D01*
X102638312Y-50936428D01*
X102831507Y-50898000D01*
X103028493Y-50898000D01*
X103221688Y-50936428D01*
X103221688Y-50936428D01*
G37*
G36*
X100681688Y-50936428D02*
X100788295Y-50980586D01*
X100863678Y-51011811D01*
X100972622Y-51084605D01*
X101027465Y-51121250D01*
X101166750Y-51260535D01*
X101166751Y-51260537D01*
X101276189Y-51424322D01*
X101276189Y-51424323D01*
X101351572Y-51606312D01*
X101390000Y-51799507D01*
X101390000Y-51996493D01*
X101351572Y-52189688D01*
X101307414Y-52296295D01*
X101276189Y-52371678D01*
X101203395Y-52480622D01*
X101166750Y-52535465D01*
X101027465Y-52674750D01*
X100982254Y-52704959D01*
X100863678Y-52784189D01*
X100788295Y-52815414D01*
X100681688Y-52859572D01*
X100488493Y-52898000D01*
X100291507Y-52898000D01*
X100098312Y-52859572D01*
X99991705Y-52815414D01*
X99916322Y-52784189D01*
X99797746Y-52704959D01*
X99752535Y-52674750D01*
X99613250Y-52535465D01*
X99576605Y-52480622D01*
X99503811Y-52371678D01*
X99472586Y-52296295D01*
X99428428Y-52189688D01*
X99390000Y-51996493D01*
X99390000Y-51799507D01*
X99428428Y-51606312D01*
X99503811Y-51424323D01*
X99503811Y-51424322D01*
X99613249Y-51260537D01*
X99613250Y-51260535D01*
X99752535Y-51121250D01*
X99807378Y-51084605D01*
X99916322Y-51011811D01*
X99991705Y-50980586D01*
X100098312Y-50936428D01*
X100291507Y-50898000D01*
X100488493Y-50898000D01*
X100681688Y-50936428D01*
X100681688Y-50936428D01*
G37*
G36*
X98141688Y-50936428D02*
X98248295Y-50980586D01*
X98323678Y-51011811D01*
X98432622Y-51084605D01*
X98487465Y-51121250D01*
X98626750Y-51260535D01*
X98626751Y-51260537D01*
X98736189Y-51424322D01*
X98736189Y-51424323D01*
X98811572Y-51606312D01*
X98850000Y-51799507D01*
X98850000Y-51996493D01*
X98811572Y-52189688D01*
X98767414Y-52296295D01*
X98736189Y-52371678D01*
X98663395Y-52480622D01*
X98626750Y-52535465D01*
X98487465Y-52674750D01*
X98442254Y-52704959D01*
X98323678Y-52784189D01*
X98248295Y-52815414D01*
X98141688Y-52859572D01*
X97948493Y-52898000D01*
X97751507Y-52898000D01*
X97558312Y-52859572D01*
X97451705Y-52815414D01*
X97376322Y-52784189D01*
X97257746Y-52704959D01*
X97212535Y-52674750D01*
X97073250Y-52535465D01*
X97036605Y-52480622D01*
X96963811Y-52371678D01*
X96932586Y-52296295D01*
X96888428Y-52189688D01*
X96850000Y-51996493D01*
X96850000Y-51799507D01*
X96888428Y-51606312D01*
X96963811Y-51424323D01*
X96963811Y-51424322D01*
X97073249Y-51260537D01*
X97073250Y-51260535D01*
X97212535Y-51121250D01*
X97267378Y-51084605D01*
X97376322Y-51011811D01*
X97451705Y-50980586D01*
X97558312Y-50936428D01*
X97751507Y-50898000D01*
X97948493Y-50898000D01*
X98141688Y-50936428D01*
X98141688Y-50936428D01*
G37*
G36*
X153191129Y-48454316D02*
X153362162Y-48525160D01*
X153423649Y-48566244D01*
X153516090Y-48628011D01*
X153646989Y-48758910D01*
X153708756Y-48851351D01*
X153749840Y-48912838D01*
X153820684Y-49083871D01*
X153856800Y-49265438D01*
X153856800Y-49450562D01*
X153820684Y-49632129D01*
X153749840Y-49803162D01*
X153708756Y-49864649D01*
X153646989Y-49957090D01*
X153516090Y-50087989D01*
X153423649Y-50149756D01*
X153362162Y-50190840D01*
X153191129Y-50261684D01*
X153009563Y-50297800D01*
X152824437Y-50297800D01*
X152642871Y-50261684D01*
X152471838Y-50190840D01*
X152410351Y-50149756D01*
X152317910Y-50087989D01*
X152187011Y-49957090D01*
X152125244Y-49864649D01*
X152084160Y-49803162D01*
X152013316Y-49632129D01*
X151977200Y-49450562D01*
X151977200Y-49265438D01*
X152013316Y-49083871D01*
X152084160Y-48912838D01*
X152125244Y-48851351D01*
X152187011Y-48758910D01*
X152317910Y-48628011D01*
X152410351Y-48566244D01*
X152471838Y-48525160D01*
X152642871Y-48454316D01*
X152824437Y-48418200D01*
X153009563Y-48418200D01*
X153191129Y-48454316D01*
X153191129Y-48454316D01*
G37*
G36*
X158271129Y-48454316D02*
X158442162Y-48525160D01*
X158503649Y-48566244D01*
X158596090Y-48628011D01*
X158726989Y-48758910D01*
X158788756Y-48851351D01*
X158829840Y-48912838D01*
X158900684Y-49083871D01*
X158936800Y-49265438D01*
X158936800Y-49450562D01*
X158900684Y-49632129D01*
X158829840Y-49803162D01*
X158788756Y-49864649D01*
X158726989Y-49957090D01*
X158596090Y-50087989D01*
X158503649Y-50149756D01*
X158442162Y-50190840D01*
X158271129Y-50261684D01*
X158089563Y-50297800D01*
X157904437Y-50297800D01*
X157722871Y-50261684D01*
X157551838Y-50190840D01*
X157490351Y-50149756D01*
X157397910Y-50087989D01*
X157267011Y-49957090D01*
X157205244Y-49864649D01*
X157164160Y-49803162D01*
X157093316Y-49632129D01*
X157057200Y-49450562D01*
X157057200Y-49265438D01*
X157093316Y-49083871D01*
X157164160Y-48912838D01*
X157205244Y-48851351D01*
X157267011Y-48758910D01*
X157397910Y-48628011D01*
X157490351Y-48566244D01*
X157551838Y-48525160D01*
X157722871Y-48454316D01*
X157904437Y-48418200D01*
X158089563Y-48418200D01*
X158271129Y-48454316D01*
X158271129Y-48454316D01*
G37*
G36*
X160811129Y-48454316D02*
X160982162Y-48525160D01*
X161043649Y-48566244D01*
X161136090Y-48628011D01*
X161266989Y-48758910D01*
X161328756Y-48851351D01*
X161369840Y-48912838D01*
X161440684Y-49083871D01*
X161476800Y-49265438D01*
X161476800Y-49450562D01*
X161440684Y-49632129D01*
X161369840Y-49803162D01*
X161328756Y-49864649D01*
X161266989Y-49957090D01*
X161136090Y-50087989D01*
X161043649Y-50149756D01*
X160982162Y-50190840D01*
X160811129Y-50261684D01*
X160629563Y-50297800D01*
X160444437Y-50297800D01*
X160262871Y-50261684D01*
X160091838Y-50190840D01*
X160030351Y-50149756D01*
X159937910Y-50087989D01*
X159807011Y-49957090D01*
X159745244Y-49864649D01*
X159704160Y-49803162D01*
X159633316Y-49632129D01*
X159597200Y-49450562D01*
X159597200Y-49265438D01*
X159633316Y-49083871D01*
X159704160Y-48912838D01*
X159745244Y-48851351D01*
X159807011Y-48758910D01*
X159937910Y-48628011D01*
X160030351Y-48566244D01*
X160091838Y-48525160D01*
X160262871Y-48454316D01*
X160444437Y-48418200D01*
X160629563Y-48418200D01*
X160811129Y-48454316D01*
X160811129Y-48454316D01*
G37*
G36*
X150651129Y-48454316D02*
X150822162Y-48525160D01*
X150883649Y-48566244D01*
X150976090Y-48628011D01*
X151106989Y-48758910D01*
X151168756Y-48851351D01*
X151209840Y-48912838D01*
X151280684Y-49083871D01*
X151316800Y-49265438D01*
X151316800Y-49450562D01*
X151280684Y-49632129D01*
X151209840Y-49803162D01*
X151168756Y-49864649D01*
X151106989Y-49957090D01*
X150976090Y-50087989D01*
X150883649Y-50149756D01*
X150822162Y-50190840D01*
X150651129Y-50261684D01*
X150469563Y-50297800D01*
X150284437Y-50297800D01*
X150102871Y-50261684D01*
X149931838Y-50190840D01*
X149870351Y-50149756D01*
X149777910Y-50087989D01*
X149647011Y-49957090D01*
X149585244Y-49864649D01*
X149544160Y-49803162D01*
X149473316Y-49632129D01*
X149437200Y-49450562D01*
X149437200Y-49265438D01*
X149473316Y-49083871D01*
X149544160Y-48912838D01*
X149585244Y-48851351D01*
X149647011Y-48758910D01*
X149777910Y-48628011D01*
X149870351Y-48566244D01*
X149931838Y-48525160D01*
X150102871Y-48454316D01*
X150284437Y-48418200D01*
X150469563Y-48418200D01*
X150651129Y-48454316D01*
X150651129Y-48454316D01*
G37*
G36*
X155731129Y-48454316D02*
X155902162Y-48525160D01*
X155963649Y-48566244D01*
X156056090Y-48628011D01*
X156186989Y-48758910D01*
X156248756Y-48851351D01*
X156289840Y-48912838D01*
X156360684Y-49083871D01*
X156396800Y-49265438D01*
X156396800Y-49450562D01*
X156360684Y-49632129D01*
X156289840Y-49803162D01*
X156248756Y-49864649D01*
X156186989Y-49957090D01*
X156056090Y-50087989D01*
X155963649Y-50149756D01*
X155902162Y-50190840D01*
X155731129Y-50261684D01*
X155549563Y-50297800D01*
X155364437Y-50297800D01*
X155182871Y-50261684D01*
X155011838Y-50190840D01*
X154950351Y-50149756D01*
X154857910Y-50087989D01*
X154727011Y-49957090D01*
X154665244Y-49864649D01*
X154624160Y-49803162D01*
X154553316Y-49632129D01*
X154517200Y-49450562D01*
X154517200Y-49265438D01*
X154553316Y-49083871D01*
X154624160Y-48912838D01*
X154665244Y-48851351D01*
X154727011Y-48758910D01*
X154857910Y-48628011D01*
X154950351Y-48566244D01*
X155011838Y-48525160D01*
X155182871Y-48454316D01*
X155364437Y-48418200D01*
X155549563Y-48418200D01*
X155731129Y-48454316D01*
X155731129Y-48454316D01*
G37*
G36*
X95903793Y-43672937D02*
X96258672Y-43819933D01*
X96578054Y-44033337D01*
X96849663Y-44304946D01*
X97063067Y-44624328D01*
X97210063Y-44979207D01*
X97285000Y-45355941D01*
X97285000Y-45740059D01*
X97210063Y-46116793D01*
X97063067Y-46471672D01*
X96849663Y-46791054D01*
X96578054Y-47062663D01*
X96258672Y-47276067D01*
X95903793Y-47423063D01*
X95527059Y-47498000D01*
X95142941Y-47498000D01*
X94766207Y-47423063D01*
X94635081Y-47368749D01*
X94625701Y-47365904D01*
X94615947Y-47364943D01*
X94606192Y-47365904D01*
X94596813Y-47368749D01*
X94588168Y-47373370D01*
X94580592Y-47379588D01*
X94574373Y-47387165D01*
X94569753Y-47395809D01*
X94566908Y-47405189D01*
X94565947Y-47414943D01*
X94566908Y-47424698D01*
X94569753Y-47434077D01*
X94574370Y-47442715D01*
X94604283Y-47487483D01*
X94697956Y-47713631D01*
X94717357Y-47760468D01*
X94775000Y-48050261D01*
X94775000Y-48345739D01*
X94717357Y-48635532D01*
X94717356Y-48635534D01*
X94604283Y-48908517D01*
X94510570Y-49048768D01*
X94440125Y-49154197D01*
X94231197Y-49363125D01*
X94125768Y-49433570D01*
X93985517Y-49527283D01*
X93759369Y-49620956D01*
X93712532Y-49640357D01*
X93422739Y-49698000D01*
X93127261Y-49698000D01*
X92837468Y-49640357D01*
X92790631Y-49620956D01*
X92564483Y-49527283D01*
X92424232Y-49433570D01*
X92318803Y-49363125D01*
X92109875Y-49154197D01*
X92039430Y-49048768D01*
X91945717Y-48908517D01*
X91832644Y-48635534D01*
X91832643Y-48635532D01*
X91775000Y-48345739D01*
X91775000Y-48050261D01*
X91832643Y-47760468D01*
X91852044Y-47713631D01*
X91945717Y-47487483D01*
X92086981Y-47276067D01*
X92109875Y-47241803D01*
X92318803Y-47032875D01*
X92424232Y-46962430D01*
X92564483Y-46868717D01*
X92837466Y-46755644D01*
X92837465Y-46755644D01*
X92837468Y-46755643D01*
X93127261Y-46698000D01*
X93422739Y-46698000D01*
X93691184Y-46751396D01*
X93700938Y-46752357D01*
X93710693Y-46751396D01*
X93720072Y-46748551D01*
X93728717Y-46743930D01*
X93736293Y-46737712D01*
X93742512Y-46730135D01*
X93747132Y-46721491D01*
X93749977Y-46712111D01*
X93750938Y-46702357D01*
X93749977Y-46692602D01*
X93747132Y-46683223D01*
X93742511Y-46674578D01*
X93739091Y-46669459D01*
X93606933Y-46471671D01*
X93502237Y-46218913D01*
X93459937Y-46116793D01*
X93385000Y-45740059D01*
X93385000Y-45355941D01*
X93459937Y-44979207D01*
X93606933Y-44624328D01*
X93820337Y-44304946D01*
X94091946Y-44033337D01*
X94411328Y-43819933D01*
X94766207Y-43672937D01*
X95142941Y-43598000D01*
X95527059Y-43598000D01*
X95903793Y-43672937D01*
X95903793Y-43672937D01*
G37*
G36*
X107333793Y-43672937D02*
X107688672Y-43819933D01*
X108008054Y-44033337D01*
X108279663Y-44304946D01*
X108493067Y-44624328D01*
X108640063Y-44979207D01*
X108715000Y-45355941D01*
X108715000Y-45740059D01*
X108640063Y-46116793D01*
X108493067Y-46471672D01*
X108366686Y-46660814D01*
X108362065Y-46669459D01*
X108359220Y-46678838D01*
X108358259Y-46688593D01*
X108359220Y-46698347D01*
X108362065Y-46707727D01*
X108366685Y-46716371D01*
X108372904Y-46723948D01*
X108380480Y-46730166D01*
X108389125Y-46734787D01*
X108398504Y-46737632D01*
X108408259Y-46738593D01*
X108418013Y-46737632D01*
X108617261Y-46698000D01*
X108912739Y-46698000D01*
X109202532Y-46755643D01*
X109202535Y-46755644D01*
X109202534Y-46755644D01*
X109475517Y-46868717D01*
X109615768Y-46962430D01*
X109721197Y-47032875D01*
X109930125Y-47241803D01*
X109953019Y-47276067D01*
X110094283Y-47487483D01*
X110187956Y-47713631D01*
X110207357Y-47760468D01*
X110265000Y-48050261D01*
X110265000Y-48345739D01*
X110207357Y-48635532D01*
X110207356Y-48635534D01*
X110094283Y-48908517D01*
X110000570Y-49048768D01*
X109930125Y-49154197D01*
X109721197Y-49363125D01*
X109615768Y-49433570D01*
X109475517Y-49527283D01*
X109249369Y-49620956D01*
X109202532Y-49640357D01*
X108912739Y-49698000D01*
X108617261Y-49698000D01*
X108327468Y-49640357D01*
X108280631Y-49620956D01*
X108054483Y-49527283D01*
X107914232Y-49433570D01*
X107808803Y-49363125D01*
X107599875Y-49154197D01*
X107529430Y-49048768D01*
X107435717Y-48908517D01*
X107322644Y-48635534D01*
X107322643Y-48635532D01*
X107265000Y-48345739D01*
X107265000Y-48050261D01*
X107322643Y-47760468D01*
X107355762Y-47680512D01*
X107435717Y-47487483D01*
X107442671Y-47477076D01*
X107447287Y-47468441D01*
X107450132Y-47459061D01*
X107451093Y-47449307D01*
X107450132Y-47439552D01*
X107447287Y-47430173D01*
X107442667Y-47421528D01*
X107436449Y-47413951D01*
X107428872Y-47407733D01*
X107420228Y-47403112D01*
X107410848Y-47400267D01*
X107401094Y-47399306D01*
X107391339Y-47400267D01*
X107381959Y-47403112D01*
X107333793Y-47423063D01*
X106957059Y-47498000D01*
X106572941Y-47498000D01*
X106196207Y-47423063D01*
X105841328Y-47276067D01*
X105521946Y-47062663D01*
X105250337Y-46791054D01*
X105036933Y-46471672D01*
X104889937Y-46116793D01*
X104815000Y-45740059D01*
X104815000Y-45355941D01*
X104889937Y-44979207D01*
X105036933Y-44624328D01*
X105250337Y-44304946D01*
X105521946Y-44033337D01*
X105841328Y-43819933D01*
X106196207Y-43672937D01*
X106572941Y-43598000D01*
X106957059Y-43598000D01*
X107333793Y-43672937D01*
X107333793Y-43672937D01*
G37*
G36*
X161476800Y-47757800D02*
X159597200Y-47757800D01*
X159597200Y-45878200D01*
X161476800Y-45878200D01*
X161476800Y-47757800D01*
X161476800Y-47757800D01*
G37*
G36*
X150651129Y-45914316D02*
X150822162Y-45985160D01*
X150883649Y-46026244D01*
X150976090Y-46088011D01*
X151106989Y-46218910D01*
X151168756Y-46311351D01*
X151209840Y-46372838D01*
X151209840Y-46372839D01*
X151280684Y-46543871D01*
X151314997Y-46716371D01*
X151316800Y-46725438D01*
X151316800Y-46910562D01*
X151280684Y-47092129D01*
X151209840Y-47263162D01*
X151201217Y-47276067D01*
X151106989Y-47417090D01*
X150976090Y-47547989D01*
X150883649Y-47609756D01*
X150822162Y-47650840D01*
X150651129Y-47721684D01*
X150469563Y-47757800D01*
X150284437Y-47757800D01*
X150102871Y-47721684D01*
X149931838Y-47650840D01*
X149870351Y-47609756D01*
X149777910Y-47547989D01*
X149647011Y-47417090D01*
X149552783Y-47276067D01*
X149544160Y-47263162D01*
X149473316Y-47092129D01*
X149437200Y-46910562D01*
X149437200Y-46725438D01*
X149439004Y-46716371D01*
X149473316Y-46543871D01*
X149544160Y-46372839D01*
X149544160Y-46372838D01*
X149585244Y-46311351D01*
X149647011Y-46218910D01*
X149777910Y-46088011D01*
X149870351Y-46026244D01*
X149931838Y-45985160D01*
X150102871Y-45914316D01*
X150284437Y-45878200D01*
X150469563Y-45878200D01*
X150651129Y-45914316D01*
X150651129Y-45914316D01*
G37*
G36*
X153191129Y-45914316D02*
X153362162Y-45985160D01*
X153423649Y-46026244D01*
X153516090Y-46088011D01*
X153646989Y-46218910D01*
X153708756Y-46311351D01*
X153749840Y-46372838D01*
X153749840Y-46372839D01*
X153820684Y-46543871D01*
X153854997Y-46716371D01*
X153856800Y-46725438D01*
X153856800Y-46910562D01*
X153820684Y-47092129D01*
X153749840Y-47263162D01*
X153741217Y-47276067D01*
X153646989Y-47417090D01*
X153516090Y-47547989D01*
X153423649Y-47609756D01*
X153362162Y-47650840D01*
X153191129Y-47721684D01*
X153009563Y-47757800D01*
X152824437Y-47757800D01*
X152642871Y-47721684D01*
X152471838Y-47650840D01*
X152410351Y-47609756D01*
X152317910Y-47547989D01*
X152187011Y-47417090D01*
X152092783Y-47276067D01*
X152084160Y-47263162D01*
X152013316Y-47092129D01*
X151977200Y-46910562D01*
X151977200Y-46725438D01*
X151979004Y-46716371D01*
X152013316Y-46543871D01*
X152084160Y-46372839D01*
X152084160Y-46372838D01*
X152125244Y-46311351D01*
X152187011Y-46218910D01*
X152317910Y-46088011D01*
X152410351Y-46026244D01*
X152471838Y-45985160D01*
X152642871Y-45914316D01*
X152824437Y-45878200D01*
X153009563Y-45878200D01*
X153191129Y-45914316D01*
X153191129Y-45914316D01*
G37*
G36*
X155731129Y-45914316D02*
X155902162Y-45985160D01*
X155963649Y-46026244D01*
X156056090Y-46088011D01*
X156186989Y-46218910D01*
X156248756Y-46311351D01*
X156289840Y-46372838D01*
X156289840Y-46372839D01*
X156360684Y-46543871D01*
X156394997Y-46716371D01*
X156396800Y-46725438D01*
X156396800Y-46910562D01*
X156360684Y-47092129D01*
X156289840Y-47263162D01*
X156281217Y-47276067D01*
X156186989Y-47417090D01*
X156056090Y-47547989D01*
X155963649Y-47609756D01*
X155902162Y-47650840D01*
X155731129Y-47721684D01*
X155549563Y-47757800D01*
X155364437Y-47757800D01*
X155182871Y-47721684D01*
X155011838Y-47650840D01*
X154950351Y-47609756D01*
X154857910Y-47547989D01*
X154727011Y-47417090D01*
X154632783Y-47276067D01*
X154624160Y-47263162D01*
X154553316Y-47092129D01*
X154517200Y-46910562D01*
X154517200Y-46725438D01*
X154519004Y-46716371D01*
X154553316Y-46543871D01*
X154624160Y-46372839D01*
X154624160Y-46372838D01*
X154665244Y-46311351D01*
X154727011Y-46218910D01*
X154857910Y-46088011D01*
X154950351Y-46026244D01*
X155011838Y-45985160D01*
X155182871Y-45914316D01*
X155364437Y-45878200D01*
X155549563Y-45878200D01*
X155731129Y-45914316D01*
X155731129Y-45914316D01*
G37*
G36*
X158271129Y-45914316D02*
X158442162Y-45985160D01*
X158503649Y-46026244D01*
X158596090Y-46088011D01*
X158726989Y-46218910D01*
X158788756Y-46311351D01*
X158829840Y-46372838D01*
X158829840Y-46372839D01*
X158900684Y-46543871D01*
X158934997Y-46716371D01*
X158936800Y-46725438D01*
X158936800Y-46910562D01*
X158900684Y-47092129D01*
X158829840Y-47263162D01*
X158821217Y-47276067D01*
X158726989Y-47417090D01*
X158596090Y-47547989D01*
X158503649Y-47609756D01*
X158442162Y-47650840D01*
X158271129Y-47721684D01*
X158089563Y-47757800D01*
X157904437Y-47757800D01*
X157722871Y-47721684D01*
X157551838Y-47650840D01*
X157490351Y-47609756D01*
X157397910Y-47547989D01*
X157267011Y-47417090D01*
X157172783Y-47276067D01*
X157164160Y-47263162D01*
X157093316Y-47092129D01*
X157057200Y-46910562D01*
X157057200Y-46725438D01*
X157059004Y-46716371D01*
X157093316Y-46543871D01*
X157164160Y-46372839D01*
X157164160Y-46372838D01*
X157205244Y-46311351D01*
X157267011Y-46218910D01*
X157397910Y-46088011D01*
X157490351Y-46026244D01*
X157551838Y-45985160D01*
X157722871Y-45914316D01*
X157904437Y-45878200D01*
X158089563Y-45878200D01*
X158271129Y-45914316D01*
X158271129Y-45914316D01*
G37*
G36*
X79635002Y-46194077D02*
X78305923Y-47523156D01*
X76976844Y-46194077D01*
X78305923Y-44864998D01*
X79635002Y-46194077D01*
X79635002Y-46194077D01*
G37*
G36*
X80376103Y-43494342D02*
X80547136Y-43565186D01*
X80596245Y-43598000D01*
X80701064Y-43668037D01*
X80831963Y-43798936D01*
X80893730Y-43891377D01*
X80934814Y-43952864D01*
X80968147Y-44033337D01*
X81005658Y-44123897D01*
X81041672Y-44304948D01*
X81041774Y-44305464D01*
X81041774Y-44490588D01*
X81005658Y-44672155D01*
X80934814Y-44843188D01*
X80920241Y-44864998D01*
X80831963Y-44997116D01*
X80701064Y-45128015D01*
X80608623Y-45189782D01*
X80547136Y-45230866D01*
X80376103Y-45301710D01*
X80194537Y-45337826D01*
X80009411Y-45337826D01*
X79827845Y-45301710D01*
X79656812Y-45230866D01*
X79595325Y-45189782D01*
X79502884Y-45128015D01*
X79371985Y-44997116D01*
X79283707Y-44864998D01*
X79269134Y-44843188D01*
X79198290Y-44672155D01*
X79162174Y-44490588D01*
X79162174Y-44305464D01*
X79162277Y-44304948D01*
X79198290Y-44123897D01*
X79235801Y-44033337D01*
X79269134Y-43952864D01*
X79310218Y-43891377D01*
X79371985Y-43798936D01*
X79502884Y-43668037D01*
X79607703Y-43598000D01*
X79656812Y-43565186D01*
X79827845Y-43494342D01*
X80009411Y-43458226D01*
X80194537Y-43458226D01*
X80376103Y-43494342D01*
X80376103Y-43494342D01*
G37*
G36*
X82160778Y-41735790D02*
X82160781Y-41735791D01*
X82160780Y-41735791D01*
X82324715Y-41803695D01*
X82422852Y-41869268D01*
X82472255Y-41902278D01*
X82597722Y-42027745D01*
X82597723Y-42027747D01*
X82696305Y-42175285D01*
X82696305Y-42175286D01*
X82764210Y-42339222D01*
X82798826Y-42513251D01*
X82798826Y-42690697D01*
X82764210Y-42864726D01*
X82764209Y-42864728D01*
X82696305Y-43028663D01*
X82630732Y-43126800D01*
X82597722Y-43176203D01*
X82472255Y-43301670D01*
X82422852Y-43334680D01*
X82324715Y-43400253D01*
X82208794Y-43448269D01*
X82160778Y-43468158D01*
X81986749Y-43502774D01*
X81809303Y-43502774D01*
X81635274Y-43468158D01*
X81587258Y-43448269D01*
X81471337Y-43400253D01*
X81373200Y-43334680D01*
X81323797Y-43301670D01*
X81198330Y-43176203D01*
X81165320Y-43126800D01*
X81099747Y-43028663D01*
X81031843Y-42864728D01*
X81031842Y-42864726D01*
X80997226Y-42690697D01*
X80997226Y-42513251D01*
X81031842Y-42339222D01*
X81099747Y-42175286D01*
X81099747Y-42175285D01*
X81198329Y-42027747D01*
X81198330Y-42027745D01*
X81323797Y-41902278D01*
X81373200Y-41869268D01*
X81471337Y-41803695D01*
X81635272Y-41735791D01*
X81635271Y-41735791D01*
X81635274Y-41735790D01*
X81809303Y-41701174D01*
X81986749Y-41701174D01*
X82160778Y-41735790D01*
X82160778Y-41735790D01*
G37*
G36*
X75933405Y-35922974D02*
X76345197Y-36093545D01*
X76515768Y-36164197D01*
X76864389Y-36397138D01*
X77039883Y-36514399D01*
X77485601Y-36960117D01*
X77485602Y-36960119D01*
X77835803Y-37484232D01*
X77835803Y-37484233D01*
X78077026Y-38066595D01*
X78200000Y-38684827D01*
X78200000Y-39315173D01*
X78077026Y-39933405D01*
X77996854Y-40126956D01*
X77835803Y-40515768D01*
X77701210Y-40717200D01*
X77485601Y-41039883D01*
X77039883Y-41485601D01*
X77009922Y-41505620D01*
X76515768Y-41835803D01*
X76355285Y-41902277D01*
X75933405Y-42077026D01*
X75315173Y-42200000D01*
X74684827Y-42200000D01*
X74066595Y-42077026D01*
X73644715Y-41902277D01*
X73484232Y-41835803D01*
X72990078Y-41505620D01*
X72960117Y-41485601D01*
X72514399Y-41039883D01*
X72298790Y-40717200D01*
X72164197Y-40515768D01*
X72003146Y-40126956D01*
X71922974Y-39933405D01*
X71800000Y-39315173D01*
X71800000Y-38684827D01*
X71922974Y-38066595D01*
X72164197Y-37484233D01*
X72164197Y-37484232D01*
X72514398Y-36960119D01*
X72514399Y-36960117D01*
X72960117Y-36514399D01*
X73135611Y-36397138D01*
X73484232Y-36164197D01*
X73654803Y-36093545D01*
X74066595Y-35922974D01*
X74684827Y-35800000D01*
X75315173Y-35800000D01*
X75933405Y-35922974D01*
X75933405Y-35922974D01*
G37*
G36*
X167933405Y-35922974D02*
X168345197Y-36093545D01*
X168515768Y-36164197D01*
X168864389Y-36397138D01*
X169039883Y-36514399D01*
X169485601Y-36960117D01*
X169485602Y-36960119D01*
X169835803Y-37484232D01*
X169835803Y-37484233D01*
X170077026Y-38066595D01*
X170200000Y-38684827D01*
X170200000Y-39315173D01*
X170077026Y-39933405D01*
X169996854Y-40126956D01*
X169835803Y-40515768D01*
X169701210Y-40717200D01*
X169485601Y-41039883D01*
X169039883Y-41485601D01*
X169009922Y-41505620D01*
X168515768Y-41835803D01*
X168355285Y-41902277D01*
X167933405Y-42077026D01*
X167315173Y-42200000D01*
X166684827Y-42200000D01*
X166066595Y-42077026D01*
X165644715Y-41902277D01*
X165484232Y-41835803D01*
X164990078Y-41505620D01*
X164960117Y-41485601D01*
X164514399Y-41039883D01*
X164298790Y-40717200D01*
X164164197Y-40515768D01*
X164003146Y-40126956D01*
X163922974Y-39933405D01*
X163800000Y-39315173D01*
X163800000Y-38684827D01*
X163922974Y-38066595D01*
X164164197Y-37484233D01*
X164164197Y-37484232D01*
X164514398Y-36960119D01*
X164514399Y-36960117D01*
X164960117Y-36514399D01*
X165135611Y-36397138D01*
X165484232Y-36164197D01*
X165654803Y-36093545D01*
X166066595Y-35922974D01*
X166684827Y-35800000D01*
X167315173Y-35800000D01*
X167933405Y-35922974D01*
X167933405Y-35922974D01*
G37*
G36*
X97285858Y-39590272D02*
X97427411Y-39648906D01*
X97486045Y-39673193D01*
X97605884Y-39753267D01*
X97666211Y-39793576D01*
X97819424Y-39946789D01*
X97819425Y-39946791D01*
X97939807Y-40126955D01*
X97939807Y-40126956D01*
X98022728Y-40327142D01*
X98065000Y-40539659D01*
X98065000Y-40756341D01*
X98022728Y-40968858D01*
X97993308Y-41039883D01*
X97939807Y-41169045D01*
X97859733Y-41288884D01*
X97819424Y-41349211D01*
X97666211Y-41502424D01*
X97605884Y-41542733D01*
X97486045Y-41622807D01*
X97427411Y-41647094D01*
X97285858Y-41705728D01*
X97073341Y-41748000D01*
X96856659Y-41748000D01*
X96644142Y-41705728D01*
X96502589Y-41647094D01*
X96443955Y-41622807D01*
X96324116Y-41542733D01*
X96263789Y-41502424D01*
X96110576Y-41349211D01*
X96070267Y-41288884D01*
X95990193Y-41169045D01*
X95936692Y-41039883D01*
X95907272Y-40968858D01*
X95865000Y-40756341D01*
X95865000Y-40539659D01*
X95907272Y-40327142D01*
X95990193Y-40126956D01*
X95990193Y-40126955D01*
X96110575Y-39946791D01*
X96110576Y-39946789D01*
X96263789Y-39793576D01*
X96324116Y-39753267D01*
X96443955Y-39673193D01*
X96502589Y-39648906D01*
X96644142Y-39590272D01*
X96856659Y-39548000D01*
X97073341Y-39548000D01*
X97285858Y-39590272D01*
X97285858Y-39590272D01*
G37*
G36*
X105455858Y-39590272D02*
X105597411Y-39648906D01*
X105656045Y-39673193D01*
X105775884Y-39753267D01*
X105836211Y-39793576D01*
X105989424Y-39946789D01*
X105989425Y-39946791D01*
X106109807Y-40126955D01*
X106109807Y-40126956D01*
X106192728Y-40327142D01*
X106235000Y-40539659D01*
X106235000Y-40756341D01*
X106192728Y-40968858D01*
X106163308Y-41039883D01*
X106109807Y-41169045D01*
X106029733Y-41288884D01*
X105989424Y-41349211D01*
X105836211Y-41502424D01*
X105775884Y-41542733D01*
X105656045Y-41622807D01*
X105597411Y-41647094D01*
X105455858Y-41705728D01*
X105243341Y-41748000D01*
X105026659Y-41748000D01*
X104814142Y-41705728D01*
X104672589Y-41647094D01*
X104613955Y-41622807D01*
X104494116Y-41542733D01*
X104433789Y-41502424D01*
X104280576Y-41349211D01*
X104240267Y-41288884D01*
X104160193Y-41169045D01*
X104106692Y-41039883D01*
X104077272Y-40968858D01*
X104035000Y-40756341D01*
X104035000Y-40539659D01*
X104077272Y-40327142D01*
X104160193Y-40126956D01*
X104160193Y-40126955D01*
X104280575Y-39946791D01*
X104280576Y-39946789D01*
X104433789Y-39793576D01*
X104494116Y-39753267D01*
X104613955Y-39673193D01*
X104672589Y-39648906D01*
X104814142Y-39590272D01*
X105026659Y-39548000D01*
X105243341Y-39548000D01*
X105455858Y-39590272D01*
X105455858Y-39590272D01*
G37*
G36*
X107995858Y-39590272D02*
X108137411Y-39648906D01*
X108196045Y-39673193D01*
X108315884Y-39753267D01*
X108376211Y-39793576D01*
X108529424Y-39946789D01*
X108529425Y-39946791D01*
X108649807Y-40126955D01*
X108649807Y-40126956D01*
X108732728Y-40327142D01*
X108775000Y-40539659D01*
X108775000Y-40756341D01*
X108732728Y-40968858D01*
X108703308Y-41039883D01*
X108649807Y-41169045D01*
X108569733Y-41288884D01*
X108529424Y-41349211D01*
X108376211Y-41502424D01*
X108315884Y-41542733D01*
X108196045Y-41622807D01*
X108137411Y-41647094D01*
X107995858Y-41705728D01*
X107783341Y-41748000D01*
X107566659Y-41748000D01*
X107354142Y-41705728D01*
X107212589Y-41647094D01*
X107153955Y-41622807D01*
X107034116Y-41542733D01*
X106973789Y-41502424D01*
X106820576Y-41349211D01*
X106780267Y-41288884D01*
X106700193Y-41169045D01*
X106646692Y-41039883D01*
X106617272Y-40968858D01*
X106575000Y-40756341D01*
X106575000Y-40539659D01*
X106617272Y-40327142D01*
X106700193Y-40126956D01*
X106700193Y-40126955D01*
X106820575Y-39946791D01*
X106820576Y-39946789D01*
X106973789Y-39793576D01*
X107034116Y-39753267D01*
X107153955Y-39673193D01*
X107212589Y-39648906D01*
X107354142Y-39590272D01*
X107566659Y-39548000D01*
X107783341Y-39548000D01*
X107995858Y-39590272D01*
X107995858Y-39590272D01*
G37*
G36*
X94745858Y-39590272D02*
X94887411Y-39648906D01*
X94946045Y-39673193D01*
X95065884Y-39753267D01*
X95126211Y-39793576D01*
X95279424Y-39946789D01*
X95279425Y-39946791D01*
X95399807Y-40126955D01*
X95399807Y-40126956D01*
X95482728Y-40327142D01*
X95525000Y-40539659D01*
X95525000Y-40756341D01*
X95482728Y-40968858D01*
X95453308Y-41039883D01*
X95399807Y-41169045D01*
X95319733Y-41288884D01*
X95279424Y-41349211D01*
X95126211Y-41502424D01*
X95065884Y-41542733D01*
X94946045Y-41622807D01*
X94887411Y-41647094D01*
X94745858Y-41705728D01*
X94533341Y-41748000D01*
X94316659Y-41748000D01*
X94104142Y-41705728D01*
X93962589Y-41647094D01*
X93903955Y-41622807D01*
X93784116Y-41542733D01*
X93723789Y-41502424D01*
X93570576Y-41349211D01*
X93530267Y-41288884D01*
X93450193Y-41169045D01*
X93396692Y-41039883D01*
X93367272Y-40968858D01*
X93325000Y-40756341D01*
X93325000Y-40539659D01*
X93367272Y-40327142D01*
X93450193Y-40126956D01*
X93450193Y-40126955D01*
X93570575Y-39946791D01*
X93570576Y-39946789D01*
X93723789Y-39793576D01*
X93784116Y-39753267D01*
X93903955Y-39673193D01*
X93962589Y-39648906D01*
X94104142Y-39590272D01*
X94316659Y-39548000D01*
X94533341Y-39548000D01*
X94745858Y-39590272D01*
X94745858Y-39590272D01*
G37*
G36*
X83956829Y-39939739D02*
X83956832Y-39939740D01*
X83956831Y-39939740D01*
X84120766Y-40007644D01*
X84218903Y-40073217D01*
X84268306Y-40106227D01*
X84393773Y-40231694D01*
X84393774Y-40231696D01*
X84492356Y-40379234D01*
X84492356Y-40379235D01*
X84560261Y-40543171D01*
X84594877Y-40717200D01*
X84594877Y-40894646D01*
X84560261Y-41068675D01*
X84560260Y-41068677D01*
X84492356Y-41232612D01*
X84426783Y-41330749D01*
X84393773Y-41380152D01*
X84268306Y-41505619D01*
X84218903Y-41538629D01*
X84120766Y-41604202D01*
X84075849Y-41622807D01*
X83956829Y-41672107D01*
X83782800Y-41706723D01*
X83605354Y-41706723D01*
X83431325Y-41672107D01*
X83312305Y-41622807D01*
X83267388Y-41604202D01*
X83169251Y-41538629D01*
X83119848Y-41505619D01*
X82994381Y-41380152D01*
X82961371Y-41330749D01*
X82895798Y-41232612D01*
X82827894Y-41068677D01*
X82827893Y-41068675D01*
X82793277Y-40894646D01*
X82793277Y-40717200D01*
X82827893Y-40543171D01*
X82895798Y-40379235D01*
X82895798Y-40379234D01*
X82994380Y-40231696D01*
X82994381Y-40231694D01*
X83119848Y-40106227D01*
X83169251Y-40073217D01*
X83267388Y-40007644D01*
X83431323Y-39939740D01*
X83431322Y-39939740D01*
X83431325Y-39939739D01*
X83605354Y-39905123D01*
X83782800Y-39905123D01*
X83956829Y-39939739D01*
X83956829Y-39939739D01*
G37*
M02*
